<svg width="204" height="80" viewBox="0 0 204 80" fill="none" xmlns="http://www.w3.org/2000/svg">
<path d="M58.8933 24.3777C58.409 23.445 58.005 21.9645 58.1171 20.6258C58.2462 19.0734 58.1235 17.4343 59.6378 16.7639C61.2134 16.0659 62.9688 14.9831 63.9185 13.0733C63.9248 13.0585 63.9333 13.0458 63.9396 13.031C65.1515 10.5671 64.4662 7.58498 62.3217 5.86975C56.2941 1.04343 41.3223 -4.05572 23.4552 4.98147C8.917 12.3352 4.45021 24.2572 3.31871 27.4338C3.232 27.6791 3.16644 27.9308 3.14317 28.1888C3.0205 29.5551 3.81573 30.7649 5.05509 31.4755C6.09353 32.0719 7.17216 32.2284 8.14292 32.1776C8.98256 32.1332 9.7947 31.9133 10.5413 31.5537C10.1458 31.9936 9.63396 32.4885 9.01217 32.9369C8.2106 33.5228 7.23138 34.0325 6.23735 34.4258C5.74245 34.6246 5.23909 34.8023 4.77592 34.9482C4.31063 35.0963 3.87495 35.2084 3.49002 35.2951C2.71807 35.4664 2.1428 35.5362 1.70289 35.5891C1.48505 35.6166 1.28836 35.6419 1.15089 35.6673C1.0113 35.6927 0.911897 35.7202 0.827299 35.7498C0.664448 35.809 0.55447 35.8852 0.444492 35.9782C0.33663 36.0692 0.245687 36.1855 0.158974 36.3166C0.0743757 36.4456 -0.00599252 36.5725 0.000352342 36.7333C0.0066972 36.8898 0.11456 37.097 0.408538 37.2853C0.552355 37.3762 0.738471 37.4587 0.956311 37.5221C1.06417 37.5539 1.1805 37.5814 1.29893 37.6025C1.41949 37.6258 1.55061 37.6469 1.69443 37.6596C2.26758 37.7209 3.03319 37.6977 3.98069 37.4883C4.45233 37.3825 4.97049 37.2303 5.49711 37.0293C6.02585 36.8284 6.56305 36.5894 7.10448 36.3082C7.64591 36.0269 8.18522 35.699 8.69069 35.3332C9.19617 34.9652 9.66569 34.557 10.0696 34.1255C10.6026 33.5629 11.0066 32.9644 11.29 32.4166C11.2075 32.9052 11.0806 33.4466 10.8839 34.0029C10.5582 34.9419 10.0443 35.9169 9.44996 36.8073C9.15598 37.2535 8.84508 37.685 8.54476 38.0678C8.24655 38.4548 7.95257 38.7953 7.68398 39.0851C7.14678 39.6646 6.71321 40.0495 6.38117 40.3456C6.21831 40.4915 6.07027 40.6248 5.97086 40.7242C5.86935 40.8257 5.80378 40.9039 5.75302 40.9759C5.65362 41.1176 5.60498 41.2423 5.56691 41.3798C5.53095 41.5152 5.52038 41.6653 5.52461 41.8197C5.52884 41.9741 5.53518 42.1222 5.63247 42.2533C5.72764 42.3781 5.93491 42.488 6.28176 42.4754C6.45307 42.469 6.65399 42.4309 6.8676 42.359C6.97335 42.3231 7.08544 42.2808 7.19542 42.23C7.30751 42.1793 7.42807 42.1243 7.55285 42.0524C8.05832 41.7774 8.67589 41.3227 9.33364 40.61C9.66146 40.2547 9.99985 39.8338 10.3192 39.3685C10.6407 38.9032 10.9452 38.3998 11.2308 37.8605C11.5163 37.3212 11.7722 36.7459 11.9794 36.1559C12.1867 35.5658 12.339 34.963 12.4257 34.3772C12.4617 34.1488 12.4828 33.9246 12.4955 33.7046C14.2171 43.3319 14.7437 53.103 14.8537 70.8474C14.8537 70.9511 14.86 71.0526 14.8664 71.1541C14.9065 71.7548 15.1625 74.6501 17.6306 76.8941C20.2087 79.2375 23.2754 79.1233 23.838 79.0915C24.0093 79.0936 24.1827 79.0894 24.3561 79.0746C36.1153 78.0552 54.1833 75.6907 61.7929 73.212C63.4109 72.6853 64.498 71.1668 64.5339 69.4706C64.9463 49.9792 63.009 35.5552 59.1027 24.769C59.0519 24.6273 58.9822 24.4961 58.8954 24.3756L58.8933 24.3777ZM44.7591 74.3667C43.5853 74.445 42.5638 73.4404 42.4749 72.1228C42.3861 70.8051 43.2681 69.6736 44.4419 69.5954C45.6157 69.5171 46.6372 70.5217 46.726 71.8394C46.8148 73.157 45.9329 74.2885 44.7591 74.3667ZM61.0125 62.9439C60.9956 63.498 60.6255 63.9971 60.0608 64.2192C54.693 66.3257 35.3074 68.4195 25.2317 69.128C23.986 69.2147 22.9709 68.3687 22.9709 67.2478C22.9582 49.6725 21.1457 35.6567 18.3814 25.598C22.4083 23.1257 27.8395 20.8394 34.6814 19.9892C44.8035 18.7329 51.6623 20.6596 55.6553 22.9924C59.5934 36.545 61.4651 48.2978 61.0104 62.9417L61.0125 62.9439Z" fill="white"/>
<path d="M52.815 39.5123C52.1763 35.8852 51.3916 32.5499 50.5541 29.5339C50.4293 29.0856 50.0211 28.7768 49.5558 28.7768H46.2798C45.6009 28.7768 45.106 29.4176 45.2794 30.0733C46.0577 33.0067 46.7789 36.2024 47.3817 39.6413C47.775 41.8853 48.0838 44.0446 48.327 46.1131C48.3947 46.6926 48.9298 47.1007 49.5072 47.014L52.8023 46.5212C53.3543 46.4388 53.7434 45.9312 53.6779 45.3771C53.4558 43.5011 53.1724 41.5426 52.815 39.5123Z" fill="white"/>
<path d="M33.22 29.5339C33.0952 29.0856 32.687 28.7768 32.2217 28.7768H28.9457C28.2668 28.7768 27.7719 29.4176 27.9453 30.0733C28.7236 33.0067 29.4448 36.2024 30.0476 39.6413C30.6038 42.8159 30.9951 45.8275 31.2615 48.6425C31.3165 49.2347 31.858 49.6556 32.4438 49.5689L35.741 49.0761C36.2846 48.9957 36.6695 48.503 36.6187 47.9573C36.3713 45.3178 36.0054 42.4923 35.4809 39.5123C34.8422 35.8852 34.0596 32.5499 33.22 29.5339Z" fill="white"/>
<path d="M121.536 27.1145H116.277C115.718 27.1145 115.318 27.2541 115.073 27.5311C114.828 27.8103 114.654 28.0324 114.557 28.1952L105.907 43.7275L97.2568 28.1952C97.1912 28.0324 97.0178 27.8103 96.7407 27.5311C96.4615 27.2541 96.0597 27.1145 95.5373 27.1145H90.2288C89.901 27.1145 89.6133 27.2287 89.368 27.4592C89.1227 27.6898 89 27.9837 89 28.3433V60.2918C89 60.6534 89.1227 60.9474 89.368 61.1758C89.6133 61.4063 89.901 61.5206 90.2288 61.5206H96.1274C96.4869 61.5206 96.783 61.4063 97.0114 61.1758C97.2399 60.9453 97.3562 60.6513 97.3562 60.2918V41.86L102.91 52.1323C103.073 52.4263 103.287 52.6906 103.549 52.919C103.811 53.1496 104.171 53.2638 104.63 53.2638H107.186C107.645 53.2638 108.005 53.1496 108.267 52.919C108.529 52.6906 108.726 52.4284 108.857 52.1323L114.411 41.86V60.2918C114.411 60.6534 114.534 60.9474 114.779 61.1758C115.024 61.4063 115.327 61.5206 115.689 61.5206H121.539C121.898 61.5206 122.203 61.4063 122.448 61.1758C122.693 60.9474 122.816 60.6513 122.816 60.2918V28.3433C122.816 27.9837 122.693 27.6877 122.448 27.4592C122.203 27.2308 121.898 27.1145 121.539 27.1145H121.536Z" fill="white"/>
<path d="M137.462 27.1145H130.876C130.515 27.1145 130.221 27.2287 129.992 27.4592C129.762 27.6898 129.647 27.9837 129.647 28.3433V60.2918C129.647 60.6534 129.762 60.9474 129.992 61.1758C130.221 61.4063 130.517 61.5206 130.876 61.5206H137.462C137.822 61.5206 138.118 61.4063 138.346 61.1758C138.575 60.9453 138.691 60.6513 138.691 60.2918V28.3433C138.691 27.9837 138.577 27.6877 138.346 27.4592C138.116 27.2308 137.822 27.1145 137.462 27.1145Z" fill="white"/>
<path d="M161.399 43.5815L173.148 28.7367C173.279 28.5738 173.344 28.3771 173.344 28.1466C173.344 27.8843 173.247 27.6475 173.05 27.4339C172.854 27.2202 172.608 27.1145 172.312 27.1145H165.234C164.709 27.1145 164.29 27.2202 163.979 27.4339C163.668 27.6475 163.446 27.8526 163.315 28.0493L154.221 39.2564V28.3454C154.221 27.9859 154.107 27.6898 153.876 27.4614C153.646 27.2329 153.352 27.1166 152.992 27.1166H146.8C146.438 27.1166 146.144 27.2308 145.916 27.4614C145.685 27.6919 145.571 27.9859 145.571 28.3454V60.2939C145.571 60.6555 145.685 60.9495 145.916 61.1779C146.144 61.4085 146.44 61.5227 146.8 61.5227H152.992C153.352 61.5227 153.648 61.4085 153.876 61.1779C154.105 60.9474 154.221 60.6534 154.221 60.2939V48.3994L163.954 60.5392C164.051 60.6703 164.256 60.867 164.569 61.1293C164.88 61.3915 165.331 61.5227 165.921 61.5227H173.245C173.507 61.5227 173.744 61.4169 173.958 61.2033C174.171 60.9897 174.277 60.7528 174.277 60.4906C174.277 60.2283 174.211 60.0316 174.08 59.9005L161.399 43.5815Z" fill="white"/>
<path d="M203.571 54.7887C203.341 54.5602 203.047 54.4439 202.687 54.4439H186.613V47.6126H201.211C201.57 47.6126 201.866 47.49 202.095 47.2446C202.323 46.9993 202.44 46.7117 202.44 46.3838V42.1074C202.44 41.7479 202.325 41.4433 202.095 41.198C201.864 40.9526 201.57 40.83 201.211 40.83H186.613V34.1932H202.294C202.653 34.1932 202.949 34.079 203.178 33.8485C203.406 33.618 203.522 33.324 203.522 32.9645V28.3433C203.522 27.9837 203.408 27.6877 203.178 27.4592C202.947 27.2308 202.653 27.1145 202.294 27.1145H179.34C178.978 27.1145 178.684 27.2287 178.456 27.4592C178.226 27.6898 178.111 27.9837 178.111 28.3433V60.2918C178.111 60.6534 178.226 60.9474 178.456 61.1758C178.684 61.4063 178.981 61.5206 179.34 61.5206H202.687C203.047 61.5206 203.343 61.4063 203.571 61.1758C203.8 60.9474 203.916 60.6513 203.916 60.2918V55.6706C203.916 55.3111 203.802 55.015 203.571 54.7865V54.7887Z" fill="white"/>
</svg>
