<svg width="24" height="24" viewBox="0 0 24 24" fill="none" xmlns="http://www.w3.org/2000/svg">
<path d="M0.00110824 10.0098C-0.0577097 9.6 2.20678 8.54634 11.0883 4.77073C17.2053 2.16585 22.4107 0.0292683 22.6166 0C22.793 0 22.9695 0.0878049 22.9695 0.204878C22.9695 0.35122 19.7345 3.65854 8.55911 14.7805L4.29481 12.6732C1.35392 11.2098 0.0305172 10.3902 0.00110824 10.0098Z" fill="white"/>
<path d="M9.29434 15.5122L16.4995 8.34146C20.4697 4.39024 23.7929 1.17073 23.9106 1.17073C23.9988 1.17073 24.0282 1.46341 23.9694 1.8439C23.9106 2.19512 21.7637 7.31707 19.2346 13.2585C15.6467 21.5415 14.4703 24 14.088 24C13.7057 24 12.941 22.8 9.29434 15.5122Z" fill="white"/>
</svg>
