<svg width="29" height="24" viewBox="0 0 29 24" fill="none" xmlns="http://www.w3.org/2000/svg">
<path fill-rule="evenodd" clip-rule="evenodd" d="M14.3961 0.266602C14.5001 0.266602 14.8063 0.299004 15.0798 0.342206C15.3477 0.385409 15.7306 0.477214 15.9274 0.536618C16.1243 0.601422 16.4415 0.73103 16.6384 0.828236C16.8353 0.925442 17.1415 1.11445 17.322 1.24406C17.5025 1.37907 17.7704 1.60588 17.9181 1.75169C18.0603 1.8975 18.29 2.16212 18.4158 2.34033C18.547 2.51854 18.7384 2.84796 18.8478 3.06937C18.9572 3.29079 19.0939 3.66881 19.1595 3.90642C19.2525 4.24664 19.2799 4.49506 19.2853 5.06749C19.2908 5.61833 19.2635 5.89374 19.1869 6.20156C19.1267 6.42298 19.0174 6.7632 18.9408 6.95761C18.8588 7.15202 18.6564 7.51384 18.4923 7.76766C18.3228 8.02147 18.0275 8.37249 17.8361 8.55071C17.6447 8.72892 17.3767 8.95033 17.24 9.04754C17.1032 9.13934 16.786 9.31215 16.529 9.43636C16.272 9.55517 15.8673 9.70638 15.6266 9.77118C15.2821 9.86299 15.0305 9.88459 14.4508 9.88459C13.8711 9.88459 13.6196 9.86299 13.275 9.77118C13.0344 9.70638 12.6297 9.55517 12.3727 9.43636C12.1156 9.31215 11.7984 9.13934 11.6617 9.04754C11.525 8.95033 11.257 8.72892 11.0656 8.55071C10.8742 8.37249 10.5789 8.02147 10.4093 7.76766C10.2453 7.51384 10.0429 7.15202 9.96089 6.95761C9.88432 6.7632 9.77494 6.42298 9.71479 6.20156C9.63822 5.89374 9.61088 5.61833 9.61635 5.06749C9.62182 4.49506 9.64916 4.24664 9.74213 3.90642C9.80776 3.66881 9.94448 3.29079 10.0539 3.06937C10.1632 2.84796 10.3546 2.51854 10.4859 2.34033C10.6117 2.16212 10.8414 1.8975 10.9836 1.75169C11.1312 1.60588 11.3992 1.37907 11.5797 1.24406C11.7601 1.11445 12.0664 0.925442 12.2633 0.828236C12.4602 0.73103 12.7774 0.601422 12.9742 0.536618C13.1711 0.471814 13.5266 0.390809 13.7672 0.347606C14.0079 0.309804 14.2922 0.272002 14.3961 0.266602ZM12.9469 2.30253C12.7008 2.42673 12.4219 2.63735 12.1813 2.87496C11.9242 3.12878 11.7273 3.38799 11.6016 3.63641C11.4922 3.84162 11.3609 4.20884 11.3062 4.44646C11.2351 4.75968 11.2187 4.99729 11.2406 5.31051C11.257 5.56432 11.3281 5.90995 11.4101 6.14756C11.4867 6.36897 11.6453 6.68759 11.7547 6.8496C11.8641 7.01161 12.0937 7.27623 12.2578 7.43284C12.4438 7.61105 12.7391 7.80546 13.0016 7.93507C13.2422 8.05388 13.6086 8.18348 13.8219 8.22669C14.0297 8.26989 14.3141 8.30769 14.4508 8.30769C14.5876 8.30769 14.8665 8.26989 15.0798 8.22669C15.2876 8.18348 15.6595 8.05388 15.9001 7.93507C16.1626 7.80546 16.4579 7.61105 16.6439 7.43284C16.8079 7.27623 17.0376 7.01161 17.147 6.8496C17.2564 6.68759 17.415 6.36897 17.4915 6.14756C17.5736 5.90995 17.6447 5.56432 17.6611 5.31051C17.6829 4.99729 17.6665 4.75968 17.5954 4.44646C17.5408 4.20884 17.4095 3.84162 17.3001 3.63641C17.1743 3.38799 16.9775 3.12878 16.7204 2.87496C16.4743 2.63735 16.2009 2.42673 15.9548 2.30253C15.7415 2.19452 15.4134 2.06491 15.2165 2.02171C15.0196 1.97311 14.6641 1.9407 14.4235 1.9407C14.1829 1.9407 13.8383 1.97851 13.6578 2.02171C13.4774 2.06491 13.1547 2.18912 12.9469 2.30253ZM14.4126 10.3652C16.9173 10.3598 17.4095 10.3706 17.7486 10.4462C17.9619 10.4948 18.3392 10.6244 18.5798 10.7324C18.8205 10.8404 19.165 11.0403 19.3455 11.1753C19.526 11.3103 19.7939 11.5533 19.9361 11.7153C20.0783 11.8773 20.2697 12.1365 20.3572 12.2877C20.4502 12.4497 20.5541 12.5632 20.5924 12.5523C20.6252 12.5415 20.8658 12.5037 21.1229 12.4659C21.4291 12.4227 22.1729 12.4119 23.3104 12.4281C24.8964 12.4443 25.0659 12.4551 25.4433 12.5686C25.6675 12.6334 26.0503 12.79 26.291 12.9142C26.6136 13.0816 26.8597 13.2652 27.2261 13.627C27.6472 14.0374 27.7621 14.194 27.9754 14.6261C28.1176 14.9069 28.2816 15.3335 28.3418 15.5711C28.4457 15.9708 28.4512 16.1814 28.4512 18.5413C28.4512 20.8419 28.4402 21.1119 28.3527 21.4305C28.298 21.6249 28.1668 21.9165 28.0574 22.0785C27.9535 22.2405 27.7457 22.4782 27.598 22.6078C27.4504 22.7374 27.2097 22.8994 27.0566 22.975C26.9089 23.0452 26.6082 23.1424 26.4003 23.1856C26.0667 23.2558 24.4698 23.2666 14.4508 23.2666C4.43185 23.2666 2.83493 23.2558 2.50133 23.1856C2.28805 23.1424 1.9982 23.0452 1.84507 22.975C1.69741 22.8994 1.45131 22.7374 1.30365 22.6078C1.15599 22.4782 0.94817 22.2459 0.849731 22.0893C0.751291 21.9381 0.620038 21.6465 0.554411 21.4413C0.445033 21.0903 0.439564 20.9931 0.46144 18.4063C0.477847 15.7763 0.483316 15.7277 0.6091 15.3551C0.680195 15.1445 0.833324 14.7827 0.959108 14.5451C1.13411 14.2157 1.29818 13.9996 1.681 13.627C2.04742 13.2652 2.28258 13.0816 2.61071 12.9142C2.85134 12.79 3.23416 12.6334 3.45839 12.5686C3.83574 12.4551 4.00527 12.4443 5.59125 12.4281C6.72878 12.4119 7.47255 12.4227 7.7788 12.4659C8.03584 12.5037 8.27647 12.5415 8.31475 12.5523C8.34757 12.5632 8.45148 12.4497 8.54445 12.2877C8.63195 12.1365 8.82336 11.8773 8.96555 11.7153C9.10774 11.5533 9.36478 11.3211 9.52884 11.1915C9.69291 11.0673 10.0265 10.8728 10.2671 10.7594C10.5078 10.646 10.8742 10.511 11.0875 10.4624C11.4211 10.3814 11.8312 10.3652 14.4126 10.3652ZM10.814 12.2877C10.6937 12.3525 10.464 12.5307 10.3 12.6874C10.1414 12.8494 9.95542 13.087 9.88432 13.222C9.81323 13.357 9.72026 13.6 9.67104 13.762C9.59447 14.0212 9.58353 14.5073 9.58353 17.8231V21.5925H19.3181C19.3181 14.5073 19.3072 14.0212 19.2306 13.762C19.1814 13.6 19.0884 13.357 19.0174 13.222C18.9463 13.087 18.7603 12.8494 18.6017 12.6874C18.4377 12.5307 18.197 12.3471 18.0603 12.2769C17.9236 12.2067 17.6775 12.1149 17.5134 12.0663C17.2509 11.9907 16.8407 11.9799 14.4235 11.9799C11.9078 11.9853 11.607 11.9961 11.3336 12.0825C11.1695 12.1365 10.9343 12.2283 10.814 12.2877ZM3.48573 14.2913C3.28338 14.3831 3.03181 14.5667 2.83493 14.7665C2.63259 14.9609 2.44664 15.2093 2.35367 15.4091C2.27164 15.5873 2.17867 15.8682 2.14586 16.0302C2.11304 16.2084 2.09117 17.2776 2.09117 18.6493C2.09117 20.75 2.1021 20.9877 2.18961 21.1605C2.23883 21.2631 2.37008 21.4035 2.47399 21.4737L2.6654 21.5979L7.94287 21.5925C7.94287 14.9447 7.92646 14.1292 7.87724 14.0968C7.83896 14.0752 7.0405 14.0536 6.11079 14.0482C5.17562 14.0428 4.27872 14.0644 4.11465 14.0914C3.95059 14.1184 3.6662 14.2102 3.48573 14.2913ZM20.9862 14.113L20.9588 21.5925L26.2363 21.5979C26.5316 21.4035 26.6628 21.2631 26.7121 21.1605C26.7996 20.9877 26.8105 20.75 26.8105 18.6493C26.8105 17.2776 26.7886 16.2084 26.7558 16.0302C26.723 15.8682 26.63 15.5873 26.548 15.4091C26.455 15.2093 26.2691 14.9609 26.0667 14.7665C25.8699 14.5667 25.6183 14.3885 25.4159 14.2967C25.2355 14.2102 24.9292 14.1184 24.7323 14.0914C24.5355 14.059 23.6987 14.0374 22.8729 14.0374C22.0471 14.0428 21.2815 14.059 21.1776 14.0806L20.9862 14.113ZM5.89204 4.80288C6.20923 4.79748 6.58659 4.83528 6.7944 4.88388C6.99128 4.92709 7.29754 5.03509 7.47801 5.1161C7.65849 5.2025 7.95381 5.39151 8.13975 5.53192C8.32569 5.67773 8.5882 5.93155 8.73039 6.09356C8.86711 6.25557 9.06946 6.55798 9.17337 6.7686C9.27728 6.97381 9.40306 7.30323 9.45775 7.49764C9.50697 7.70285 9.54525 8.06468 9.54525 8.36169C9.54525 8.64251 9.51791 9.00973 9.47962 9.17174C9.43587 9.33375 9.3265 9.63617 9.22806 9.84678C9.12962 10.052 8.93821 10.376 8.79601 10.5596C8.65929 10.7486 8.40226 11.0079 8.23272 11.1429C8.05772 11.2779 7.71865 11.4831 7.47801 11.5965C7.23738 11.7099 6.90378 11.8395 6.73972 11.8773C6.57565 11.9151 6.20376 11.9475 5.91938 11.9475C5.635 11.9475 5.26312 11.9151 5.09905 11.8773C4.93498 11.8341 4.62326 11.7261 4.41544 11.6289C4.20215 11.5317 3.87402 11.3373 3.68261 11.1915C3.4912 11.0457 3.22322 10.7918 3.09744 10.6298C2.96619 10.4678 2.78571 10.1978 2.69821 10.0358C2.61071 9.87379 2.48493 9.54437 2.4193 9.30675C2.33727 9.00973 2.29898 8.71812 2.29898 8.3887C2.29898 8.11868 2.33727 7.72986 2.38649 7.52464C2.43571 7.31403 2.57243 6.96301 2.68181 6.7416C2.80759 6.49858 3.02635 6.19076 3.2451 5.95855C3.44198 5.75334 3.7373 5.49412 3.90137 5.38611C4.06543 5.27811 4.33341 5.1377 4.49747 5.06749C4.66154 4.99729 4.91858 4.91088 5.07171 4.87308C5.21937 4.83528 5.59125 4.80288 5.89204 4.80288ZM4.60685 6.89821C4.47013 7.01161 4.28419 7.24923 4.18575 7.42204C4.08731 7.59485 3.98887 7.87566 3.96152 8.03767C3.93418 8.19968 3.93418 8.4805 3.95605 8.65871C3.9834 8.83692 4.0709 9.11234 4.15293 9.27435C4.24044 9.43636 4.43732 9.68477 4.60685 9.83058C4.78186 9.98179 5.03342 10.1438 5.20843 10.2086C5.41625 10.2842 5.64047 10.322 5.91938 10.322C6.20923 10.322 6.42252 10.2842 6.65768 10.1978C6.90378 10.106 7.07332 9.99259 7.31942 9.74418C7.56005 9.50656 7.68583 9.32295 7.77333 9.09074C7.86084 8.86932 7.89912 8.64251 7.90459 8.3887C7.90459 8.16728 7.8663 7.89727 7.81708 7.74066C7.7624 7.58945 7.63114 7.34643 7.5163 7.20062C7.40145 7.04941 7.18269 6.8442 7.02957 6.7416C6.87097 6.63899 6.63034 6.52018 6.49362 6.48238C6.35689 6.44458 6.08345 6.41758 5.87563 6.41758C5.61313 6.41758 5.41625 6.45538 5.18108 6.55258C5.00061 6.62819 4.74357 6.7794 4.60685 6.89821ZM23.0917 4.81908C23.5675 4.82988 23.8573 4.86228 24.0487 4.92709C24.1964 4.98109 24.4808 5.0999 24.6776 5.1917C24.9347 5.31591 25.1698 5.49412 25.5253 5.85054C25.9081 6.22316 26.0667 6.42838 26.2199 6.7416C26.3347 6.96301 26.466 7.31403 26.5152 7.52464C26.5644 7.72986 26.6027 8.11868 26.6027 8.3887C26.6027 8.71812 26.5644 9.00973 26.4824 9.30675C26.4167 9.54437 26.291 9.87379 26.2035 10.0358C26.116 10.1978 25.9355 10.4678 25.8042 10.6298C25.6784 10.7918 25.4105 11.0457 25.2191 11.1915C25.0277 11.3373 24.6941 11.5317 24.4862 11.6289C24.2729 11.7261 23.9667 11.8341 23.8026 11.8773C23.6386 11.9151 23.2667 11.9475 22.9823 11.9475C22.6979 11.9475 22.326 11.9151 22.162 11.8773C21.9979 11.8395 21.6643 11.7099 21.4237 11.5965C21.183 11.4831 20.844 11.2779 20.669 11.1429C20.4994 11.0079 20.2424 10.7486 20.1057 10.5596C19.9635 10.376 19.7721 10.052 19.6736 9.84678C19.5752 9.63617 19.4658 9.33375 19.4221 9.17174C19.3838 9.00973 19.3564 8.64251 19.3564 8.36169C19.3564 8.06468 19.3947 7.70285 19.4439 7.49764C19.4986 7.30323 19.6244 6.97381 19.7283 6.7686C19.8322 6.55798 20.0346 6.25557 20.1713 6.09356C20.3135 5.93155 20.576 5.67773 20.7619 5.53192C20.9479 5.39151 21.2432 5.2025 21.4237 5.1161C21.6041 5.03509 21.8995 4.92709 22.0799 4.88388C22.3096 4.82448 22.6104 4.80288 23.0917 4.81908ZM21.8885 6.7308C21.7244 6.8388 21.5002 7.04941 21.3854 7.20062C21.2705 7.34643 21.1393 7.58945 21.0846 7.74066C21.0354 7.89727 20.9971 8.16728 20.9971 8.3887C21.0026 8.64251 21.0408 8.86932 21.1283 9.09074C21.2158 9.32295 21.3416 9.50656 21.5823 9.74418C21.8284 9.99259 21.9979 10.106 22.244 10.1978C22.4792 10.2842 22.6924 10.322 22.9823 10.322C23.2612 10.322 23.4854 10.2842 23.6932 10.2086C23.8682 10.1438 24.1198 9.98179 24.2948 9.83058C24.4644 9.68477 24.6612 9.43636 24.7487 9.27435C24.8308 9.11234 24.9183 8.83692 24.9456 8.65871C24.9675 8.4805 24.9675 8.19968 24.9401 8.03767C24.9128 7.87566 24.8089 7.59485 24.7105 7.41664C24.6065 7.22762 24.4206 7.00081 24.262 6.8712C24.1143 6.7524 23.8518 6.60119 23.6768 6.53638C23.4526 6.44998 23.2557 6.41758 22.9659 6.42298C22.7526 6.42838 22.4846 6.45538 22.3807 6.48238C22.2768 6.50938 22.0526 6.62279 21.8885 6.7308Z" fill="black"/>
</svg>
