<svg width="556" height="421" viewBox="0 0 556 421" fill="none" xmlns="http://www.w3.org/2000/svg">
<path d="M22.0707 94.4721C23.9476 90.8576 25.5131 85.1203 25.0787 79.9321C24.5787 73.9161 25.0541 67.5641 19.1856 64.9659C13.0795 62.2611 6.27661 58.0647 2.59653 50.6635C2.57193 50.6062 2.53915 50.557 2.51457 50.4996C-2.18185 40.951 0.473709 29.3944 8.78465 22.7473C32.1438 4.04364 90.1646 -15.7174 159.406 19.3049C215.746 47.8031 233.057 94.0049 237.442 106.316C237.778 107.266 238.032 108.242 238.122 109.242C238.597 114.536 235.516 119.225 230.713 121.979C226.688 124.29 222.508 124.896 218.746 124.7C215.492 124.528 212.345 123.675 209.452 122.282C210.985 123.987 212.968 125.904 215.378 127.642C218.484 129.912 222.279 131.888 226.131 133.412C228.049 134.183 230 134.871 231.795 135.437C233.598 136.01 235.286 136.445 236.778 136.781C239.77 137.445 241.999 137.715 243.704 137.92C244.548 138.027 245.31 138.125 245.843 138.223C246.384 138.322 246.769 138.428 247.097 138.543C247.728 138.772 248.154 139.068 248.58 139.428C248.998 139.781 249.351 140.231 249.687 140.74C250.015 141.24 250.326 141.731 250.302 142.354C250.277 142.961 249.859 143.764 248.72 144.493C248.162 144.846 247.441 145.166 246.597 145.411C246.179 145.534 245.728 145.641 245.269 145.723C244.802 145.813 244.294 145.895 243.736 145.944C241.515 146.182 238.548 146.092 234.876 145.28C233.049 144.87 231.041 144.28 229 143.502C226.951 142.723 224.869 141.797 222.771 140.707C220.672 139.617 218.582 138.346 216.623 136.928C214.665 135.502 212.845 133.92 211.28 132.248C209.214 130.068 207.649 127.749 206.55 125.626C206.87 127.519 207.362 129.617 208.124 131.773C209.386 135.412 211.378 139.191 213.681 142.641C214.82 144.37 216.025 146.043 217.189 147.526C218.345 149.026 219.484 150.346 220.525 151.468C222.607 153.714 224.287 155.206 225.574 156.353C226.205 156.919 226.779 157.435 227.164 157.82C227.557 158.214 227.811 158.517 228.008 158.796C228.393 159.345 228.582 159.829 228.729 160.361C228.869 160.886 228.91 161.468 228.893 162.066C228.877 162.664 228.852 163.238 228.475 163.746C228.106 164.23 227.303 164.656 225.959 164.607C225.295 164.582 224.516 164.435 223.689 164.156C223.279 164.017 222.844 163.853 222.418 163.656C221.984 163.459 221.517 163.246 221.033 162.968C219.074 161.902 216.681 160.14 214.132 157.378C212.861 156.001 211.55 154.37 210.312 152.567C209.067 150.764 207.886 148.813 206.78 146.723C205.673 144.633 204.682 142.403 203.878 140.117C203.075 137.83 202.485 135.494 202.149 133.224C202.01 132.339 201.928 131.47 201.879 130.617C195.207 167.926 193.166 205.793 192.74 274.559C192.74 274.96 192.715 275.354 192.691 275.747C192.535 278.075 191.543 289.295 181.978 297.992C171.987 307.073 160.103 306.63 157.922 306.507C157.259 306.516 156.586 306.499 155.914 306.442C110.344 302.491 40.3236 293.328 10.8337 283.722C4.56361 281.681 0.350754 275.796 0.211411 269.223C-1.38684 193.687 6.12088 137.789 21.2592 95.9884C21.4559 95.4393 21.7264 94.9311 22.0624 94.4639L22.0707 94.4721ZM76.8457 288.197C81.3946 288.5 85.3534 284.607 85.6976 279.501C86.0419 274.395 82.6241 270.01 78.0752 269.707C73.5263 269.403 69.5676 273.296 69.2233 278.403C68.8791 283.509 72.2969 287.894 76.8457 288.197ZM13.8581 243.93C13.9236 246.077 15.358 248.011 17.5464 248.872C38.3483 257.035 113.475 265.149 152.521 267.895C157.349 268.231 161.283 264.953 161.283 260.609C161.332 192.498 168.356 138.182 179.069 99.2013C163.463 89.62 142.415 80.7599 115.901 77.465C76.6736 72.5965 50.0934 80.0632 34.619 89.1036C19.3577 141.625 12.1041 187.171 13.8663 243.921L13.8581 243.93Z" fill="white"/>
<path d="M36.165 153.124C38.6402 139.068 41.681 126.142 44.9267 114.455C45.4103 112.717 46.9921 111.52 48.7953 111.52H61.4912C64.1221 111.52 66.04 114.004 65.368 116.545C62.3518 127.913 59.5569 140.297 57.221 153.624C55.6965 162.32 54.4998 170.689 53.5573 178.704C53.295 180.95 51.2213 182.532 48.9838 182.196L36.2141 180.286C34.0749 179.967 32.5668 178 32.8209 175.852C33.6815 168.582 34.7798 160.992 36.165 153.124Z" fill="white"/>
<path d="M112.102 114.455C112.586 112.717 114.168 111.52 115.971 111.52H128.667C131.298 111.52 133.216 114.004 132.544 116.545C129.528 127.913 126.733 140.297 124.397 153.624C122.241 165.927 120.725 177.598 119.692 188.507C119.479 190.802 117.381 192.433 115.11 192.097L102.333 190.187C100.226 189.876 98.7345 187.966 98.9312 185.851C99.8901 175.623 101.308 164.673 103.341 153.124C105.816 139.068 108.849 126.142 112.102 114.455Z" fill="white"/>
<path d="M13.7963 367.609C11.9782 367.609 10.4007 367.328 9.06388 366.767C7.72702 366.205 6.6308 365.443 5.77521 364.481C4.91963 363.491 4.27794 362.328 3.85014 360.991C3.44909 359.655 3.24856 358.211 3.24856 356.66V339.214H7.13881V356.219C7.13881 359 7.75376 361.018 8.98367 362.275C10.2136 363.532 11.8178 364.16 13.7963 364.16C14.7856 364.16 15.6813 364.013 16.4834 363.719C17.3123 363.398 18.0208 362.917 18.609 362.275C19.1972 361.633 19.6518 360.818 19.9726 359.828C20.2935 358.812 20.4539 357.609 20.4539 356.219V339.214H24.3441V356.66C24.3441 358.211 24.1302 359.655 23.7024 360.991C23.3014 362.328 22.6597 363.491 21.7774 364.481C20.9218 365.443 19.8256 366.205 18.4887 366.767C17.1786 367.328 15.6145 367.609 13.7963 367.609ZM30.8203 346.754C31.6758 346.54 32.7988 346.313 34.1891 346.072C35.6062 345.832 37.2372 345.711 39.082 345.711C40.4189 345.711 41.5418 345.898 42.4509 346.273C43.36 346.62 44.122 347.142 44.7369 347.837C44.9241 347.703 45.2182 347.516 45.6192 347.275C46.0203 347.035 46.5149 346.807 47.1031 346.594C47.6914 346.353 48.3464 346.152 49.0683 345.992C49.7902 345.805 50.5656 345.711 51.3945 345.711C52.9987 345.711 54.3088 345.952 55.3248 346.433C56.3408 346.888 57.1296 347.543 57.691 348.398C58.2793 349.254 58.6669 350.27 58.8541 351.446C59.068 352.623 59.175 353.906 59.175 355.296V367.007H55.4451V356.099C55.4451 354.869 55.3783 353.813 55.2446 352.93C55.1376 352.048 54.9104 351.313 54.5628 350.724C54.242 350.136 53.7874 349.708 53.1992 349.441C52.6377 349.147 51.9025 349 50.9934 349C49.7368 349 48.694 349.174 47.8652 349.521C47.063 349.842 46.5149 350.136 46.2208 350.404C46.4347 351.099 46.5951 351.861 46.7021 352.69C46.809 353.518 46.8625 354.387 46.8625 355.296V367.007H43.1327V356.099C43.1327 354.869 43.0658 353.813 42.9322 352.93C42.7985 352.048 42.5578 351.313 42.2103 350.724C41.8894 350.136 41.4349 349.708 40.8467 349.441C40.2852 349.147 39.5633 349 38.681 349C38.3066 349 37.9056 349.013 37.4778 349.04C37.05 349.067 36.6356 349.107 36.2345 349.16C35.8602 349.187 35.5126 349.227 35.1918 349.281C34.8709 349.334 34.657 349.374 34.5501 349.401V367.007H30.8203V346.754ZM79.4994 364.32C81.0234 364.32 82.1464 364.12 82.8683 363.719C83.6169 363.318 83.9913 362.676 83.9913 361.794C83.9913 360.885 83.6303 360.163 82.9084 359.628C82.1865 359.093 80.9967 358.492 79.339 357.823C78.5369 357.502 77.7615 357.181 77.0129 356.861C76.291 356.513 75.6626 356.112 75.1279 355.657C74.5932 355.203 74.1654 354.655 73.8445 354.013C73.5237 353.371 73.3633 352.583 73.3633 351.647C73.3633 349.802 74.0451 348.345 75.4086 347.275C76.7722 346.179 78.6305 345.631 80.9833 345.631C81.5715 345.631 82.1598 345.671 82.748 345.751C83.3362 345.805 83.8843 345.885 84.3923 345.992C84.9003 346.072 85.3415 346.166 85.7158 346.273C86.1169 346.38 86.4243 346.473 86.6382 346.553L85.9564 349.762C85.5554 349.548 84.9271 349.334 84.0715 349.12C83.2159 348.88 82.1865 348.759 80.9833 348.759C79.9406 348.759 79.0315 348.973 78.2561 349.401C77.4808 349.802 77.0931 350.444 77.0931 351.326C77.0931 351.781 77.1733 352.182 77.3337 352.529C77.5209 352.877 77.7882 353.198 78.1358 353.492C78.5102 353.759 78.9647 354.013 79.4994 354.254C80.0342 354.494 80.6759 354.748 81.4245 355.016C82.4138 355.39 83.2961 355.764 84.0715 356.139C84.8468 356.486 85.5019 356.901 86.0366 357.382C86.5981 357.863 87.0259 358.451 87.32 359.147C87.6141 359.815 87.7612 360.644 87.7612 361.633C87.7612 363.558 87.0393 365.015 85.5955 366.005C84.1784 366.994 82.1464 367.489 79.4994 367.489C77.6546 367.489 76.2108 367.328 75.168 367.007C74.1253 366.713 73.4167 366.486 73.0424 366.326L73.7242 363.117C74.152 363.277 74.8338 363.518 75.7696 363.839C76.7054 364.16 77.9487 364.32 79.4994 364.32ZM96.2752 367.007H92.5454V346.152H96.2752V367.007ZM94.3902 342.382C93.7218 342.382 93.1469 342.169 92.6657 341.741C92.2111 341.286 91.9839 340.685 91.9839 339.936C91.9839 339.187 92.2111 338.599 92.6657 338.171C93.1469 337.717 93.7218 337.49 94.3902 337.49C95.0586 337.49 95.6201 337.717 96.0747 338.171C96.5559 338.599 96.7966 339.187 96.7966 339.936C96.7966 340.685 96.5559 341.286 96.0747 341.741C95.6201 342.169 95.0586 342.382 94.3902 342.382ZM107.542 364.32C109.066 364.32 110.189 364.12 110.911 363.719C111.66 363.318 112.034 362.676 112.034 361.794C112.034 360.885 111.673 360.163 110.951 359.628C110.229 359.093 109.039 358.492 107.382 357.823C106.58 357.502 105.804 357.181 105.055 356.861C104.334 356.513 103.705 356.112 103.171 355.657C102.636 355.203 102.208 354.655 101.887 354.013C101.566 353.371 101.406 352.583 101.406 351.647C101.406 349.802 102.088 348.345 103.451 347.275C104.815 346.179 106.673 345.631 109.026 345.631C109.614 345.631 110.202 345.671 110.791 345.751C111.379 345.805 111.927 345.885 112.435 345.992C112.943 346.072 113.384 346.166 113.758 346.273C114.159 346.38 114.467 346.473 114.681 346.553L113.999 349.762C113.598 349.548 112.97 349.334 112.114 349.12C111.259 348.88 110.229 348.759 109.026 348.759C107.983 348.759 107.074 348.973 106.299 349.401C105.523 349.802 105.136 350.444 105.136 351.326C105.136 351.781 105.216 352.182 105.376 352.529C105.564 352.877 105.831 353.198 106.178 353.492C106.553 353.759 107.007 354.013 107.542 354.254C108.077 354.494 108.718 354.748 109.467 355.016C110.456 355.39 111.339 355.764 112.114 356.139C112.889 356.486 113.545 356.901 114.079 357.382C114.641 357.863 115.069 358.451 115.363 359.147C115.657 359.815 115.804 360.644 115.804 361.633C115.804 363.558 115.082 365.015 113.638 366.005C112.221 366.994 110.189 367.489 107.542 367.489C105.697 367.489 104.253 367.328 103.211 367.007C102.168 366.713 101.459 366.486 101.085 366.326L101.767 363.117C102.195 363.277 102.876 363.518 103.812 363.839C104.748 364.16 105.991 364.32 107.542 364.32ZM124.077 346.152H131.978V349.281H124.077V358.906C124.077 359.949 124.157 360.818 124.318 361.513C124.478 362.181 124.719 362.716 125.04 363.117C125.361 363.491 125.762 363.759 126.243 363.919C126.724 364.08 127.286 364.16 127.927 364.16C129.05 364.16 129.946 364.04 130.614 363.799C131.31 363.532 131.791 363.344 132.058 363.237L132.78 366.326C132.406 366.513 131.751 366.74 130.815 367.007C129.879 367.301 128.81 367.448 127.606 367.448C126.189 367.448 125.013 367.275 124.077 366.927C123.168 366.553 122.433 366.005 121.871 365.283C121.31 364.561 120.909 363.679 120.668 362.636C120.454 361.566 120.347 360.336 120.347 358.946V340.337L124.077 339.695V346.152ZM135.17 356.62C135.17 354.775 135.437 353.171 135.972 351.807C136.506 350.417 137.215 349.267 138.097 348.358C138.98 347.449 139.996 346.767 141.145 346.313C142.295 345.858 143.471 345.631 144.675 345.631C147.482 345.631 149.634 346.513 151.132 348.278C152.629 350.016 153.377 352.676 153.377 356.259C153.377 356.419 153.377 356.633 153.377 356.901C153.377 357.141 153.364 357.369 153.337 357.582H139.06C139.22 359.748 139.849 361.393 140.945 362.515C142.041 363.638 143.752 364.2 146.078 364.2C147.388 364.2 148.485 364.093 149.367 363.879C150.276 363.638 150.958 363.411 151.412 363.197L151.934 366.326C151.479 366.566 150.677 366.82 149.527 367.088C148.404 367.355 147.121 367.489 145.677 367.489C143.859 367.489 142.282 367.221 140.945 366.686C139.635 366.125 138.552 365.363 137.696 364.4C136.841 363.438 136.199 362.302 135.771 360.991C135.37 359.655 135.17 358.197 135.17 356.62ZM149.487 354.575C149.514 352.89 149.086 351.513 148.204 350.444C147.348 349.347 146.158 348.799 144.634 348.799C143.779 348.799 143.017 348.973 142.348 349.321C141.707 349.642 141.159 350.069 140.704 350.604C140.25 351.139 139.889 351.754 139.621 352.449C139.381 353.144 139.22 353.853 139.14 354.575H149.487ZM158.735 346.754C159.591 346.54 160.714 346.313 162.104 346.072C163.521 345.832 165.152 345.711 166.997 345.711C168.334 345.711 169.457 345.898 170.366 346.273C171.275 346.62 172.037 347.142 172.652 347.837C172.839 347.703 173.133 347.516 173.534 347.275C173.935 347.035 174.43 346.807 175.018 346.594C175.606 346.353 176.262 346.152 176.983 345.992C177.705 345.805 178.481 345.711 179.31 345.711C180.914 345.711 182.224 345.952 183.24 346.433C184.256 346.888 185.045 347.543 185.606 348.398C186.194 349.254 186.582 350.27 186.769 351.446C186.983 352.623 187.09 353.906 187.09 355.296V367.007H183.36V356.099C183.36 354.869 183.293 353.813 183.16 352.93C183.053 352.048 182.825 351.313 182.478 350.724C182.157 350.136 181.703 349.708 181.114 349.441C180.553 349.147 179.818 349 178.908 349C177.652 349 176.609 349.174 175.78 349.521C174.978 349.842 174.43 350.136 174.136 350.404C174.35 351.099 174.51 351.861 174.617 352.69C174.724 353.518 174.778 354.387 174.778 355.296V367.007H171.048V356.099C171.048 354.869 170.981 353.813 170.847 352.93C170.714 352.048 170.473 351.313 170.125 350.724C169.805 350.136 169.35 349.708 168.762 349.441C168.2 349.147 167.478 349 166.596 349C166.222 349 165.821 349.013 165.393 349.04C164.965 349.067 164.551 349.107 164.15 349.16C163.775 349.187 163.428 349.227 163.107 349.281C162.786 349.334 162.572 349.374 162.465 349.401V367.007H158.735V346.754ZM200.338 364.32C201.22 364.32 201.996 364.307 202.664 364.28C203.359 364.227 203.934 364.146 204.389 364.04V357.823C204.121 357.689 203.68 357.582 203.065 357.502C202.477 357.395 201.755 357.342 200.9 357.342C200.338 357.342 199.736 357.382 199.095 357.462C198.48 357.542 197.905 357.716 197.37 357.984C196.862 358.224 196.434 358.572 196.087 359.026C195.739 359.454 195.565 360.029 195.565 360.751C195.565 362.088 195.993 363.023 196.849 363.558C197.704 364.066 198.868 364.32 200.338 364.32ZM200.017 345.631C201.514 345.631 202.771 345.832 203.787 346.233C204.83 346.607 205.659 347.155 206.274 347.877C206.915 348.572 207.37 349.414 207.637 350.404C207.905 351.366 208.038 352.436 208.038 353.612V366.646C207.718 366.7 207.263 366.78 206.675 366.887C206.113 366.967 205.472 367.047 204.75 367.128C204.028 367.208 203.239 367.275 202.383 367.328C201.555 367.408 200.726 367.448 199.897 367.448C198.72 367.448 197.638 367.328 196.648 367.088C195.659 366.847 194.803 366.473 194.082 365.965C193.36 365.43 192.798 364.735 192.397 363.879C191.996 363.023 191.796 361.994 191.796 360.791C191.796 359.641 192.023 358.652 192.477 357.823C192.959 356.994 193.6 356.326 194.402 355.818C195.205 355.31 196.14 354.936 197.21 354.695C198.279 354.454 199.402 354.334 200.579 354.334C200.953 354.334 201.341 354.361 201.742 354.414C202.143 354.441 202.517 354.494 202.865 354.575C203.239 354.628 203.56 354.682 203.827 354.735C204.095 354.788 204.282 354.829 204.389 354.855V353.813C204.389 353.198 204.322 352.596 204.188 352.008C204.055 351.393 203.814 350.858 203.466 350.404C203.119 349.922 202.637 349.548 202.022 349.281C201.434 348.987 200.659 348.839 199.696 348.839C198.466 348.839 197.384 348.933 196.448 349.12C195.539 349.281 194.857 349.454 194.402 349.642L193.961 346.553C194.443 346.34 195.245 346.139 196.368 345.952C197.491 345.738 198.707 345.631 200.017 345.631ZM227.245 367.007H223.515V346.152H227.245V367.007ZM225.36 342.382C224.692 342.382 224.117 342.169 223.636 341.741C223.181 341.286 222.954 340.685 222.954 339.936C222.954 339.187 223.181 338.599 223.636 338.171C224.117 337.717 224.692 337.49 225.36 337.49C226.029 337.49 226.59 337.717 227.045 338.171C227.526 338.599 227.767 339.187 227.767 339.936C227.767 340.685 227.526 341.286 227.045 341.741C226.59 342.169 226.029 342.382 225.36 342.382ZM233.659 346.754C234.515 346.54 235.651 346.313 237.068 346.072C238.485 345.832 240.116 345.711 241.961 345.711C243.619 345.711 244.996 345.952 246.092 346.433C247.188 346.888 248.057 347.543 248.699 348.398C249.367 349.227 249.835 350.23 250.103 351.406C250.37 352.583 250.504 353.879 250.504 355.296V367.007H246.774V356.099C246.774 354.815 246.68 353.719 246.493 352.81C246.333 351.901 246.052 351.166 245.651 350.604C245.25 350.043 244.715 349.642 244.047 349.401C243.378 349.134 242.549 349 241.56 349C241.159 349 240.745 349.013 240.317 349.04C239.889 349.067 239.475 349.107 239.074 349.16C238.699 349.187 238.352 349.227 238.031 349.281C237.737 349.334 237.523 349.374 237.389 349.401V367.007H233.659V346.754ZM260.178 346.152H268.079V349.281H260.178V358.906C260.178 359.949 260.258 360.818 260.419 361.513C260.579 362.181 260.82 362.716 261.14 363.117C261.461 363.491 261.862 363.759 262.344 363.919C262.825 364.08 263.386 364.16 264.028 364.16C265.151 364.16 266.047 364.04 266.715 363.799C267.41 363.532 267.892 363.344 268.159 363.237L268.881 366.326C268.507 366.513 267.851 366.74 266.916 367.007C265.98 367.301 264.91 367.448 263.707 367.448C262.29 367.448 261.114 367.275 260.178 366.927C259.269 366.553 258.534 366.005 257.972 365.283C257.411 364.561 257.01 363.679 256.769 362.636C256.555 361.566 256.448 360.336 256.448 358.946V340.337L260.178 339.695V346.152ZM271.27 356.62C271.27 354.775 271.538 353.171 272.072 351.807C272.607 350.417 273.316 349.267 274.198 348.358C275.08 347.449 276.096 346.767 277.246 346.313C278.396 345.858 279.572 345.631 280.775 345.631C283.583 345.631 285.735 346.513 287.232 348.278C288.73 350.016 289.478 352.676 289.478 356.259C289.478 356.419 289.478 356.633 289.478 356.901C289.478 357.141 289.465 357.369 289.438 357.582H275.16C275.321 359.748 275.949 361.393 277.045 362.515C278.142 363.638 279.853 364.2 282.179 364.2C283.489 364.2 284.585 364.093 285.468 363.879C286.377 363.638 287.059 363.411 287.513 363.197L288.034 366.326C287.58 366.566 286.778 366.82 285.628 367.088C284.505 367.355 283.222 367.489 281.778 367.489C279.96 367.489 278.382 367.221 277.045 366.686C275.735 366.125 274.652 365.363 273.797 364.4C272.941 363.438 272.3 362.302 271.872 360.991C271.471 359.655 271.27 358.197 271.27 356.62ZM285.588 354.575C285.615 352.89 285.187 351.513 284.305 350.444C283.449 349.347 282.259 348.799 280.735 348.799C279.88 348.799 279.118 348.973 278.449 349.321C277.807 349.642 277.259 350.069 276.805 350.604C276.35 351.139 275.989 351.754 275.722 352.449C275.481 353.144 275.321 353.853 275.241 354.575H285.588ZM301.093 367.408C298.793 367.355 297.162 366.86 296.2 365.924C295.237 364.989 294.756 363.532 294.756 361.553V336.527L298.486 335.885V360.951C298.486 361.566 298.539 362.074 298.646 362.475C298.753 362.876 298.927 363.197 299.167 363.438C299.408 363.679 299.729 363.866 300.13 363.999C300.531 364.106 301.026 364.2 301.614 364.28L301.093 367.408ZM309.532 367.007H305.802V346.152H309.532V367.007ZM307.647 342.382C306.979 342.382 306.404 342.169 305.923 341.741C305.468 341.286 305.241 340.685 305.241 339.936C305.241 339.187 305.468 338.599 305.923 338.171C306.404 337.717 306.979 337.49 307.647 337.49C308.316 337.49 308.877 337.717 309.332 338.171C309.813 338.599 310.054 339.187 310.054 339.936C310.054 340.685 309.813 341.286 309.332 341.741C308.877 342.169 308.316 342.382 307.647 342.382ZM329.021 364.922C328.7 365.136 328.072 365.416 327.136 365.764C326.227 366.085 325.157 366.245 323.927 366.245C322.671 366.245 321.481 366.045 320.358 365.644C319.262 365.243 318.299 364.628 317.47 363.799C316.642 362.943 315.986 361.887 315.505 360.631C315.024 359.374 314.783 357.877 314.783 356.139C314.783 354.615 315.011 353.224 315.465 351.968C315.92 350.684 316.575 349.588 317.43 348.679C318.313 347.743 319.382 347.021 320.639 346.513C321.895 345.979 323.312 345.711 324.89 345.711C326.628 345.711 328.138 345.845 329.422 346.112C330.732 346.353 331.828 346.58 332.711 346.794V365.403C332.711 368.612 331.882 370.938 330.224 372.381C328.566 373.825 326.053 374.547 322.684 374.547C321.374 374.547 320.131 374.44 318.954 374.226C317.805 374.012 316.802 373.758 315.946 373.464L316.628 370.216C317.377 370.51 318.286 370.764 319.355 370.978C320.452 371.218 321.588 371.339 322.764 371.339C324.984 371.339 326.574 370.898 327.537 370.015C328.526 369.133 329.021 367.729 329.021 365.804V364.922ZM328.981 349.441C328.606 349.334 328.098 349.241 327.457 349.16C326.842 349.053 326 349 324.93 349C322.925 349 321.374 349.655 320.278 350.965C319.208 352.275 318.674 354.013 318.674 356.179C318.674 357.382 318.821 358.411 319.115 359.267C319.436 360.123 319.85 360.831 320.358 361.393C320.893 361.954 321.494 362.368 322.163 362.636C322.858 362.903 323.566 363.037 324.288 363.037C325.278 363.037 326.187 362.903 327.016 362.636C327.844 362.342 328.499 362.007 328.981 361.633V349.441ZM337.969 356.62C337.969 354.775 338.237 353.171 338.772 351.807C339.306 350.417 340.015 349.267 340.897 348.358C341.779 347.449 342.795 346.767 343.945 346.313C345.095 345.858 346.271 345.631 347.474 345.631C350.282 345.631 352.434 346.513 353.931 348.278C355.429 350.016 356.177 352.676 356.177 356.259C356.177 356.419 356.177 356.633 356.177 356.901C356.177 357.141 356.164 357.369 356.137 357.582H341.86C342.02 359.748 342.648 361.393 343.745 362.515C344.841 363.638 346.552 364.2 348.878 364.2C350.188 364.2 351.284 364.093 352.167 363.879C353.076 363.638 353.758 363.411 354.212 363.197L354.734 366.326C354.279 366.566 353.477 366.82 352.327 367.088C351.204 367.355 349.921 367.489 348.477 367.489C346.659 367.489 345.081 367.221 343.745 366.686C342.434 366.125 341.352 365.363 340.496 364.4C339.64 363.438 338.999 362.302 338.571 360.991C338.17 359.655 337.969 358.197 337.969 356.62ZM352.287 354.575C352.314 352.89 351.886 351.513 351.004 350.444C350.148 349.347 348.958 348.799 347.434 348.799C346.579 348.799 345.817 348.973 345.148 349.321C344.507 349.642 343.959 350.069 343.504 350.604C343.049 351.139 342.688 351.754 342.421 352.449C342.18 353.144 342.02 353.853 341.94 354.575H352.287ZM361.535 346.754C362.391 346.54 363.527 346.313 364.944 346.072C366.361 345.832 367.992 345.711 369.837 345.711C371.495 345.711 372.872 345.952 373.968 346.433C375.064 346.888 375.933 347.543 376.575 348.398C377.243 349.227 377.711 350.23 377.979 351.406C378.246 352.583 378.38 353.879 378.38 355.296V367.007H374.65V356.099C374.65 354.815 374.556 353.719 374.369 352.81C374.209 351.901 373.928 351.166 373.527 350.604C373.126 350.043 372.591 349.642 371.923 349.401C371.254 349.134 370.425 349 369.436 349C369.035 349 368.621 349.013 368.193 349.04C367.765 349.067 367.351 349.107 366.949 349.16C366.575 349.187 366.228 349.227 365.907 349.281C365.613 349.334 365.399 349.374 365.265 349.401V367.007H361.535V346.754ZM388.054 346.152H395.955V349.281H388.054V358.906C388.054 359.949 388.134 360.818 388.294 361.513C388.455 362.181 388.696 362.716 389.016 363.117C389.337 363.491 389.738 363.759 390.22 363.919C390.701 364.08 391.262 364.16 391.904 364.16C393.027 364.16 393.923 364.04 394.591 363.799C395.286 363.532 395.767 363.344 396.035 363.237L396.757 366.326C396.382 366.513 395.727 366.74 394.792 367.007C393.856 367.301 392.786 367.448 391.583 367.448C390.166 367.448 388.99 367.275 388.054 366.927C387.145 366.553 386.409 366.005 385.848 365.283C385.287 364.561 384.885 363.679 384.645 362.636C384.431 361.566 384.324 360.336 384.324 358.946V340.337L388.054 339.695V346.152ZM399.146 356.62C399.146 354.775 399.414 353.171 399.948 351.807C400.483 350.417 401.192 349.267 402.074 348.358C402.956 347.449 403.972 346.767 405.122 346.313C406.272 345.858 407.448 345.631 408.651 345.631C411.459 345.631 413.611 346.513 415.108 348.278C416.605 350.016 417.354 352.676 417.354 356.259C417.354 356.419 417.354 356.633 417.354 356.901C417.354 357.141 417.341 357.369 417.314 357.582H403.036C403.197 359.748 403.825 361.393 404.921 362.515C406.018 363.638 407.729 364.2 410.055 364.2C411.365 364.2 412.461 364.093 413.344 363.879C414.253 363.638 414.934 363.411 415.389 363.197L415.91 366.326C415.456 366.566 414.654 366.82 413.504 367.088C412.381 367.355 411.098 367.489 409.654 367.489C407.836 367.489 406.258 367.221 404.921 366.686C403.611 366.125 402.528 365.363 401.673 364.4C400.817 363.438 400.176 362.302 399.748 360.991C399.347 359.655 399.146 358.197 399.146 356.62ZM413.464 354.575C413.491 352.89 413.063 351.513 412.18 350.444C411.325 349.347 410.135 348.799 408.611 348.799C407.756 348.799 406.993 348.973 406.325 349.321C405.683 349.642 405.135 350.069 404.681 350.604C404.226 351.139 403.865 351.754 403.598 352.449C403.357 353.144 403.197 353.853 403.117 354.575H413.464ZM446.472 356.62C446.472 354.187 445.871 352.315 444.668 351.005C443.464 349.695 441.86 349.04 439.855 349.04C438.732 349.04 437.85 349.08 437.208 349.16C436.593 349.241 436.098 349.334 435.724 349.441V362.596C436.179 362.97 436.834 363.331 437.689 363.679C438.545 364.026 439.481 364.2 440.497 364.2C441.566 364.2 442.475 364.013 443.224 363.638C443.999 363.237 444.628 362.703 445.109 362.034C445.59 361.339 445.938 360.537 446.152 359.628C446.365 358.692 446.472 357.689 446.472 356.62ZM450.363 356.62C450.363 358.197 450.149 359.655 449.721 360.991C449.32 362.328 448.718 363.478 447.916 364.441C447.114 365.403 446.125 366.152 444.948 366.686C443.799 367.221 442.475 367.489 440.978 367.489C439.775 367.489 438.705 367.328 437.769 367.007C436.86 366.686 436.179 366.379 435.724 366.085V374.427H431.994V346.794C432.877 346.58 433.973 346.353 435.283 346.112C436.62 345.845 438.157 345.711 439.895 345.711C441.499 345.711 442.943 345.965 444.227 346.473C445.51 346.981 446.606 347.703 447.515 348.639C448.424 349.575 449.119 350.724 449.601 352.088C450.109 353.425 450.363 354.936 450.363 356.62ZM462.67 364.32C463.552 364.32 464.327 364.307 464.996 364.28C465.691 364.227 466.266 364.146 466.72 364.04V357.823C466.453 357.689 466.012 357.582 465.397 357.502C464.809 357.395 464.087 357.342 463.231 357.342C462.67 357.342 462.068 357.382 461.426 357.462C460.812 357.542 460.237 357.716 459.702 357.984C459.194 358.224 458.766 358.572 458.419 359.026C458.071 359.454 457.897 360.029 457.897 360.751C457.897 362.088 458.325 363.023 459.181 363.558C460.036 364.066 461.199 364.32 462.67 364.32ZM462.349 345.631C463.846 345.631 465.103 345.832 466.119 346.233C467.162 346.607 467.99 347.155 468.605 347.877C469.247 348.572 469.702 349.414 469.969 350.404C470.236 351.366 470.37 352.436 470.37 353.612V366.646C470.049 366.7 469.595 366.78 469.006 366.887C468.445 366.967 467.803 367.047 467.081 367.128C466.359 367.208 465.571 367.275 464.715 367.328C463.886 367.408 463.057 367.448 462.229 367.448C461.052 367.448 459.969 367.328 458.98 367.088C457.991 366.847 457.135 366.473 456.413 365.965C455.691 365.43 455.13 364.735 454.729 363.879C454.328 363.023 454.127 361.994 454.127 360.791C454.127 359.641 454.355 358.652 454.809 357.823C455.29 356.994 455.932 356.326 456.734 355.818C457.536 355.31 458.472 354.936 459.542 354.695C460.611 354.454 461.734 354.334 462.91 354.334C463.285 354.334 463.672 354.361 464.073 354.414C464.475 354.441 464.849 354.494 465.196 354.575C465.571 354.628 465.892 354.682 466.159 354.735C466.426 354.788 466.613 354.829 466.72 354.855V353.813C466.72 353.198 466.654 352.596 466.52 352.008C466.386 351.393 466.146 350.858 465.798 350.404C465.45 349.922 464.969 349.548 464.354 349.281C463.766 348.987 462.991 348.839 462.028 348.839C460.798 348.839 459.715 348.933 458.78 349.12C457.87 349.281 457.189 349.454 456.734 349.642L456.293 346.553C456.774 346.34 457.576 346.139 458.699 345.952C459.822 345.738 461.039 345.631 462.349 345.631ZM484.265 345.711C484.586 345.711 484.947 345.738 485.348 345.791C485.776 345.818 486.19 345.872 486.591 345.952C486.992 346.005 487.353 346.072 487.674 346.152C488.022 346.206 488.276 346.259 488.436 346.313L487.794 349.561C487.5 349.454 487.006 349.334 486.31 349.2C485.642 349.04 484.773 348.96 483.704 348.96C483.008 348.96 482.313 349.04 481.618 349.2C480.95 349.334 480.509 349.428 480.295 349.481V367.007H476.565V347.035C477.447 346.714 478.543 346.42 479.853 346.152C481.164 345.858 482.634 345.711 484.265 345.711ZM499.094 364.32C499.976 364.32 500.752 364.307 501.42 364.28C502.115 364.227 502.69 364.146 503.145 364.04V357.823C502.877 357.689 502.436 357.582 501.821 357.502C501.233 357.395 500.511 357.342 499.655 357.342C499.094 357.342 498.492 357.382 497.851 357.462C497.236 357.542 496.661 357.716 496.126 357.984C495.618 358.224 495.19 358.572 494.843 359.026C494.495 359.454 494.321 360.029 494.321 360.751C494.321 362.088 494.749 363.023 495.605 363.558C496.46 364.066 497.623 364.32 499.094 364.32ZM498.773 345.631C500.27 345.631 501.527 345.832 502.543 346.233C503.586 346.607 504.415 347.155 505.029 347.877C505.671 348.572 506.126 349.414 506.393 350.404C506.66 351.366 506.794 352.436 506.794 353.612V366.646C506.473 366.7 506.019 366.78 505.431 366.887C504.869 366.967 504.227 367.047 503.505 367.128C502.784 367.208 501.995 367.275 501.139 367.328C500.31 367.408 499.482 367.448 498.653 367.448C497.476 367.448 496.393 367.328 495.404 367.088C494.415 366.847 493.559 366.473 492.837 365.965C492.115 365.43 491.554 364.735 491.153 363.879C490.752 363.023 490.551 361.994 490.551 360.791C490.551 359.641 490.779 358.652 491.233 357.823C491.714 356.994 492.356 356.326 493.158 355.818C493.96 355.31 494.896 354.936 495.966 354.695C497.035 354.454 498.158 354.334 499.334 354.334C499.709 354.334 500.096 354.361 500.498 354.414C500.899 354.441 501.273 354.494 501.62 354.575C501.995 354.628 502.316 354.682 502.583 354.735C502.85 354.788 503.038 354.829 503.145 354.855V353.813C503.145 353.198 503.078 352.596 502.944 352.008C502.81 351.393 502.57 350.858 502.222 350.404C501.874 349.922 501.393 349.548 500.778 349.281C500.19 348.987 499.415 348.839 498.452 348.839C497.222 348.839 496.139 348.933 495.204 349.12C494.295 349.281 493.613 349.454 493.158 349.642L492.717 346.553C493.198 346.34 494 346.139 495.123 345.952C496.246 345.738 497.463 345.631 498.773 345.631ZM529.33 364.32C530.212 364.32 530.987 364.307 531.656 364.28C532.351 364.227 532.926 364.146 533.38 364.04V357.823C533.113 357.689 532.672 357.582 532.057 357.502C531.469 357.395 530.747 357.342 529.891 357.342C529.33 357.342 528.728 357.382 528.086 357.462C527.472 357.542 526.897 357.716 526.362 357.984C525.854 358.224 525.426 358.572 525.079 359.026C524.731 359.454 524.557 360.029 524.557 360.751C524.557 362.088 524.985 363.023 525.841 363.558C526.696 364.066 527.859 364.32 529.33 364.32ZM529.009 345.631C530.506 345.631 531.763 345.832 532.779 346.233C533.822 346.607 534.65 347.155 535.265 347.877C535.907 348.572 536.362 349.414 536.629 350.404C536.896 351.366 537.03 352.436 537.03 353.612V366.646C536.709 366.7 536.255 366.78 535.666 366.887C535.105 366.967 534.463 367.047 533.741 367.128C533.019 367.208 532.231 367.275 531.375 367.328C530.546 367.408 529.717 367.448 528.889 367.448C527.712 367.448 526.629 367.328 525.64 367.088C524.651 366.847 523.795 366.473 523.073 365.965C522.351 365.43 521.79 364.735 521.389 363.879C520.988 363.023 520.787 361.994 520.787 360.791C520.787 359.641 521.014 358.652 521.469 357.823C521.95 356.994 522.592 356.326 523.394 355.818C524.196 355.31 525.132 354.936 526.201 354.695C527.271 354.454 528.394 354.334 529.57 354.334C529.945 354.334 530.332 354.361 530.733 354.414C531.134 354.441 531.509 354.494 531.856 354.575C532.231 354.628 532.552 354.682 532.819 354.735C533.086 354.788 533.273 354.829 533.38 354.855V353.813C533.38 353.198 533.314 352.596 533.18 352.008C533.046 351.393 532.806 350.858 532.458 350.404C532.11 349.922 531.629 349.548 531.014 349.281C530.426 348.987 529.651 348.839 528.688 348.839C527.458 348.839 526.375 348.933 525.439 349.12C524.53 349.281 523.849 349.454 523.394 349.642L522.953 346.553C523.434 346.34 524.236 346.139 525.359 345.952C526.482 345.738 527.699 345.631 529.009 345.631ZM8.06124 410.32C9.58525 410.32 10.7082 410.12 11.4301 409.719C12.1788 409.318 12.5531 408.676 12.5531 407.794C12.5531 406.885 12.1921 406.163 11.4702 405.628C10.7483 405.093 9.55851 404.492 7.90081 403.823C7.0987 403.502 6.32332 403.181 5.57469 402.861C4.85278 402.513 4.22446 402.112 3.68972 401.657C3.15498 401.203 2.72718 400.655 2.40634 400.013C2.08549 399.371 1.92507 398.583 1.92507 397.647C1.92507 395.802 2.60687 394.345 3.97046 393.275C5.33405 392.179 7.19228 391.631 9.54515 391.631C10.1334 391.631 10.7216 391.671 11.3098 391.751C11.898 391.805 12.4461 391.885 12.9541 391.992C13.4621 392.072 13.9033 392.166 14.2776 392.273C14.6787 392.38 14.9861 392.473 15.2 392.553L14.5182 395.762C14.1172 395.548 13.4889 395.334 12.6333 395.12C11.7777 394.88 10.7483 394.759 9.54515 394.759C8.5024 394.759 7.59334 394.973 6.81796 395.401C6.04258 395.802 5.6549 396.444 5.6549 397.326C5.6549 397.781 5.73511 398.182 5.89553 398.529C6.08269 398.877 6.35006 399.198 6.69764 399.492C7.07196 399.759 7.52649 400.013 8.06124 400.254C8.59598 400.494 9.23767 400.748 9.98631 401.016C10.9756 401.39 11.8579 401.764 12.6333 402.139C13.4087 402.486 14.0637 402.901 14.5985 403.382C15.1599 403.863 15.5877 404.451 15.8818 405.147C16.1759 405.815 16.323 406.644 16.323 407.633C16.323 409.558 15.6011 411.015 14.1573 412.005C12.7402 412.994 10.7082 413.489 8.06124 413.489C6.21638 413.489 4.77257 413.328 3.72983 413.007C2.68708 412.713 1.97855 412.486 1.60423 412.326L2.28602 409.117C2.71382 409.277 3.39561 409.518 4.33141 409.839C5.26721 410.16 6.51048 410.32 8.06124 410.32ZM19.9441 402.62C19.9441 400.775 20.2115 399.171 20.7462 397.807C21.281 396.417 21.9895 395.267 22.8718 394.358C23.7541 393.449 24.7701 392.767 25.9198 392.313C27.0695 391.858 28.246 391.631 29.4491 391.631C32.2565 391.631 34.4089 392.513 35.9062 394.278C37.4034 396.016 38.1521 398.676 38.1521 402.259C38.1521 402.419 38.1521 402.633 38.1521 402.901C38.1521 403.141 38.1387 403.369 38.112 403.582H23.8344C23.9948 405.748 24.6231 407.393 25.7193 408.515C26.8155 409.638 28.5267 410.2 30.8528 410.2C32.163 410.2 33.2592 410.093 34.1415 409.879C35.0506 409.638 35.7324 409.411 36.1869 409.197L36.7083 412.326C36.2537 412.566 35.4516 412.82 34.3019 413.088C33.179 413.355 31.8956 413.489 30.4518 413.489C28.6337 413.489 27.0562 413.221 25.7193 412.686C24.4092 412.125 23.3263 411.363 22.4708 410.4C21.6152 409.438 20.9735 408.302 20.5457 406.991C20.1446 405.655 19.9441 404.197 19.9441 402.62ZM34.2618 400.575C34.2886 398.89 33.8608 397.513 32.9784 396.444C32.1229 395.347 30.9331 394.799 29.409 394.799C28.5534 394.799 27.7914 394.973 27.123 395.321C26.4813 395.642 25.9332 396.069 25.4787 396.604C25.0242 397.139 24.6632 397.754 24.3958 398.449C24.1552 399.144 23.9948 399.853 23.9146 400.575H34.2618ZM56.5844 410.922C56.2635 411.136 55.6352 411.416 54.6994 411.764C53.7904 412.085 52.7209 412.245 51.491 412.245C50.2343 412.245 49.0445 412.045 47.9216 411.644C46.8253 411.243 45.8628 410.628 45.034 409.799C44.2051 408.943 43.55 407.887 43.0688 406.631C42.5875 405.374 42.3469 403.877 42.3469 402.139C42.3469 400.615 42.5741 399.224 43.0287 397.968C43.4832 396.684 44.1383 395.588 44.9938 394.679C45.8762 393.743 46.9457 393.021 48.2023 392.513C49.4589 391.979 50.876 391.711 52.4535 391.711C54.1914 391.711 55.7021 391.845 56.9854 392.112C58.2956 392.353 59.3918 392.58 60.2741 392.794V411.403C60.2741 414.612 59.4452 416.938 57.7875 418.381C56.1298 419.825 53.6166 420.547 50.2477 420.547C48.9376 420.547 47.6943 420.44 46.5179 420.226C45.3682 420.012 44.3655 419.758 43.5099 419.464L44.1917 416.216C44.9404 416.51 45.8494 416.764 46.9189 416.978C48.0151 417.218 49.1515 417.339 50.3279 417.339C52.5471 417.339 54.1379 416.898 55.1005 416.015C56.0897 415.133 56.5844 413.729 56.5844 411.804V410.922ZM56.5443 395.441C56.17 395.334 55.6619 395.241 55.0203 395.16C54.4053 395.053 53.5631 395 52.4936 395C50.4883 395 48.9376 395.655 47.8413 396.965C46.7719 398.275 46.2371 400.013 46.2371 402.179C46.2371 403.382 46.3842 404.411 46.6783 405.267C46.9991 406.123 47.4136 406.831 47.9216 407.393C48.4563 407.954 49.0579 408.368 49.7263 408.636C50.4215 408.903 51.13 409.037 51.8519 409.037C52.8412 409.037 53.7502 408.903 54.5791 408.636C55.4079 408.342 56.063 408.007 56.5443 407.633V395.441ZM83.2998 412.406C82.4442 412.62 81.3078 412.847 79.8908 413.088C78.5004 413.328 76.8829 413.448 75.038 413.448C73.4338 413.448 72.0835 413.221 70.9873 412.767C69.8911 412.285 69.0088 411.617 68.3403 410.761C67.6719 409.906 67.1907 408.903 66.8965 407.753C66.6024 406.577 66.4554 405.28 66.4554 403.863V392.152H70.1852V403.061C70.1852 405.601 70.5863 407.419 71.3884 408.515C72.1905 409.612 73.5407 410.16 75.439 410.16C75.8401 410.16 76.2545 410.146 76.6823 410.12C77.1101 410.093 77.5112 410.066 77.8855 410.04C78.2598 409.986 78.594 409.946 78.8881 409.919C79.209 409.866 79.4362 409.812 79.5699 409.759V392.152H83.2998V412.406ZM97.4257 391.711C97.7466 391.711 98.1075 391.738 98.5086 391.791C98.9364 391.818 99.3508 391.872 99.7518 391.952C100.153 392.005 100.514 392.072 100.835 392.152C101.182 392.206 101.436 392.259 101.597 392.313L100.955 395.561C100.661 395.454 100.166 395.334 99.4711 395.2C98.8027 395.04 97.9337 394.96 96.8642 394.96C96.1691 394.96 95.4739 395.04 94.7787 395.2C94.1103 395.334 93.6692 395.428 93.4553 395.481V413.007H89.7254V393.035C90.6078 392.714 91.704 392.42 93.0141 392.152C94.3242 391.858 95.7948 391.711 97.4257 391.711ZM112.254 410.32C113.137 410.32 113.912 410.307 114.581 410.28C115.276 410.227 115.851 410.146 116.305 410.04V403.823C116.038 403.689 115.597 403.582 114.982 403.502C114.393 403.395 113.672 403.342 112.816 403.342C112.254 403.342 111.653 403.382 111.011 403.462C110.396 403.542 109.821 403.716 109.287 403.984C108.779 404.224 108.351 404.572 108.003 405.026C107.656 405.454 107.482 406.029 107.482 406.751C107.482 408.088 107.91 409.023 108.765 409.558C109.621 410.066 110.784 410.32 112.254 410.32ZM111.934 391.631C113.431 391.631 114.688 391.832 115.704 392.233C116.746 392.607 117.575 393.155 118.19 393.877C118.832 394.572 119.286 395.414 119.554 396.404C119.821 397.366 119.955 398.436 119.955 399.612V412.646C119.634 412.7 119.179 412.78 118.591 412.887C118.03 412.967 117.388 413.047 116.666 413.128C115.944 413.208 115.155 413.275 114.3 413.328C113.471 413.408 112.642 413.448 111.813 413.448C110.637 413.448 109.554 413.328 108.565 413.088C107.575 412.847 106.72 412.473 105.998 411.965C105.276 411.43 104.715 410.735 104.314 409.879C103.912 409.023 103.712 407.994 103.712 406.791C103.712 405.641 103.939 404.652 104.394 403.823C104.875 402.994 105.517 402.326 106.319 401.818C107.121 401.31 108.057 400.936 109.126 400.695C110.196 400.454 111.319 400.334 112.495 400.334C112.869 400.334 113.257 400.361 113.658 400.414C114.059 400.441 114.434 400.494 114.781 400.575C115.155 400.628 115.476 400.682 115.744 400.735C116.011 400.788 116.198 400.829 116.305 400.855V399.813C116.305 399.198 116.238 398.596 116.105 398.008C115.971 397.393 115.73 396.858 115.383 396.404C115.035 395.922 114.554 395.548 113.939 395.281C113.351 394.987 112.575 394.839 111.613 394.839C110.383 394.839 109.3 394.933 108.364 395.12C107.455 395.281 106.773 395.454 106.319 395.642L105.878 392.553C106.359 392.34 107.161 392.139 108.284 391.952C109.407 391.738 110.624 391.631 111.934 391.631ZM126.15 392.754C127.005 392.54 128.141 392.313 129.558 392.072C130.976 391.832 132.607 391.711 134.451 391.711C136.109 391.711 137.486 391.952 138.582 392.433C139.678 392.888 140.547 393.543 141.189 394.398C141.858 395.227 142.325 396.23 142.593 397.406C142.86 398.583 142.994 399.879 142.994 401.296V413.007H139.264V402.099C139.264 400.815 139.17 399.719 138.983 398.81C138.823 397.901 138.542 397.166 138.141 396.604C137.74 396.043 137.205 395.642 136.537 395.401C135.868 395.134 135.04 395 134.05 395C133.649 395 133.235 395.013 132.807 395.04C132.379 395.067 131.965 395.107 131.564 395.16C131.189 395.187 130.842 395.227 130.521 395.281C130.227 395.334 130.013 395.374 129.879 395.401V413.007H126.15V392.754ZM158.724 413.489L158.283 414.491C159.058 414.866 159.62 415.267 159.967 415.694C160.315 416.149 160.489 416.804 160.489 417.66C160.489 417.954 160.422 418.275 160.288 418.622C160.155 418.97 159.927 419.291 159.606 419.585C159.286 419.879 158.858 420.119 158.323 420.307C157.788 420.494 157.133 420.587 156.358 420.587C155.663 420.587 155.021 420.534 154.433 420.427C153.871 420.32 153.417 420.2 153.069 420.066L153.51 417.78C153.831 417.887 154.165 417.98 154.513 418.061C154.887 418.141 155.302 418.181 155.756 418.181C156.719 418.181 157.2 417.873 157.2 417.259C157.2 416.964 157.053 416.71 156.759 416.497C156.465 416.309 156.05 416.109 155.516 415.895L155.235 415.775C155.342 415.454 155.489 415.066 155.676 414.612C155.863 414.157 156.064 413.729 156.278 413.328C154.914 413.141 153.711 412.753 152.668 412.165C151.652 411.55 150.797 410.775 150.101 409.839C149.406 408.903 148.885 407.834 148.537 406.631C148.19 405.401 148.016 404.064 148.016 402.62C148.016 401.016 148.243 399.545 148.698 398.208C149.179 396.871 149.847 395.722 150.703 394.759C151.559 393.77 152.601 393.008 153.831 392.473C155.088 391.912 156.478 391.631 158.002 391.631C158.938 391.631 159.874 391.711 160.81 391.872C161.745 392.032 162.641 392.286 163.497 392.634L162.654 395.802C162.093 395.535 161.438 395.321 160.689 395.16C159.967 395 159.192 394.92 158.363 394.92C156.278 394.92 154.673 395.575 153.55 396.885C152.454 398.195 151.906 400.107 151.906 402.62C151.906 403.743 152.026 404.772 152.267 405.708C152.534 406.644 152.935 407.446 153.47 408.114C154.032 408.783 154.74 409.304 155.596 409.679C156.451 410.026 157.494 410.2 158.724 410.2C159.713 410.2 160.609 410.106 161.411 409.919C162.213 409.732 162.842 409.532 163.296 409.318L163.817 412.446C163.604 412.553 163.309 412.673 162.935 412.807C162.588 412.914 162.187 413.007 161.732 413.088C161.277 413.194 160.783 413.275 160.248 413.328C159.74 413.408 159.232 413.462 158.724 413.489ZM174.88 410.32C175.763 410.32 176.538 410.307 177.207 410.28C177.902 410.227 178.477 410.146 178.931 410.04V403.823C178.664 403.689 178.223 403.582 177.608 403.502C177.019 403.395 176.297 403.342 175.442 403.342C174.88 403.342 174.279 403.382 173.637 403.462C173.022 403.542 172.447 403.716 171.913 403.984C171.405 404.224 170.977 404.572 170.629 405.026C170.282 405.454 170.108 406.029 170.108 406.751C170.108 408.088 170.536 409.023 171.391 409.558C172.247 410.066 173.41 410.32 174.88 410.32ZM174.56 391.631C176.057 391.631 177.313 391.832 178.329 392.233C179.372 392.607 180.201 393.155 180.816 393.877C181.458 394.572 181.912 395.414 182.18 396.404C182.447 397.366 182.581 398.436 182.581 399.612V412.646C182.26 412.7 181.805 412.78 181.217 412.887C180.656 412.967 180.014 413.047 179.292 413.128C178.57 413.208 177.781 413.275 176.926 413.328C176.097 413.408 175.268 413.448 174.439 413.448C173.263 413.448 172.18 413.328 171.191 413.088C170.201 412.847 169.346 412.473 168.624 411.965C167.902 411.43 167.341 410.735 166.939 409.879C166.538 409.023 166.338 407.994 166.338 406.791C166.338 405.641 166.565 404.652 167.02 403.823C167.501 402.994 168.143 402.326 168.945 401.818C169.747 401.31 170.683 400.936 171.752 400.695C172.822 400.454 173.945 400.334 175.121 400.334C175.495 400.334 175.883 400.361 176.284 400.414C176.685 400.441 177.059 400.494 177.407 400.575C177.781 400.628 178.102 400.682 178.37 400.735C178.637 400.788 178.824 400.829 178.931 400.855V399.813C178.931 399.198 178.864 398.596 178.731 398.008C178.597 397.393 178.356 396.858 178.009 396.404C177.661 395.922 177.18 395.548 176.565 395.281C175.977 394.987 175.201 394.839 174.239 394.839C173.009 394.839 171.926 394.933 170.99 395.12C170.081 395.281 169.399 395.454 168.945 395.642L168.504 392.553C168.985 392.34 169.787 392.139 170.91 391.952C172.033 391.738 173.249 391.631 174.56 391.631ZM212.536 402.62C212.536 400.187 211.934 398.315 210.731 397.005C209.528 395.695 207.924 395.04 205.918 395.04C204.795 395.04 203.913 395.08 203.271 395.16C202.656 395.241 202.162 395.334 201.788 395.441V408.596C202.242 408.97 202.897 409.331 203.753 409.679C204.608 410.026 205.544 410.2 206.56 410.2C207.63 410.2 208.539 410.013 209.287 409.638C210.063 409.237 210.691 408.703 211.172 408.034C211.654 407.339 212.001 406.537 212.215 405.628C212.429 404.692 212.536 403.689 212.536 402.62ZM216.426 402.62C216.426 404.197 216.212 405.655 215.784 406.991C215.383 408.328 214.782 409.478 213.98 410.441C213.178 411.403 212.188 412.152 211.012 412.686C209.862 413.221 208.539 413.489 207.041 413.489C205.838 413.489 204.769 413.328 203.833 413.007C202.924 412.686 202.242 412.379 201.788 412.085V420.427H198.058V392.794C198.94 392.58 200.036 392.353 201.346 392.112C202.683 391.845 204.221 391.711 205.959 391.711C207.563 391.711 209.007 391.965 210.29 392.473C211.573 392.981 212.67 393.703 213.579 394.639C214.488 395.575 215.183 396.724 215.664 398.088C216.172 399.425 216.426 400.936 216.426 402.62ZM238.278 412.406C237.423 412.62 236.286 412.847 234.869 413.088C233.479 413.328 231.861 413.448 230.017 413.448C228.412 413.448 227.062 413.221 225.966 412.767C224.87 412.285 223.987 411.617 223.319 410.761C222.65 409.906 222.169 408.903 221.875 407.753C221.581 406.577 221.434 405.28 221.434 403.863V392.152H225.164V403.061C225.164 405.601 225.565 407.419 226.367 408.515C227.169 409.612 228.519 410.16 230.418 410.16C230.819 410.16 231.233 410.146 231.661 410.12C232.089 410.093 232.49 410.066 232.864 410.04C233.238 409.986 233.573 409.946 233.867 409.919C234.188 409.866 234.415 409.812 234.549 409.759V392.152H238.278V412.406ZM234.709 384.252L229.054 389.746L227.169 388.062L232.303 381.885L234.709 384.252ZM248.434 393.075C248.888 392.781 249.57 392.473 250.479 392.152C251.415 391.832 252.485 391.671 253.688 391.671C255.185 391.671 256.508 391.938 257.658 392.473C258.835 393.008 259.824 393.757 260.626 394.719C261.428 395.682 262.03 396.831 262.431 398.168C262.859 399.505 263.072 400.976 263.072 402.58C263.072 404.264 262.818 405.788 262.31 407.152C261.829 408.489 261.134 409.625 260.225 410.561C259.316 411.497 258.22 412.219 256.936 412.727C255.653 413.235 254.209 413.489 252.605 413.489C250.867 413.489 249.33 413.368 247.993 413.128C246.656 412.887 245.56 412.646 244.704 412.406V382.527L248.434 381.885V393.075ZM248.434 409.759C248.808 409.866 249.33 409.973 249.998 410.08C250.693 410.16 251.549 410.2 252.565 410.2C254.57 410.2 256.174 409.545 257.377 408.235C258.581 406.898 259.182 405.013 259.182 402.58C259.182 401.51 259.075 400.508 258.861 399.572C258.647 398.636 258.3 397.834 257.819 397.166C257.337 396.47 256.709 395.936 255.934 395.561C255.185 395.16 254.276 394.96 253.206 394.96C252.19 394.96 251.255 395.134 250.399 395.481C249.543 395.829 248.888 396.19 248.434 396.564V409.759ZM274.577 413.408C272.278 413.355 270.647 412.86 269.685 411.924C268.722 410.989 268.241 409.532 268.241 407.553V382.527L271.971 381.885V406.951C271.971 407.566 272.024 408.074 272.131 408.475C272.238 408.876 272.412 409.197 272.652 409.438C272.893 409.679 273.214 409.866 273.615 409.999C274.016 410.106 274.511 410.2 275.099 410.28L274.577 413.408ZM283.017 413.007H279.287V392.152H283.017V413.007ZM281.132 388.382C280.464 388.382 279.889 388.169 279.408 387.741C278.953 387.286 278.726 386.685 278.726 385.936C278.726 385.187 278.953 384.599 279.408 384.171C279.889 383.717 280.464 383.49 281.132 383.49C281.801 383.49 282.362 383.717 282.817 384.171C283.298 384.599 283.539 385.187 283.539 385.936C283.539 386.685 283.298 387.286 282.817 387.741C282.362 388.169 281.801 388.382 281.132 388.382ZM298.495 413.489C296.811 413.489 295.327 413.221 294.043 412.686C292.787 412.152 291.717 411.403 290.835 410.441C289.979 409.478 289.338 408.342 288.91 407.032C288.482 405.695 288.268 404.224 288.268 402.62C288.268 401.016 288.495 399.545 288.95 398.208C289.431 396.871 290.1 395.722 290.955 394.759C291.811 393.77 292.854 393.008 294.083 392.473C295.34 391.912 296.73 391.631 298.254 391.631C299.19 391.631 300.126 391.711 301.062 391.872C301.998 392.032 302.893 392.286 303.749 392.634L302.907 395.802C302.345 395.535 301.69 395.321 300.942 395.16C300.22 395 299.444 394.92 298.615 394.92C296.53 394.92 294.926 395.575 293.803 396.885C292.706 398.195 292.158 400.107 292.158 402.62C292.158 403.743 292.279 404.772 292.519 405.708C292.787 406.644 293.188 407.446 293.723 408.114C294.284 408.783 294.993 409.304 295.848 409.679C296.704 410.026 297.746 410.2 298.976 410.2C299.966 410.2 300.861 410.106 301.663 409.919C302.466 409.732 303.094 409.532 303.548 409.318L304.07 412.446C303.856 412.58 303.548 412.713 303.147 412.847C302.746 412.954 302.292 413.047 301.784 413.128C301.276 413.235 300.728 413.315 300.139 413.368C299.578 413.448 299.03 413.489 298.495 413.489ZM315.133 410.32C316.015 410.32 316.79 410.307 317.459 410.28C318.154 410.227 318.729 410.146 319.183 410.04V403.823C318.916 403.689 318.475 403.582 317.86 403.502C317.272 403.395 316.55 403.342 315.694 403.342C315.133 403.342 314.531 403.382 313.889 403.462C313.274 403.542 312.7 403.716 312.165 403.984C311.657 404.224 311.229 404.572 310.881 405.026C310.534 405.454 310.36 406.029 310.36 406.751C310.36 408.088 310.788 409.023 311.643 409.558C312.499 410.066 313.662 410.32 315.133 410.32ZM314.812 391.631C316.309 391.631 317.566 391.832 318.582 392.233C319.625 392.607 320.453 393.155 321.068 393.877C321.71 394.572 322.165 395.414 322.432 396.404C322.699 397.366 322.833 398.436 322.833 399.612V412.646C322.512 412.7 322.058 412.78 321.469 412.887C320.908 412.967 320.266 413.047 319.544 413.128C318.822 413.208 318.034 413.275 317.178 413.328C316.349 413.408 315.52 413.448 314.692 413.448C313.515 413.448 312.432 413.328 311.443 413.088C310.454 412.847 309.598 412.473 308.876 411.965C308.154 411.43 307.593 410.735 307.192 409.879C306.791 409.023 306.59 407.994 306.59 406.791C306.59 405.641 306.817 404.652 307.272 403.823C307.753 402.994 308.395 402.326 309.197 401.818C309.999 401.31 310.935 400.936 312.004 400.695C313.074 400.454 314.197 400.334 315.373 400.334C315.748 400.334 316.135 400.361 316.536 400.414C316.937 400.441 317.312 400.494 317.659 400.575C318.034 400.628 318.354 400.682 318.622 400.735C318.889 400.788 319.076 400.829 319.183 400.855V399.813C319.183 399.198 319.117 398.596 318.983 398.008C318.849 397.393 318.609 396.858 318.261 396.404C317.913 395.922 317.432 395.548 316.817 395.281C316.229 394.987 315.454 394.839 314.491 394.839C313.261 394.839 312.178 394.933 311.242 395.12C310.333 395.281 309.652 395.454 309.197 395.642L308.756 392.553C309.237 392.34 310.039 392.139 311.162 391.952C312.285 391.738 313.502 391.631 314.812 391.631Z" fill="white"/>
<path d="M331.224 94.3883C348.57 94.3883 361.887 97.4658 371.176 103.621C380.464 109.664 385.108 119.624 385.108 133.5C385.108 147.489 380.408 157.617 371.008 163.884C361.608 170.039 348.179 173.116 330.721 173.116H322.496V212.06H296.309V97.4099C302.016 96.2908 308.059 95.5074 314.438 95.0598C320.817 94.6122 326.412 94.3883 331.224 94.3883ZM332.903 116.714C331.001 116.714 329.098 116.77 327.196 116.882C325.405 116.994 323.838 117.106 322.496 117.218V150.79H330.721C339.785 150.79 346.612 149.559 351.2 147.097C355.788 144.635 358.082 140.047 358.082 133.333C358.082 130.087 357.467 127.401 356.236 125.275C355.117 123.149 353.438 121.47 351.2 120.239C349.074 118.896 346.444 118.001 343.311 117.553C340.177 116.994 336.708 116.714 332.903 116.714ZM435.225 95.7312C437.239 99.4242 439.533 104.012 442.107 109.496C444.793 114.868 447.535 120.743 450.332 127.122C453.242 133.388 456.096 139.823 458.893 146.426C461.691 153.028 464.321 159.239 466.783 165.059C469.245 159.239 471.875 153.028 474.672 146.426C477.47 139.823 480.268 133.388 483.066 127.122C485.975 120.743 488.717 114.868 491.291 109.496C493.977 104.012 496.327 99.4242 498.341 95.7312H522.178C523.297 103.453 524.304 112.126 525.199 121.75C526.206 131.262 527.046 141.222 527.717 151.63C528.5 161.925 529.172 172.277 529.731 182.684C530.403 193.092 530.962 202.884 531.41 212.06H505.895C505.559 200.757 505.112 188.448 504.552 175.13C503.992 161.813 503.153 148.384 502.034 134.843C500.02 139.543 497.782 144.747 495.32 150.455C492.858 156.162 490.396 161.869 487.934 167.577C485.584 173.284 483.289 178.767 481.051 184.027C478.813 189.175 476.911 193.595 475.344 197.288H457.047C455.48 193.595 453.578 189.175 451.339 184.027C449.101 178.767 446.751 173.284 444.289 167.577C441.939 161.869 439.533 156.162 437.071 150.455C434.609 144.747 432.371 139.543 430.357 134.843C429.238 148.384 428.398 161.813 427.839 175.13C427.279 188.448 426.831 200.757 426.496 212.06H400.981C401.428 202.884 401.932 193.092 402.491 182.684C403.163 172.277 403.834 161.925 404.506 151.63C405.289 141.222 406.128 131.262 407.024 121.75C408.031 112.126 409.094 103.453 410.213 95.7312H435.225Z" fill="white"/>
<path d="M343.349 267.073C343.349 272.043 342.576 276.378 341.03 280.077C339.484 283.722 337.303 286.759 334.486 289.188C331.67 291.563 328.302 293.357 324.382 294.572C320.461 295.732 316.154 296.311 311.46 296.311C309.141 296.311 306.574 296.201 303.758 295.98C300.997 295.815 298.484 295.456 296.22 294.903V239.244C298.484 238.691 300.997 238.332 303.758 238.167C306.574 237.946 309.141 237.836 311.46 237.836C316.154 237.836 320.461 238.443 324.382 239.658C328.302 240.817 331.67 242.612 334.486 245.041C337.303 247.416 339.484 250.453 341.03 254.152C342.576 257.797 343.349 262.104 343.349 267.073ZM312.123 289.271C319.743 289.271 325.431 287.339 329.186 283.473C332.94 279.553 334.818 274.086 334.818 267.073C334.818 260.061 332.94 254.622 329.186 250.757C325.431 246.836 319.743 244.876 312.123 244.876C309.859 244.876 308.092 244.903 306.822 244.959C305.607 245.014 304.751 245.069 304.255 245.124V289.023C304.751 289.078 305.607 289.133 306.822 289.188C308.092 289.244 309.859 289.271 312.123 289.271ZM362.473 295.815H354.77V252.744H362.473V295.815ZM358.58 244.959C357.2 244.959 356.012 244.517 355.019 243.633C354.08 242.695 353.61 241.452 353.61 239.906C353.61 238.36 354.08 237.145 355.019 236.262C356.012 235.323 357.2 234.854 358.58 234.854C359.961 234.854 361.12 235.323 362.059 236.262C363.053 237.145 363.55 238.36 363.55 239.906C363.55 241.452 363.053 242.695 362.059 243.633C361.12 244.517 359.961 244.959 358.58 244.959ZM402.721 291.508C402.059 291.949 400.761 292.529 398.828 293.247C396.951 293.909 394.742 294.241 392.202 294.241C389.607 294.241 387.15 293.827 384.83 292.998C382.567 292.17 380.579 290.9 378.867 289.188C377.155 287.421 375.802 285.24 374.808 282.645C373.814 280.05 373.317 276.958 373.317 273.368C373.317 270.221 373.787 267.35 374.726 264.754C375.664 262.104 377.017 259.84 378.784 257.963C380.606 256.03 382.815 254.539 385.41 253.49C388.005 252.385 390.932 251.833 394.19 251.833C397.779 251.833 400.899 252.109 403.549 252.662C406.255 253.159 408.519 253.628 410.341 254.07V292.501C410.341 299.128 408.629 303.932 405.206 306.913C401.782 309.895 396.592 311.386 389.634 311.386C386.929 311.386 384.361 311.165 381.932 310.723C379.557 310.282 377.486 309.757 375.719 309.15L377.128 302.441C378.674 303.048 380.551 303.573 382.76 304.014C385.024 304.511 387.37 304.76 389.8 304.76C394.383 304.76 397.669 303.849 399.657 302.027C401.7 300.204 402.721 297.305 402.721 293.33V291.508ZM402.638 259.536C401.865 259.315 400.816 259.122 399.491 258.956C398.221 258.736 396.481 258.625 394.273 258.625C390.131 258.625 386.929 259.978 384.665 262.684C382.456 265.389 381.352 268.979 381.352 273.451C381.352 275.936 381.655 278.062 382.263 279.829C382.925 281.596 383.781 283.059 384.83 284.219C385.935 285.378 387.177 286.234 388.558 286.786C389.993 287.339 391.457 287.615 392.948 287.615C394.991 287.615 396.868 287.339 398.58 286.786C400.292 286.179 401.644 285.489 402.638 284.716V259.536ZM431.307 295.815H423.604V252.744H431.307V295.815ZM427.414 244.959C426.034 244.959 424.846 244.517 423.852 243.633C422.914 242.695 422.444 241.452 422.444 239.906C422.444 238.36 422.914 237.145 423.852 236.262C424.846 235.323 426.034 234.854 427.414 234.854C428.794 234.854 429.954 235.323 430.893 236.262C431.887 237.145 432.384 238.36 432.384 239.906C432.384 241.452 431.887 242.695 430.893 243.633C429.954 244.517 428.794 244.959 427.414 244.959ZM451.759 252.744H468.076V259.205H451.759V279.083C451.759 281.237 451.925 283.032 452.256 284.467C452.588 285.848 453.085 286.952 453.747 287.78C454.41 288.553 455.238 289.106 456.232 289.437C457.226 289.768 458.385 289.934 459.711 289.934C462.03 289.934 463.88 289.685 465.26 289.188C466.696 288.636 467.69 288.25 468.242 288.029L469.733 294.406C468.96 294.793 467.607 295.262 465.674 295.815C463.742 296.422 461.533 296.726 459.048 296.726C456.122 296.726 453.692 296.367 451.759 295.649C449.882 294.876 448.363 293.744 447.204 292.253C446.044 290.762 445.216 288.94 444.719 286.786C444.277 284.578 444.056 282.038 444.056 279.166V240.734L451.759 239.409V252.744ZM492.456 290.265C494.278 290.265 495.879 290.237 497.26 290.182C498.696 290.072 499.883 289.906 500.821 289.685V276.847C500.269 276.571 499.358 276.35 498.088 276.184C496.873 275.964 495.382 275.853 493.615 275.853C492.456 275.853 491.214 275.936 489.888 276.102C488.618 276.267 487.431 276.626 486.327 277.178C485.278 277.675 484.394 278.393 483.676 279.332C482.958 280.215 482.599 281.403 482.599 282.893C482.599 285.654 483.483 287.587 485.25 288.691C487.017 289.741 489.419 290.265 492.456 290.265ZM491.793 251.668C494.886 251.668 497.481 252.082 499.579 252.91C501.733 253.683 503.444 254.815 504.714 256.306C506.04 257.742 506.978 259.481 507.53 261.524C508.083 263.512 508.359 265.721 508.359 268.15V295.069C507.696 295.18 506.757 295.345 505.543 295.566C504.383 295.732 503.058 295.897 501.567 296.063C500.076 296.229 498.447 296.367 496.68 296.477C494.968 296.643 493.257 296.726 491.545 296.726C489.115 296.726 486.879 296.477 484.836 295.98C482.793 295.483 481.026 294.71 479.535 293.661C478.044 292.557 476.884 291.121 476.056 289.354C475.228 287.587 474.814 285.461 474.814 282.976C474.814 280.602 475.283 278.559 476.222 276.847C477.216 275.135 478.541 273.755 480.197 272.706C481.854 271.657 483.787 270.884 485.995 270.387C488.204 269.89 490.523 269.641 492.953 269.641C493.726 269.641 494.527 269.696 495.355 269.807C496.183 269.862 496.956 269.972 497.674 270.138C498.447 270.249 499.11 270.359 499.662 270.469C500.214 270.58 500.601 270.663 500.821 270.718V268.564C500.821 267.294 500.683 266.052 500.407 264.837C500.131 263.567 499.634 262.463 498.916 261.524C498.199 260.53 497.205 259.757 495.935 259.205C494.72 258.598 493.119 258.294 491.131 258.294C488.591 258.294 486.354 258.487 484.422 258.874C482.544 259.205 481.136 259.564 480.197 259.95L479.286 253.573C480.28 253.131 481.937 252.717 484.256 252.33C486.575 251.889 489.088 251.668 491.793 251.668ZM534.073 296.643C529.325 296.532 525.956 295.511 523.968 293.578C521.981 291.646 520.987 288.636 520.987 284.55V232.866L528.69 231.541V283.308C528.69 284.578 528.8 285.627 529.021 286.455C529.242 287.283 529.601 287.946 530.098 288.443C530.595 288.94 531.257 289.326 532.085 289.602C532.914 289.823 533.935 290.017 535.15 290.182L534.073 296.643Z" fill="white"/>
</svg>
