<svg width="24" height="24" viewBox="0 0 24 24" fill="none" xmlns="http://www.w3.org/2000/svg">
<circle cx="12" cy="12" r="12" fill="white"/>
<path d="M11.2007 9.28383C11.1736 9.18463 11.0851 9.11632 10.9843 9.11632H10.2742C10.127 9.11632 10.0197 9.25809 10.0573 9.40314C10.226 10.0521 10.3824 10.7591 10.513 11.5199C10.6336 12.2222 10.7184 12.8885 10.7762 13.5112C10.7881 13.6423 10.9054 13.7354 11.0324 13.7162L11.7471 13.6072C11.8649 13.5894 11.9484 13.4804 11.9374 13.3596C11.8837 12.7757 11.8044 12.1506 11.6907 11.4913C11.5523 10.6889 11.3827 9.95104 11.2007 9.28383Z" fill="#1A23F1"/>
<path d="M15.448 11.4913C15.3096 10.6889 15.1395 9.95104 14.958 9.28383C14.9309 9.18463 14.8424 9.11632 14.7416 9.11632H14.0315C13.8843 9.11632 13.777 9.25809 13.8146 9.40314C13.9833 10.0521 14.1397 10.7591 14.2703 11.5199C14.3556 12.0163 14.4225 12.494 14.4752 12.9516C14.4899 13.0798 14.6059 13.1701 14.731 13.151L15.4453 13.0419C15.5649 13.0237 15.6493 12.9114 15.6351 12.7888C15.5869 12.3738 15.5255 11.9405 15.448 11.4913Z" fill="#1A23F1"/>
<path fill-rule="evenodd" clip-rule="evenodd" d="M16.5973 7.31306C16.573 7.60924 16.6606 7.93677 16.7655 8.14311L16.766 8.14264C16.7848 8.16931 16.7999 8.19832 16.8109 8.22967C17.6576 10.6159 18.0776 13.807 17.9882 18.1191C17.9804 18.4943 17.7447 18.8303 17.394 18.9468C15.7446 19.4951 11.8282 20.0182 9.27937 20.2438C9.24177 20.247 9.20418 20.248 9.16705 20.2475C9.04511 20.2545 8.38038 20.2798 7.82156 19.7614C7.28657 19.2649 7.2311 18.6244 7.22239 18.4915C7.22101 18.469 7.21964 18.4466 7.21964 18.4237C7.1958 14.498 7.08165 12.3364 6.70849 10.2065C6.70573 10.2552 6.70115 10.3048 6.69336 10.3553C6.67456 10.4849 6.64155 10.6183 6.59663 10.7488C6.5517 10.8793 6.49623 11.0066 6.43434 11.1259C6.37246 11.2452 6.30644 11.3566 6.23676 11.4595C6.16754 11.5625 6.09419 11.6556 6.02313 11.7342C5.88056 11.8919 5.7467 11.9925 5.63713 12.0533C5.61009 12.0692 5.58395 12.0814 5.55966 12.0926C5.53582 12.1038 5.51152 12.1132 5.4886 12.1211C5.4423 12.137 5.39875 12.1455 5.36162 12.1469C5.28643 12.1497 5.24151 12.1253 5.22088 12.0977C5.19979 12.0687 5.19841 12.036 5.1975 12.0018C5.19658 11.9677 5.19887 11.9344 5.20667 11.9045C5.21492 11.8741 5.22546 11.8465 5.24701 11.8151C5.25801 11.7992 5.27222 11.7819 5.29423 11.7595C5.31577 11.7375 5.34786 11.708 5.38316 11.6757L5.38669 11.6725C5.45819 11.6074 5.55101 11.523 5.66556 11.3968C5.72378 11.3327 5.7875 11.2574 5.85214 11.1718C5.91723 11.0871 5.98462 10.9916 6.04834 10.8929C6.17716 10.6959 6.28856 10.4802 6.35916 10.2725C6.4018 10.1494 6.4293 10.0297 6.44718 9.92157C6.38575 10.0428 6.29819 10.1752 6.18267 10.2996C6.09511 10.3951 5.99333 10.4854 5.88377 10.5668C5.7742 10.6477 5.6573 10.7203 5.53995 10.7825C5.42259 10.8447 5.30615 10.8976 5.19154 10.942C5.07739 10.9865 4.96507 11.0202 4.86284 11.0436C4.65747 11.0899 4.49151 11.095 4.36728 11.0815C4.33611 11.0787 4.30768 11.074 4.28155 11.0688C4.25588 11.0642 4.23067 11.0581 4.20729 11.0511C4.16007 11.037 4.11973 11.0188 4.08855 10.9987C4.02483 10.957 4.00145 10.9112 4.00008 10.8765C3.9987 10.841 4.01612 10.8129 4.03446 10.7844C4.05325 10.7554 4.07297 10.7296 4.09635 10.7095C4.12019 10.6889 4.14402 10.6721 4.17932 10.659C4.19766 10.6524 4.21921 10.6463 4.24946 10.6407C4.27926 10.6351 4.32189 10.6295 4.36911 10.6234C4.46447 10.6117 4.58916 10.5963 4.75649 10.5584C4.83992 10.5392 4.93436 10.5144 5.03521 10.4816C5.13561 10.4494 5.24472 10.41 5.35199 10.3661C5.56745 10.279 5.7797 10.1663 5.95345 10.0367C6.08823 9.93748 6.19917 9.82799 6.2849 9.73067C6.12307 9.81021 5.94703 9.85887 5.76503 9.8687C5.55462 9.87993 5.32082 9.8453 5.09573 9.71336C4.82709 9.55614 4.65472 9.28851 4.6813 8.98625C4.68635 8.92917 4.70056 8.87349 4.71935 8.81921C4.96461 8.11644 5.93282 5.47892 9.08407 3.85206C12.9569 1.85275 16.2021 2.98084 17.5087 4.04857C17.9735 4.42803 18.122 5.08776 17.8594 5.63286C17.8587 5.6345 17.8579 5.63602 17.8571 5.63754C17.8563 5.63906 17.8555 5.64058 17.8548 5.64222C17.6489 6.06472 17.2684 6.30429 16.9269 6.45869C16.6419 6.5875 16.6244 6.87792 16.6064 7.17705C16.6037 7.22237 16.601 7.26788 16.5973 7.31306ZM13.2067 18.7058C13.226 18.9973 13.4474 19.2195 13.7018 19.2022C13.9563 19.1849 14.1474 18.9346 14.1282 18.6431C14.1089 18.3516 13.8875 18.1294 13.6331 18.1467C13.3787 18.164 13.1875 18.4143 13.2067 18.7058ZM17.0186 16.9573C17.141 16.9082 17.2212 16.7977 17.2249 16.6751L17.2244 16.6747C17.323 13.435 16.9173 10.8349 16.0637 7.83664C15.1982 7.32055 13.7115 6.8943 11.5174 7.17223C10.0344 7.36032 8.85715 7.86611 7.9843 8.41308C8.58347 10.6384 8.97634 13.7391 8.97909 17.6273C8.97909 17.8753 9.19914 18.0624 9.46916 18.0433C11.6531 17.8865 15.8551 17.4233 17.0186 16.9573Z" fill="#1A23F1"/>
</svg>
