<svg width="544" height="236" viewBox="0 0 544 236" fill="none" xmlns="http://www.w3.org/2000/svg">
<path d="M157.114 65.034C155.822 62.5458 154.744 58.5963 155.043 55.0248C155.387 50.8834 155.06 46.5107 159.1 44.7221C163.303 42.8602 167.986 39.9714 170.52 34.8765C170.536 34.837 170.559 34.8031 170.576 34.7636C173.809 28.1905 171.981 20.235 166.26 15.6591C150.179 2.78364 110.238 -10.8197 62.573 13.2894C23.7885 32.9073 11.8721 64.7124 8.85355 73.187C8.62222 73.8415 8.44732 74.5129 8.38525 75.2013C8.058 78.8461 10.1795 82.0735 13.4858 83.9692C16.2561 85.5603 19.1336 85.9779 21.7234 85.8425C23.9634 85.724 26.13 85.1372 28.1217 84.178C27.0666 85.3516 25.7012 86.6719 24.0424 87.868C21.904 89.4309 19.2916 90.7907 16.6398 91.8401C15.3195 92.3705 13.9767 92.8444 12.741 93.2337C11.4997 93.6287 10.3375 93.9277 9.31057 94.1591C7.25117 94.6161 5.71649 94.8023 4.54291 94.9433C3.96177 95.0167 3.43704 95.0844 3.0703 95.1521C2.69791 95.2198 2.43273 95.2931 2.20704 95.3721C1.77259 95.5301 1.4792 95.7332 1.1858 95.9815C0.89805 96.2241 0.655435 96.5344 0.424105 96.8842C0.198417 97.2284 -0.0159866 97.567 0.000939966 97.9958C0.0178666 98.4133 0.305619 98.9662 1.08988 99.4684C1.47355 99.711 1.97007 99.931 2.55122 100.1C2.83897 100.185 3.14929 100.258 3.46525 100.315C3.78686 100.377 4.13667 100.433 4.52034 100.467C6.04938 100.631 8.09186 100.569 10.6196 100.01C11.8778 99.7279 13.2601 99.3217 14.665 98.7857C16.0756 98.2497 17.5087 97.6121 18.9531 96.8617C20.3975 96.1113 21.8363 95.2367 23.1847 94.2606C24.5332 93.2789 25.7858 92.1899 26.8635 91.0389C28.2853 89.5381 29.363 87.9414 30.119 86.48C29.899 87.7834 29.5604 89.2278 29.0357 90.7117C28.1668 93.2168 26.7958 95.8179 25.2103 98.1932C24.426 99.3837 23.5966 100.535 22.7954 101.556C21.9999 102.589 21.2156 103.497 20.4991 104.27C19.0659 105.816 17.9093 106.843 17.0235 107.633C16.589 108.022 16.1941 108.377 15.9289 108.643C15.658 108.913 15.4831 109.122 15.3477 109.314C15.0825 109.692 14.9528 110.025 14.8512 110.392C14.7553 110.753 14.7271 111.153 14.7384 111.565C14.7497 111.977 14.7666 112.372 15.0261 112.722C15.28 113.055 15.833 113.348 16.7583 113.314C17.2153 113.297 17.7513 113.196 18.3212 113.004C18.6033 112.908 18.9023 112.795 19.1957 112.66C19.4947 112.524 19.8164 112.378 20.1492 112.186C21.4977 111.452 23.1452 110.239 24.9 108.338C25.7745 107.39 26.6773 106.267 27.5292 105.026C28.3869 103.785 29.1993 102.442 29.961 101.003C30.7227 99.5643 31.4054 98.0296 31.9584 96.4554C32.5113 94.8813 32.9175 93.2732 33.1489 91.7103C33.2448 91.101 33.3012 90.5029 33.3351 89.9161C37.9278 115.599 39.3327 141.666 39.6261 189.004C39.6261 189.281 39.643 189.552 39.66 189.823C39.7672 191.425 40.4499 199.149 47.0343 205.135C53.9122 211.387 62.0934 211.082 63.5942 210.998C64.0512 211.003 64.5139 210.992 64.9765 210.953C96.3472 208.233 144.548 201.925 164.849 195.312C169.165 193.908 172.066 189.856 172.161 185.331C173.262 133.333 168.093 94.8531 157.672 66.0778C157.537 65.6998 157.351 65.35 157.119 65.0284L157.114 65.034ZM119.407 198.393C116.275 198.602 113.55 195.922 113.313 192.407C113.076 188.892 115.429 185.873 118.561 185.664C121.692 185.456 124.417 188.136 124.654 191.651C124.891 195.166 122.538 198.184 119.407 198.393ZM162.767 167.92C162.722 169.398 161.735 170.729 160.228 171.322C145.908 176.941 94.1918 182.527 67.3124 184.417C63.9891 184.649 61.2809 182.392 61.2809 179.401C61.247 132.515 56.4117 95.1239 49.0373 68.2896C59.7801 61.6938 74.2692 55.5946 92.5218 53.3265C119.525 49.975 137.823 55.115 148.475 61.3384C158.981 97.4936 163.975 128.847 162.762 167.914L162.767 167.92Z" fill="white"/>
<path d="M140.898 105.41C139.194 95.7333 137.101 86.8355 134.867 78.7897C134.534 77.5936 133.445 76.7698 132.203 76.7698H123.464C121.652 76.7698 120.332 78.4794 120.795 80.2285C122.871 88.0542 124.795 96.5796 126.403 105.754C127.453 111.74 128.276 117.501 128.925 123.019C129.106 124.565 130.533 125.654 132.074 125.423L140.864 124.108C142.337 123.888 143.375 122.534 143.2 121.055C142.608 116.051 141.852 110.826 140.898 105.41Z" fill="white"/>
<path d="M88.6233 78.7897C88.2904 77.5936 87.2015 76.7698 85.9602 76.7698H77.2204C75.4093 76.7698 74.089 78.4794 74.5516 80.2285C76.628 88.0542 78.552 96.5796 80.16 105.754C81.6439 114.223 82.6877 122.257 83.3986 129.767C83.5453 131.347 84.9897 132.47 86.5526 132.238L95.3488 130.924C96.7988 130.709 97.8257 129.395 97.6903 127.939C97.0302 120.897 96.0541 113.36 94.6548 105.41C92.9509 95.7333 90.8632 86.8355 88.6233 78.7897Z" fill="white"/>
<path d="M324.231 72.3353H310.199C308.709 72.3353 307.643 72.7077 306.988 73.4468C306.334 74.1916 305.871 74.784 305.612 75.2185L282.535 116.655L259.459 75.2185C259.284 74.784 258.821 74.1916 258.082 73.4468C257.337 72.7077 256.265 72.3353 254.871 72.3353H240.71C239.835 72.3353 239.068 72.64 238.413 73.255C237.759 73.87 237.431 74.6543 237.431 75.6134V160.845C237.431 161.809 237.759 162.594 238.413 163.203C239.068 163.818 239.835 164.123 240.71 164.123H256.446C257.405 164.123 258.195 163.818 258.804 163.203C259.413 162.588 259.724 161.804 259.724 160.845V111.673L274.54 139.077C274.975 139.861 275.544 140.566 276.244 141.176C276.944 141.791 277.903 142.096 279.127 142.096H285.949C287.173 142.096 288.132 141.791 288.832 141.176C289.531 140.566 290.056 139.867 290.406 139.077L305.222 111.673V160.845C305.222 161.809 305.55 162.594 306.204 163.203C306.859 163.818 307.666 164.123 308.63 164.123H324.237C325.196 164.123 326.008 163.818 326.663 163.203C327.317 162.594 327.645 161.804 327.645 160.845V75.6134C327.645 74.6543 327.317 73.8644 326.663 73.255C326.008 72.6456 325.196 72.3353 324.237 72.3353H324.231Z" fill="white"/>
<path d="M366.717 72.3353H349.147C348.183 72.3353 347.398 72.64 346.789 73.255C346.174 73.87 345.869 74.6543 345.869 75.6134V160.845C345.869 161.809 346.174 162.594 346.789 163.203C347.398 163.818 348.188 164.123 349.147 164.123H366.717C367.676 164.123 368.466 163.818 369.076 163.203C369.685 162.588 369.995 161.804 369.995 160.845V75.6134C369.995 74.6543 369.691 73.8644 369.076 73.255C368.461 72.6456 367.676 72.3353 366.717 72.3353Z" fill="white"/>
<path d="M430.575 116.266L461.918 76.6629C462.267 76.2284 462.442 75.7037 462.442 75.0887C462.442 74.3891 462.183 73.7572 461.658 73.1873C461.133 72.6174 460.479 72.3353 459.689 72.3353H440.805C439.405 72.3353 438.288 72.6174 437.459 73.1873C436.629 73.7572 436.037 74.3045 435.687 74.8292L411.426 104.727V75.6191C411.426 74.6599 411.121 73.87 410.506 73.2606C409.891 72.6513 409.107 72.341 408.147 72.341H391.627C390.662 72.341 389.878 72.6456 389.269 73.2606C388.654 73.8756 388.349 74.6599 388.349 75.6191V160.85C388.349 161.815 388.654 162.599 389.269 163.209C389.878 163.824 390.668 164.128 391.627 164.128H408.147C409.107 164.128 409.897 163.824 410.506 163.209C411.115 162.594 411.426 161.809 411.426 160.85V129.118L437.391 161.505C437.651 161.854 438.198 162.379 439.033 163.079C439.862 163.778 441.064 164.128 442.638 164.128H462.177C462.877 164.128 463.509 163.846 464.079 163.276C464.648 162.706 464.931 162.075 464.931 161.375C464.931 160.675 464.756 160.151 464.406 159.801L430.575 116.266Z" fill="white"/>
<path d="M543.08 146.164C542.465 145.554 541.681 145.244 540.722 145.244H497.841V127.02H536.784C537.743 127.02 538.533 126.692 539.142 126.038C539.751 125.383 540.062 124.616 540.062 123.741V112.333C540.062 111.374 539.757 110.561 539.142 109.907C538.527 109.252 537.743 108.925 536.784 108.925H497.841V91.2198H539.672C540.632 91.2198 541.421 90.9151 542.031 90.3001C542.64 89.6851 542.95 88.9008 542.95 87.9416V75.6134C542.95 74.6543 542.646 73.8644 542.031 73.255C541.416 72.6456 540.632 72.3353 539.672 72.3353H478.438C477.473 72.3353 476.688 72.64 476.079 73.255C475.464 73.87 475.159 74.6543 475.159 75.6134V160.845C475.159 161.809 475.464 162.594 476.079 163.203C476.688 163.818 477.478 164.123 478.438 164.123H540.722C541.681 164.123 542.471 163.818 543.08 163.203C543.69 162.594 544 161.804 544 160.845V148.516C544 147.557 543.695 146.767 543.08 146.158V146.164Z" fill="white"/>
<path d="M249.084 189.547H251.465V199.892C251.465 200.993 251.206 201.968 250.689 202.818C250.172 203.663 249.445 204.329 248.508 204.815C247.571 205.296 246.473 205.537 245.213 205.537C243.959 205.537 242.863 205.296 241.926 204.815C240.989 204.329 240.262 203.663 239.745 202.818C239.228 201.968 238.969 200.993 238.969 199.892V189.547H241.342V199.7C241.342 200.412 241.499 201.044 241.811 201.597C242.128 202.15 242.576 202.585 243.155 202.903C243.734 203.215 244.42 203.371 245.213 203.371C246.012 203.371 246.701 203.215 247.279 202.903C247.863 202.585 248.308 202.15 248.616 201.597C248.928 201.044 249.084 200.412 249.084 199.7V189.547Z" fill="white"/>
<path d="M254.731 205.276V193.479H256.935V195.399H257.081C257.327 194.749 257.729 194.242 258.287 193.878C258.845 193.51 259.513 193.325 260.292 193.325C261.08 193.325 261.741 193.51 262.273 193.878C262.811 194.247 263.208 194.754 263.464 195.399H263.586C263.868 194.769 264.316 194.268 264.93 193.894C265.545 193.515 266.277 193.325 267.127 193.325C268.197 193.325 269.07 193.661 269.746 194.332C270.427 195.002 270.767 196.013 270.767 197.365V205.276H268.471V197.58C268.471 196.782 268.253 196.203 267.818 195.845C267.383 195.486 266.863 195.307 266.259 195.307C265.512 195.307 264.93 195.537 264.516 195.998C264.101 196.454 263.894 197.04 263.894 197.757V205.276H261.605V197.434C261.605 196.794 261.405 196.28 261.006 195.891C260.606 195.501 260.087 195.307 259.447 195.307C259.012 195.307 258.61 195.422 258.241 195.653C257.877 195.878 257.583 196.193 257.358 196.597C257.138 197.002 257.027 197.47 257.027 198.003V205.276H254.731Z" fill="white"/>
<path d="M288.409 196.359L286.328 196.728C286.241 196.461 286.102 196.208 285.913 195.967C285.729 195.727 285.478 195.53 285.16 195.376C284.843 195.222 284.446 195.146 283.97 195.146C283.32 195.146 282.777 195.292 282.342 195.583C281.906 195.87 281.689 196.241 281.689 196.697C281.689 197.091 281.835 197.409 282.127 197.649C282.418 197.89 282.889 198.087 283.54 198.241L285.414 198.671C286.499 198.922 287.308 199.308 287.841 199.831C288.373 200.353 288.639 201.031 288.639 201.866C288.639 202.572 288.435 203.202 288.025 203.755C287.62 204.303 287.055 204.733 286.328 205.045C285.606 205.358 284.769 205.514 283.816 205.514C282.495 205.514 281.417 205.232 280.583 204.669C279.748 204.101 279.236 203.294 279.047 202.25L281.266 201.912C281.405 202.49 281.689 202.928 282.119 203.225C282.549 203.517 283.11 203.663 283.801 203.663C284.553 203.663 285.155 203.507 285.606 203.195C286.056 202.877 286.282 202.49 286.282 202.035C286.282 201.666 286.143 201.356 285.867 201.105C285.595 200.855 285.178 200.665 284.615 200.537L282.618 200.099C281.517 199.848 280.703 199.449 280.176 198.901C279.653 198.353 279.392 197.66 279.392 196.82C279.392 196.124 279.587 195.514 279.976 194.992C280.365 194.47 280.903 194.063 281.589 193.771C282.275 193.474 283.061 193.325 283.947 193.325C285.222 193.325 286.225 193.602 286.957 194.155C287.69 194.703 288.173 195.437 288.409 196.359Z" fill="white"/>
<path d="M291.164 205.276V193.479H293.461V205.276H291.164ZM292.324 191.659C291.925 191.659 291.582 191.526 291.295 191.259C291.013 190.988 290.872 190.665 290.872 190.292C290.872 189.913 291.013 189.59 291.295 189.324C291.582 189.053 291.925 188.917 292.324 188.917C292.723 188.917 293.064 189.053 293.345 189.324C293.632 189.59 293.776 189.913 293.776 190.292C293.776 190.665 293.632 190.988 293.345 191.259C293.064 191.526 292.723 191.659 292.324 191.659Z" fill="white"/>
<path d="M305.39 196.359L303.309 196.728C303.222 196.461 303.083 196.208 302.894 195.967C302.71 195.727 302.459 195.53 302.141 195.376C301.824 195.222 301.427 195.146 300.951 195.146C300.301 195.146 299.758 195.292 299.323 195.583C298.887 195.87 298.67 196.241 298.67 196.697C298.67 197.091 298.816 197.409 299.108 197.649C299.399 197.89 299.87 198.087 300.521 198.241L302.395 198.671C303.48 198.922 304.289 199.308 304.822 199.831C305.354 200.353 305.62 201.031 305.62 201.866C305.62 202.572 305.416 203.202 305.006 203.755C304.602 204.303 304.036 204.733 303.309 205.045C302.587 205.358 301.75 205.514 300.797 205.514C299.476 205.514 298.398 205.232 297.564 204.669C296.729 204.101 296.217 203.294 296.028 202.25L298.247 201.912C298.386 202.49 298.67 202.928 299.1 203.225C299.53 203.517 300.091 203.663 300.782 203.663C301.535 203.663 302.136 203.507 302.587 203.195C303.037 202.877 303.263 202.49 303.263 202.035C303.263 201.666 303.124 201.356 302.848 201.105C302.576 200.855 302.159 200.665 301.596 200.537L299.599 200.099C298.498 199.848 297.684 199.449 297.157 198.901C296.635 198.353 296.373 197.66 296.373 196.82C296.373 196.124 296.568 195.514 296.957 194.992C297.346 194.47 297.884 194.063 298.57 193.771C299.256 193.474 300.042 193.325 300.928 193.325C302.203 193.325 303.206 193.602 303.938 194.155C304.671 194.703 305.154 195.437 305.39 196.359Z" fill="white"/>
<path d="M313.652 193.479V195.322H307.208V193.479H313.652ZM308.936 190.653H311.233V201.812C311.233 202.258 311.299 202.593 311.432 202.818C311.566 203.038 311.737 203.189 311.947 203.271C312.162 203.348 312.395 203.387 312.646 203.387C312.83 203.387 312.992 203.374 313.13 203.348C313.268 203.323 313.376 203.302 313.452 203.287L313.867 205.184C313.734 205.235 313.545 205.286 313.299 205.337C313.053 205.394 312.746 205.424 312.377 205.429C311.773 205.44 311.21 205.332 310.687 205.107C310.165 204.882 309.743 204.533 309.42 204.062C309.098 203.591 308.936 203 308.936 202.288V190.653Z" fill="white"/>
<path d="M321.15 205.514C319.988 205.514 318.987 205.266 318.147 204.769C317.312 204.267 316.667 203.563 316.211 202.657C315.761 201.746 315.536 200.678 315.536 199.454C315.536 198.246 315.761 197.181 316.211 196.259C316.667 195.338 317.302 194.618 318.116 194.101C318.935 193.584 319.893 193.325 320.989 193.325C321.654 193.325 322.299 193.435 322.924 193.656C323.549 193.876 324.109 194.221 324.606 194.692C325.103 195.164 325.494 195.775 325.781 196.528C326.068 197.276 326.211 198.184 326.211 199.255V200.069H316.834V198.348H323.961C323.961 197.744 323.838 197.209 323.592 196.743C323.346 196.272 323.001 195.901 322.555 195.629C322.115 195.358 321.598 195.222 321.004 195.222C320.359 195.222 319.796 195.381 319.314 195.699C318.838 196.011 318.469 196.421 318.208 196.927C317.952 197.429 317.824 197.975 317.824 198.563V199.907C317.824 200.696 317.963 201.367 318.239 201.92C318.521 202.473 318.912 202.895 319.414 203.187C319.916 203.474 320.502 203.617 321.173 203.617C321.608 203.617 322.005 203.555 322.363 203.433C322.722 203.305 323.032 203.115 323.293 202.864C323.554 202.613 323.753 202.304 323.892 201.935L326.065 202.327C325.891 202.967 325.579 203.527 325.128 204.009C324.683 204.485 324.122 204.856 323.446 205.122C322.776 205.383 322.01 205.514 321.15 205.514Z" fill="white"/>
<path d="M328.759 205.276V193.479H330.963V195.399H331.109C331.355 194.749 331.757 194.242 332.315 193.878C332.873 193.51 333.541 193.325 334.32 193.325C335.108 193.325 335.769 193.51 336.301 193.878C336.839 194.247 337.236 194.754 337.492 195.399H337.614C337.896 194.769 338.344 194.268 338.958 193.894C339.573 193.515 340.305 193.325 341.155 193.325C342.225 193.325 343.098 193.661 343.774 194.332C344.455 195.002 344.795 196.013 344.795 197.365V205.276H342.499V197.58C342.499 196.782 342.281 196.203 341.846 195.845C341.411 195.486 340.891 195.307 340.287 195.307C339.54 195.307 338.958 195.537 338.544 195.998C338.129 196.454 337.922 197.04 337.922 197.757V205.276H335.633V197.434C335.633 196.794 335.433 196.28 335.034 195.891C334.634 195.501 334.115 195.307 333.475 195.307C333.04 195.307 332.638 195.422 332.269 195.653C331.905 195.878 331.611 196.193 331.386 196.597C331.166 197.002 331.055 197.47 331.055 198.003V205.276H328.759Z" fill="white"/>
<path d="M351.306 205.537C350.559 205.537 349.883 205.399 349.279 205.122C348.675 204.841 348.196 204.434 347.843 203.901C347.494 203.369 347.32 202.716 347.32 201.943C347.32 201.277 347.448 200.729 347.704 200.299C347.96 199.869 348.306 199.528 348.741 199.278C349.176 199.027 349.663 198.837 350.2 198.709C350.738 198.581 351.286 198.484 351.844 198.417C352.551 198.335 353.124 198.269 353.564 198.218C354.005 198.161 354.325 198.072 354.524 197.949C354.724 197.826 354.824 197.626 354.824 197.35V197.296C354.824 196.625 354.634 196.106 354.256 195.737C353.882 195.368 353.324 195.184 352.581 195.184C351.808 195.184 351.199 195.356 350.753 195.699C350.313 196.037 350.008 196.413 349.839 196.828L347.681 196.336C347.937 195.619 348.311 195.041 348.803 194.6C349.299 194.155 349.87 193.832 350.515 193.633C351.16 193.428 351.839 193.325 352.551 193.325C353.022 193.325 353.521 193.382 354.048 193.494C354.581 193.602 355.077 193.802 355.538 194.093C356.004 194.385 356.386 194.803 356.683 195.345C356.98 195.883 357.128 196.582 357.128 197.442V205.276H354.885V203.663H354.793C354.645 203.96 354.422 204.252 354.125 204.539C353.828 204.825 353.447 205.063 352.981 205.253C352.515 205.442 351.957 205.537 351.306 205.537ZM351.806 203.694C352.441 203.694 352.983 203.568 353.434 203.317C353.89 203.067 354.235 202.739 354.471 202.334C354.711 201.925 354.832 201.487 354.832 201.021V199.5C354.75 199.582 354.591 199.659 354.355 199.731C354.125 199.797 353.861 199.856 353.564 199.907C353.267 199.953 352.978 199.997 352.697 200.038C352.415 200.074 352.179 200.104 351.99 200.13C351.544 200.186 351.137 200.281 350.769 200.414C350.405 200.547 350.113 200.739 349.893 200.99C349.678 201.236 349.571 201.564 349.571 201.973C349.571 202.542 349.781 202.972 350.2 203.264C350.62 203.55 351.155 203.694 351.806 203.694Z" fill="white"/>
<path d="M365.91 205.276V193.479H368.207V205.276H365.91ZM367.07 191.659C366.671 191.659 366.328 191.526 366.041 191.259C365.759 190.988 365.619 190.665 365.619 190.292C365.619 189.913 365.759 189.59 366.041 189.324C366.328 189.053 366.671 188.917 367.07 188.917C367.469 188.917 367.81 189.053 368.092 189.324C368.378 189.59 368.522 189.913 368.522 190.292C368.522 190.665 368.378 190.988 368.092 191.259C367.81 191.526 367.469 191.659 367.07 191.659Z" fill="white"/>
<path d="M373.593 198.271V205.276H371.296V193.479H373.5V195.399H373.646C373.918 194.774 374.343 194.273 374.921 193.894C375.505 193.515 376.24 193.325 377.125 193.325C377.929 193.325 378.633 193.494 379.238 193.832C379.842 194.165 380.31 194.662 380.643 195.322C380.976 195.983 381.142 196.799 381.142 197.772V205.276H378.846V198.049C378.846 197.194 378.623 196.526 378.178 196.044C377.732 195.558 377.12 195.315 376.342 195.315C375.81 195.315 375.336 195.43 374.921 195.66C374.512 195.891 374.186 196.229 373.946 196.674C373.71 197.114 373.593 197.647 373.593 198.271Z" fill="white"/>
<path d="M389.729 193.479V195.322H383.285V193.479H389.729ZM385.013 190.653H387.309V201.812C387.309 202.258 387.376 202.593 387.509 202.818C387.642 203.038 387.814 203.189 388.024 203.271C388.239 203.348 388.472 203.387 388.723 203.387C388.907 203.387 389.068 203.374 389.207 203.348C389.345 203.323 389.452 203.302 389.529 203.287L389.944 205.184C389.811 205.235 389.621 205.286 389.375 205.337C389.13 205.394 388.822 205.424 388.454 205.429C387.85 205.44 387.286 205.332 386.764 205.107C386.242 204.882 385.82 204.533 385.497 204.062C385.174 203.591 385.013 203 385.013 202.288V190.653Z" fill="white"/>
<path d="M397.227 205.514C396.064 205.514 395.063 205.266 394.224 204.769C393.389 204.267 392.744 203.563 392.288 202.657C391.838 201.746 391.612 200.678 391.612 199.454C391.612 198.246 391.838 197.181 392.288 196.259C392.744 195.338 393.379 194.618 394.193 194.101C395.012 193.584 395.97 193.325 397.065 193.325C397.731 193.325 398.376 193.435 399.001 193.656C399.625 193.876 400.186 194.221 400.683 194.692C401.179 195.164 401.571 195.775 401.858 196.528C402.145 197.276 402.288 198.184 402.288 199.255V200.069H392.91V198.348H400.038C400.038 197.744 399.915 197.209 399.669 196.743C399.423 196.272 399.078 195.901 398.632 195.629C398.192 195.358 397.675 195.222 397.081 195.222C396.436 195.222 395.872 195.381 395.391 195.699C394.915 196.011 394.546 196.421 394.285 196.927C394.029 197.429 393.901 197.975 393.901 198.563V199.907C393.901 200.696 394.039 201.367 394.316 201.92C394.597 202.473 394.989 202.895 395.491 203.187C395.993 203.474 396.579 203.617 397.25 203.617C397.685 203.617 398.082 203.555 398.44 203.433C398.799 203.305 399.108 203.115 399.369 202.864C399.631 202.613 399.83 202.304 399.968 201.935L402.142 202.327C401.968 202.967 401.656 203.527 401.205 204.009C400.76 204.485 400.199 204.856 399.523 205.122C398.852 205.383 398.087 205.514 397.227 205.514Z" fill="white"/>
<path d="M407.132 189.547V205.276H404.836V189.547H407.132Z" fill="white"/>
<path d="M410.222 205.276V193.479H412.518V205.276H410.222ZM411.381 191.659C410.982 191.659 410.639 191.526 410.352 191.259C410.071 190.988 409.93 190.665 409.93 190.292C409.93 189.913 410.071 189.59 410.352 189.324C410.639 189.053 410.982 188.917 411.381 188.917C411.781 188.917 412.121 189.053 412.403 189.324C412.69 189.59 412.833 189.913 412.833 190.292C412.833 190.665 412.69 190.988 412.403 191.259C412.121 191.526 411.781 191.659 411.381 191.659Z" fill="white"/>
<path d="M420.553 209.945C419.616 209.945 418.81 209.823 418.134 209.577C417.463 209.331 416.916 209.006 416.491 208.601C416.066 208.197 415.748 207.754 415.538 207.273L417.512 206.459C417.65 206.684 417.835 206.922 418.065 207.173C418.301 207.429 418.618 207.647 419.017 207.826C419.422 208.005 419.942 208.095 420.576 208.095C421.447 208.095 422.166 207.882 422.735 207.457C423.303 207.037 423.587 206.366 423.587 205.445V203.125H423.441C423.303 203.376 423.103 203.655 422.842 203.963C422.586 204.27 422.233 204.536 421.782 204.761C421.332 204.987 420.745 205.099 420.024 205.099C419.092 205.099 418.252 204.882 417.504 204.446C416.762 204.006 416.173 203.358 415.738 202.503C415.308 201.643 415.093 200.586 415.093 199.331C415.093 198.077 415.305 197.002 415.73 196.106C416.16 195.21 416.749 194.524 417.497 194.047C418.244 193.566 419.092 193.325 420.039 193.325C420.771 193.325 421.362 193.448 421.813 193.694C422.264 193.935 422.614 194.216 422.865 194.539C423.121 194.861 423.318 195.146 423.457 195.391H423.626V193.479H425.876V205.537C425.876 206.551 425.64 207.383 425.169 208.033C424.698 208.683 424.061 209.165 423.257 209.477C422.458 209.789 421.557 209.945 420.553 209.945ZM420.53 203.195C421.191 203.195 421.749 203.041 422.205 202.734C422.666 202.421 423.014 201.976 423.249 201.397C423.49 200.814 423.61 200.115 423.61 199.301C423.61 198.507 423.492 197.808 423.257 197.204C423.021 196.6 422.676 196.129 422.22 195.791C421.764 195.448 421.201 195.276 420.53 195.276C419.839 195.276 419.263 195.455 418.802 195.814C418.342 196.167 417.993 196.648 417.758 197.258C417.527 197.867 417.412 198.548 417.412 199.301C417.412 200.074 417.53 200.752 417.766 201.336C418.001 201.92 418.349 202.375 418.81 202.703C419.276 203.031 419.849 203.195 420.53 203.195Z" fill="white"/>
<path d="M434.04 205.514C432.878 205.514 431.877 205.266 431.037 204.769C430.202 204.267 429.557 203.563 429.102 202.657C428.651 201.746 428.426 200.678 428.426 199.454C428.426 198.246 428.651 197.181 429.102 196.259C429.557 195.338 430.192 194.618 431.006 194.101C431.825 193.584 432.783 193.325 433.879 193.325C434.544 193.325 435.189 193.435 435.814 193.656C436.439 193.876 436.999 194.221 437.496 194.692C437.993 195.164 438.384 195.775 438.671 196.528C438.958 197.276 439.101 198.184 439.101 199.255V200.069H429.724V198.348H436.851C436.851 197.744 436.728 197.209 436.482 196.743C436.237 196.272 435.891 195.901 435.445 195.629C435.005 195.358 434.488 195.222 433.894 195.222C433.249 195.222 432.686 195.381 432.204 195.699C431.728 196.011 431.36 196.421 431.098 196.927C430.842 197.429 430.714 197.975 430.714 198.563V199.907C430.714 200.696 430.853 201.367 431.129 201.92C431.411 202.473 431.802 202.895 432.304 203.187C432.806 203.474 433.392 203.617 434.063 203.617C434.498 203.617 434.895 203.555 435.253 203.433C435.612 203.305 435.922 203.115 436.183 202.864C436.444 202.613 436.644 202.304 436.782 201.935L438.955 202.327C438.781 202.967 438.469 203.527 438.018 204.009C437.573 204.485 437.012 204.856 436.336 205.122C435.666 205.383 434.9 205.514 434.04 205.514Z" fill="white"/>
<path d="M443.946 198.271V205.276H441.649V193.479H443.853V195.399H443.999C444.271 194.774 444.696 194.273 445.274 193.894C445.858 193.515 446.593 193.325 447.478 193.325C448.282 193.325 448.986 193.494 449.591 193.832C450.195 194.165 450.663 194.662 450.996 195.322C451.329 195.983 451.495 196.799 451.495 197.772V205.276H449.199V198.049C449.199 197.194 448.976 196.526 448.531 196.044C448.085 195.558 447.473 195.315 446.695 195.315C446.163 195.315 445.689 195.43 445.274 195.66C444.865 195.891 444.54 196.229 444.299 196.674C444.063 197.114 443.946 197.647 443.946 198.271Z" fill="white"/>
<path d="M460.082 193.479V195.322H453.638V193.479H460.082ZM455.366 190.653H457.662V201.812C457.662 202.258 457.729 202.593 457.862 202.818C457.995 203.038 458.167 203.189 458.377 203.271C458.592 203.348 458.825 203.387 459.076 203.387C459.26 203.387 459.421 203.374 459.56 203.348C459.698 203.323 459.805 203.302 459.882 203.287L460.297 205.184C460.164 205.235 459.974 205.286 459.728 205.337C459.483 205.394 459.176 205.424 458.807 205.429C458.203 205.44 457.639 205.332 457.117 205.107C456.595 204.882 456.173 204.533 455.85 204.062C455.527 203.591 455.366 203 455.366 202.288V190.653Z" fill="white"/>
<path d="M467.58 205.514C466.417 205.514 465.416 205.266 464.577 204.769C463.742 204.267 463.097 203.563 462.641 202.657C462.191 201.746 461.965 200.678 461.965 199.454C461.965 198.246 462.191 197.181 462.641 196.259C463.097 195.338 463.732 194.618 464.546 194.101C465.365 193.584 466.323 193.325 467.418 193.325C468.084 193.325 468.729 193.435 469.354 193.656C469.978 193.876 470.539 194.221 471.036 194.692C471.532 195.164 471.924 195.775 472.211 196.528C472.498 197.276 472.641 198.184 472.641 199.255V200.069H463.263V198.348H470.391C470.391 197.744 470.268 197.209 470.022 196.743C469.776 196.272 469.431 195.901 468.985 195.629C468.545 195.358 468.028 195.222 467.434 195.222C466.789 195.222 466.225 195.381 465.744 195.699C465.268 196.011 464.899 196.421 464.638 196.927C464.382 197.429 464.254 197.975 464.254 198.563V199.907C464.254 200.696 464.392 201.367 464.669 201.92C464.95 202.473 465.342 202.895 465.844 203.187C466.346 203.474 466.932 203.617 467.603 203.617C468.038 203.617 468.435 203.555 468.793 203.433C469.152 203.305 469.461 203.115 469.722 202.864C469.984 202.613 470.183 202.304 470.321 201.935L472.495 202.327C472.321 202.967 472.009 203.527 471.558 204.009C471.113 204.485 470.552 204.856 469.876 205.122C469.205 205.383 468.44 205.514 467.58 205.514Z" fill="white"/>
<path d="M480.913 209.7V193.479H483.155V195.391H483.347C483.48 195.146 483.672 194.861 483.923 194.539C484.174 194.216 484.522 193.935 484.968 193.694C485.413 193.448 486.002 193.325 486.734 193.325C487.687 193.325 488.536 193.566 489.284 194.047C490.032 194.529 490.618 195.222 491.043 196.129C491.473 197.035 491.688 198.126 491.688 199.4C491.688 200.675 491.475 201.769 491.05 202.68C490.626 203.586 490.042 204.285 489.299 204.777C488.557 205.263 487.71 205.506 486.757 205.506C486.04 205.506 485.454 205.386 484.998 205.145C484.548 204.905 484.195 204.623 483.939 204.3C483.683 203.978 483.485 203.691 483.347 203.44H483.209V209.7H480.913ZM483.163 199.377C483.163 200.207 483.283 200.934 483.524 201.559C483.764 202.183 484.113 202.672 484.568 203.026C485.024 203.374 485.582 203.548 486.243 203.548C486.929 203.548 487.502 203.366 487.963 203.003C488.424 202.634 488.772 202.135 489.008 201.505C489.248 200.875 489.368 200.166 489.368 199.377C489.368 198.599 489.251 197.9 489.015 197.281C488.785 196.661 488.437 196.172 487.971 195.814C487.51 195.455 486.934 195.276 486.243 195.276C485.577 195.276 485.014 195.448 484.553 195.791C484.097 196.134 483.752 196.613 483.516 197.227C483.281 197.841 483.163 198.558 483.163 199.377Z" fill="white"/>
<path d="M497.694 205.537C496.946 205.537 496.27 205.399 495.666 205.122C495.062 204.841 494.583 204.434 494.23 203.901C493.882 203.369 493.708 202.716 493.708 201.943C493.708 201.277 493.836 200.729 494.092 200.299C494.348 199.869 494.693 199.528 495.129 199.278C495.564 199.027 496.05 198.837 496.588 198.709C497.126 198.581 497.673 198.484 498.232 198.417C498.938 198.335 499.512 198.269 499.952 198.218C500.392 198.161 500.712 198.072 500.912 197.949C501.112 197.826 501.211 197.626 501.211 197.35V197.296C501.211 196.625 501.022 196.106 500.643 195.737C500.269 195.368 499.711 195.184 498.969 195.184C498.196 195.184 497.586 195.356 497.141 195.699C496.701 196.037 496.396 196.413 496.227 196.828L494.069 196.336C494.325 195.619 494.699 195.041 495.19 194.6C495.687 194.155 496.258 193.832 496.903 193.633C497.548 193.428 498.226 193.325 498.938 193.325C499.409 193.325 499.908 193.382 500.436 193.494C500.968 193.602 501.465 193.802 501.926 194.093C502.392 194.385 502.773 194.803 503.07 195.345C503.367 195.883 503.516 196.582 503.516 197.442V205.276H501.273V203.663H501.181C501.032 203.96 500.81 204.252 500.513 204.539C500.216 204.825 499.834 205.063 499.368 205.253C498.902 205.442 498.344 205.537 497.694 205.537ZM498.193 203.694C498.828 203.694 499.371 203.568 499.821 203.317C500.277 203.067 500.623 202.739 500.858 202.334C501.099 201.925 501.219 201.487 501.219 201.021V199.5C501.137 199.582 500.978 199.659 500.743 199.731C500.513 199.797 500.249 199.856 499.952 199.907C499.655 199.953 499.366 199.997 499.084 200.038C498.802 200.074 498.567 200.104 498.377 200.13C497.932 200.186 497.525 200.281 497.156 200.414C496.793 200.547 496.501 200.739 496.281 200.99C496.066 201.236 495.958 201.564 495.958 201.973C495.958 202.542 496.168 202.972 496.588 203.264C497.008 203.55 497.543 203.694 498.193 203.694Z" fill="white"/>
<path d="M506.574 205.276V193.479H508.794V195.353H508.917C509.132 194.718 509.511 194.219 510.053 193.855C510.601 193.487 511.221 193.302 511.912 193.302C512.055 193.302 512.224 193.307 512.419 193.318C512.619 193.328 512.775 193.341 512.887 193.356V195.553C512.795 195.527 512.631 195.499 512.396 195.468C512.16 195.432 511.925 195.414 511.689 195.414C511.146 195.414 510.663 195.53 510.238 195.76C509.818 195.985 509.485 196.3 509.239 196.705C508.993 197.104 508.871 197.56 508.871 198.072V205.276H506.574Z" fill="white"/>
<path d="M518.202 205.537C517.455 205.537 516.779 205.399 516.174 205.122C515.57 204.841 515.092 204.434 514.738 203.901C514.39 203.369 514.216 202.716 514.216 201.943C514.216 201.277 514.344 200.729 514.6 200.299C514.856 199.869 515.202 199.528 515.637 199.278C516.072 199.027 516.558 198.837 517.096 198.709C517.634 198.581 518.182 198.484 518.74 198.417C519.446 198.335 520.02 198.269 520.46 198.218C520.9 198.161 521.22 198.072 521.42 197.949C521.62 197.826 521.72 197.626 521.72 197.35V197.296C521.72 196.625 521.53 196.106 521.151 195.737C520.778 195.368 520.219 195.184 519.477 195.184C518.704 195.184 518.095 195.356 517.649 195.699C517.209 196.037 516.904 196.413 516.735 196.828L514.577 196.336C514.833 195.619 515.207 195.041 515.698 194.6C516.195 194.155 516.766 193.832 517.411 193.633C518.056 193.428 518.735 193.325 519.446 193.325C519.917 193.325 520.417 193.382 520.944 193.494C521.476 193.602 521.973 193.802 522.434 194.093C522.9 194.385 523.281 194.803 523.578 195.345C523.875 195.883 524.024 196.582 524.024 197.442V205.276H521.781V203.663H521.689C521.54 203.96 521.318 204.252 521.021 204.539C520.724 204.825 520.342 205.063 519.876 205.253C519.41 205.442 518.852 205.537 518.202 205.537ZM518.701 203.694C519.336 203.694 519.879 203.568 520.329 203.317C520.785 203.067 521.131 202.739 521.366 202.334C521.607 201.925 521.727 201.487 521.727 201.021V199.5C521.645 199.582 521.487 199.659 521.251 199.731C521.021 199.797 520.757 199.856 520.46 199.907C520.163 199.953 519.874 199.997 519.592 200.038C519.311 200.074 519.075 200.104 518.886 200.13C518.44 200.186 518.033 200.281 517.664 200.414C517.301 200.547 517.009 200.739 516.789 200.99C516.574 201.236 516.466 201.564 516.466 201.973C516.466 202.542 516.676 202.972 517.096 203.264C517.516 203.55 518.051 203.694 518.701 203.694Z" fill="white"/>
<path d="M536.239 205.537C535.492 205.537 534.816 205.399 534.212 205.122C533.607 204.841 533.129 204.434 532.775 203.901C532.427 203.369 532.253 202.716 532.253 201.943C532.253 201.277 532.381 200.729 532.637 200.299C532.893 199.869 533.239 199.528 533.674 199.278C534.109 199.027 534.596 198.837 535.133 198.709C535.671 198.581 536.219 198.484 536.777 198.417C537.483 198.335 538.057 198.269 538.497 198.218C538.937 198.161 539.257 198.072 539.457 197.949C539.657 197.826 539.757 197.626 539.757 197.35V197.296C539.757 196.625 539.567 196.106 539.188 195.737C538.815 195.368 538.256 195.184 537.514 195.184C536.741 195.184 536.132 195.356 535.686 195.699C535.246 196.037 534.941 196.413 534.772 196.828L532.614 196.336C532.87 195.619 533.244 195.041 533.735 194.6C534.232 194.155 534.803 193.832 535.448 193.633C536.093 193.428 536.772 193.325 537.483 193.325C537.954 193.325 538.454 193.382 538.981 193.494C539.513 193.602 540.01 193.802 540.471 194.093C540.937 194.385 541.318 194.803 541.615 195.345C541.912 195.883 542.061 196.582 542.061 197.442V205.276H539.818V203.663H539.726C539.577 203.96 539.355 204.252 539.058 204.539C538.761 204.825 538.379 205.063 537.913 205.253C537.448 205.442 536.889 205.537 536.239 205.537ZM536.738 203.694C537.373 203.694 537.916 203.568 538.367 203.317C538.822 203.067 539.168 202.739 539.403 202.334C539.644 201.925 539.764 201.487 539.764 201.021V199.5C539.682 199.582 539.524 199.659 539.288 199.731C539.058 199.797 538.794 199.856 538.497 199.907C538.2 199.953 537.911 199.997 537.629 200.038C537.348 200.074 537.112 200.104 536.923 200.13C536.477 200.186 536.07 200.281 535.702 200.414C535.338 200.547 535.046 200.739 534.826 200.99C534.611 201.236 534.503 201.564 534.503 201.973C534.503 202.542 534.713 202.972 535.133 203.264C535.553 203.55 536.088 203.694 536.738 203.694Z" fill="white"/>
<path d="M247.625 222.359L245.544 222.728C245.457 222.461 245.318 222.208 245.129 221.967C244.945 221.727 244.694 221.53 244.376 221.376C244.059 221.222 243.662 221.146 243.186 221.146C242.535 221.146 241.993 221.292 241.558 221.583C241.122 221.87 240.905 222.241 240.905 222.697C240.905 223.091 241.051 223.409 241.342 223.649C241.634 223.89 242.105 224.087 242.756 224.241L244.63 224.671C245.715 224.922 246.524 225.308 247.057 225.831C247.589 226.353 247.855 227.031 247.855 227.866C247.855 228.572 247.651 229.202 247.241 229.755C246.836 230.303 246.271 230.733 245.544 231.045C244.822 231.358 243.984 231.514 243.032 231.514C241.711 231.514 240.633 231.232 239.799 230.669C238.964 230.101 238.452 229.294 238.263 228.25L240.482 227.912C240.621 228.49 240.905 228.928 241.335 229.225C241.765 229.517 242.326 229.663 243.017 229.663C243.769 229.663 244.371 229.507 244.822 229.195C245.272 228.877 245.497 228.49 245.497 228.035C245.497 227.666 245.359 227.356 245.083 227.105C244.811 226.855 244.394 226.665 243.831 226.537L241.834 226.099C240.733 225.848 239.919 225.449 239.392 224.901C238.869 224.353 238.608 223.66 238.608 222.82C238.608 222.124 238.803 221.514 239.192 220.992C239.581 220.47 240.119 220.063 240.805 219.771C241.491 219.474 242.277 219.325 243.163 219.325C244.438 219.325 245.441 219.602 246.173 220.155C246.906 220.703 247.389 221.437 247.625 222.359Z" fill="white"/>
<path d="M255.465 231.514C254.302 231.514 253.301 231.266 252.462 230.769C251.627 230.267 250.982 229.563 250.526 228.657C250.076 227.746 249.85 226.678 249.85 225.454C249.85 224.246 250.076 223.181 250.526 222.259C250.982 221.338 251.617 220.618 252.431 220.101C253.25 219.584 254.208 219.325 255.303 219.325C255.969 219.325 256.614 219.435 257.239 219.656C257.863 219.876 258.424 220.221 258.921 220.692C259.417 221.164 259.809 221.775 260.096 222.528C260.382 223.276 260.526 224.184 260.526 225.255V226.069H251.148V224.348H258.276C258.276 223.744 258.153 223.209 257.907 222.743C257.661 222.272 257.315 221.901 256.87 221.629C256.43 221.358 255.913 221.222 255.319 221.222C254.673 221.222 254.11 221.381 253.629 221.699C253.153 222.011 252.784 222.421 252.523 222.927C252.267 223.429 252.139 223.975 252.139 224.563V225.907C252.139 226.696 252.277 227.367 252.554 227.92C252.835 228.473 253.227 228.895 253.729 229.187C254.231 229.474 254.817 229.617 255.488 229.617C255.923 229.617 256.32 229.555 256.678 229.433C257.036 229.305 257.346 229.115 257.607 228.864C257.868 228.613 258.068 228.304 258.206 227.935L260.38 228.327C260.206 228.967 259.893 229.527 259.443 230.009C258.997 230.485 258.437 230.856 257.761 231.122C257.09 231.383 256.325 231.514 255.465 231.514Z" fill="white"/>
<path d="M268.02 235.945C267.083 235.945 266.276 235.823 265.601 235.577C264.93 235.331 264.382 235.006 263.957 234.601C263.532 234.197 263.215 233.754 263.005 233.273L264.978 232.459C265.117 232.684 265.301 232.922 265.531 233.173C265.767 233.429 266.084 233.647 266.484 233.826C266.888 234.005 267.408 234.095 268.043 234.095C268.913 234.095 269.633 233.882 270.201 233.457C270.769 233.037 271.054 232.366 271.054 231.445V229.125H270.908C270.769 229.376 270.57 229.655 270.309 229.963C270.053 230.27 269.699 230.536 269.249 230.761C268.798 230.987 268.212 231.099 267.49 231.099C266.558 231.099 265.718 230.882 264.971 230.446C264.228 230.006 263.64 229.358 263.204 228.503C262.774 227.643 262.559 226.586 262.559 225.331C262.559 224.077 262.772 223.002 263.197 222.106C263.627 221.21 264.216 220.524 264.963 220.047C265.711 219.566 266.558 219.325 267.505 219.325C268.237 219.325 268.829 219.448 269.279 219.694C269.73 219.935 270.081 220.216 270.332 220.539C270.588 220.861 270.785 221.146 270.923 221.391H271.092V219.479H273.342V231.537C273.342 232.551 273.107 233.383 272.636 234.033C272.165 234.683 271.527 235.165 270.723 235.477C269.925 235.789 269.023 235.945 268.02 235.945ZM267.997 229.195C268.657 229.195 269.215 229.041 269.671 228.734C270.132 228.421 270.48 227.976 270.716 227.397C270.956 226.814 271.077 226.115 271.077 225.301C271.077 224.507 270.959 223.808 270.723 223.204C270.488 222.6 270.142 222.129 269.686 221.791C269.231 221.448 268.668 221.276 267.997 221.276C267.306 221.276 266.73 221.455 266.269 221.814C265.808 222.167 265.46 222.648 265.224 223.258C264.994 223.867 264.879 224.548 264.879 225.301C264.879 226.074 264.996 226.752 265.232 227.336C265.467 227.92 265.816 228.375 266.276 228.703C266.742 229.031 267.316 229.195 267.997 229.195Z" fill="white"/>
<path d="M283.895 226.384V219.479H286.199V231.276H283.941V229.233H283.818C283.547 229.863 283.112 230.388 282.512 230.807C281.919 231.222 281.179 231.429 280.293 231.429C279.535 231.429 278.864 231.263 278.281 230.93C277.702 230.592 277.246 230.093 276.914 229.433C276.586 228.772 276.422 227.955 276.422 226.983V219.479H278.718V226.706C278.718 227.51 278.941 228.15 279.387 228.626C279.832 229.102 280.411 229.34 281.122 229.34C281.552 229.34 281.98 229.233 282.405 229.018C282.835 228.803 283.191 228.478 283.472 228.042C283.759 227.607 283.9 227.054 283.895 226.384Z" fill="white"/>
<path d="M289.285 231.276V219.479H291.504V221.353H291.627C291.842 220.718 292.221 220.219 292.764 219.855C293.312 219.487 293.931 219.302 294.622 219.302C294.766 219.302 294.935 219.307 295.129 219.318C295.329 219.328 295.485 219.341 295.598 219.356V221.553C295.506 221.527 295.342 221.499 295.106 221.468C294.871 221.432 294.635 221.414 294.4 221.414C293.857 221.414 293.373 221.53 292.948 221.76C292.528 221.985 292.195 222.3 291.95 222.705C291.704 223.104 291.581 223.56 291.581 224.072V231.276H289.285Z" fill="white"/>
<path d="M300.912 231.537C300.165 231.537 299.489 231.399 298.885 231.122C298.281 230.841 297.802 230.434 297.449 229.901C297.1 229.369 296.926 228.716 296.926 227.943C296.926 227.277 297.054 226.729 297.31 226.299C297.566 225.869 297.912 225.528 298.347 225.278C298.782 225.027 299.269 224.837 299.806 224.709C300.344 224.581 300.892 224.484 301.45 224.417C302.157 224.335 302.73 224.269 303.17 224.218C303.611 224.161 303.931 224.072 304.13 223.949C304.33 223.826 304.43 223.626 304.43 223.35V223.296C304.43 222.625 304.241 222.106 303.862 221.737C303.488 221.368 302.93 221.184 302.187 221.184C301.414 221.184 300.805 221.356 300.359 221.699C299.919 222.037 299.614 222.413 299.445 222.828L297.287 222.336C297.543 221.619 297.917 221.041 298.409 220.6C298.905 220.155 299.476 219.832 300.121 219.633C300.766 219.428 301.445 219.325 302.157 219.325C302.628 219.325 303.127 219.382 303.654 219.494C304.187 219.602 304.683 219.802 305.144 220.093C305.61 220.385 305.992 220.803 306.289 221.345C306.586 221.883 306.734 222.582 306.734 223.442V231.276H304.491V229.663H304.399C304.251 229.96 304.028 230.252 303.731 230.539C303.434 230.825 303.053 231.063 302.587 231.253C302.121 231.442 301.563 231.537 300.912 231.537ZM301.412 229.694C302.047 229.694 302.589 229.568 303.04 229.317C303.496 229.067 303.841 228.739 304.077 228.334C304.317 227.925 304.438 227.487 304.438 227.021V225.5C304.356 225.582 304.197 225.659 303.961 225.731C303.731 225.797 303.467 225.856 303.17 225.907C302.873 225.953 302.584 225.997 302.303 226.038C302.021 226.074 301.785 226.104 301.596 226.13C301.151 226.186 300.743 226.281 300.375 226.414C300.011 226.547 299.719 226.739 299.499 226.99C299.284 227.236 299.177 227.564 299.177 227.973C299.177 228.542 299.387 228.972 299.806 229.264C300.226 229.55 300.761 229.694 301.412 229.694Z" fill="white"/>
<path d="M312.089 224.271V231.276H309.793V219.479H311.997V221.399H312.143C312.414 220.774 312.839 220.273 313.418 219.894C314.001 219.515 314.736 219.325 315.622 219.325C316.426 219.325 317.13 219.494 317.734 219.832C318.338 220.165 318.807 220.662 319.14 221.322C319.472 221.983 319.639 222.799 319.639 223.772V231.276H317.342V224.049C317.342 223.194 317.12 222.526 316.674 222.044C316.229 221.558 315.617 221.315 314.839 221.315C314.306 221.315 313.833 221.43 313.418 221.66C313.008 221.891 312.683 222.229 312.442 222.674C312.207 223.114 312.089 223.647 312.089 224.271Z" fill="white"/>
<path d="M327.688 231.514C326.546 231.514 325.563 231.255 324.738 230.738C323.919 230.216 323.289 229.497 322.849 228.58C322.409 227.664 322.189 226.614 322.189 225.431C322.189 224.233 322.414 223.176 322.865 222.259C323.315 221.338 323.95 220.618 324.769 220.101C325.588 219.584 326.554 219.325 327.665 219.325C328.561 219.325 329.359 219.492 330.061 219.825C330.762 220.152 331.328 220.613 331.758 221.207C332.193 221.801 332.452 222.495 332.534 223.288H330.299C330.176 222.735 329.894 222.259 329.454 221.86C329.019 221.461 328.435 221.261 327.703 221.261C327.063 221.261 326.502 221.43 326.021 221.768C325.545 222.101 325.174 222.577 324.907 223.196C324.641 223.811 324.508 224.538 324.508 225.377C324.508 226.238 324.639 226.98 324.9 227.605C325.161 228.229 325.53 228.713 326.006 229.056C326.487 229.399 327.053 229.571 327.703 229.571C328.138 229.571 328.533 229.491 328.886 229.333C329.244 229.169 329.544 228.936 329.784 228.634C330.03 228.332 330.202 227.968 330.299 227.543H332.534C332.452 228.306 332.204 228.987 331.789 229.586C331.374 230.185 330.819 230.656 330.122 230.999C329.431 231.342 328.62 231.514 327.688 231.514ZM326.858 231.214H328.364L328.241 231.844C328.686 231.916 329.075 232.095 329.408 232.382C329.741 232.669 329.907 233.101 329.907 233.68C329.912 234.371 329.613 234.932 329.009 235.362C328.41 235.792 327.542 236.007 326.405 236.007L326.359 234.724C326.892 234.724 327.322 234.647 327.649 234.494C327.982 234.34 328.151 234.092 328.156 233.749C328.161 233.406 328.033 233.165 327.772 233.027C327.516 232.889 327.107 232.791 326.543 232.735L326.858 231.214Z" fill="white"/>
<path d="M338.423 231.537C337.675 231.537 336.999 231.399 336.395 231.122C335.791 230.841 335.312 230.434 334.959 229.901C334.611 229.369 334.437 228.716 334.437 227.943C334.437 227.277 334.565 226.729 334.821 226.299C335.077 225.869 335.422 225.528 335.858 225.278C336.293 225.027 336.779 224.837 337.317 224.709C337.854 224.581 338.402 224.484 338.96 224.417C339.667 224.335 340.24 224.269 340.681 224.218C341.121 224.161 341.441 224.072 341.641 223.949C341.84 223.826 341.94 223.626 341.94 223.35V223.296C341.94 222.625 341.751 222.106 341.372 221.737C340.998 221.368 340.44 221.184 339.698 221.184C338.925 221.184 338.315 221.356 337.87 221.699C337.429 222.037 337.125 222.413 336.956 222.828L334.798 222.336C335.054 221.619 335.427 221.041 335.919 220.6C336.416 220.155 336.987 219.832 337.632 219.633C338.277 219.428 338.955 219.325 339.667 219.325C340.138 219.325 340.637 219.382 341.165 219.494C341.697 219.602 342.194 219.802 342.655 220.093C343.121 220.385 343.502 220.803 343.799 221.345C344.096 221.883 344.244 222.582 344.244 223.442V231.276H342.002V229.663H341.91C341.761 229.96 341.538 230.252 341.241 230.539C340.944 230.825 340.563 231.063 340.097 231.253C339.631 231.442 339.073 231.537 338.423 231.537ZM338.922 229.694C339.557 229.694 340.1 229.568 340.55 229.317C341.006 229.067 341.352 228.739 341.587 228.334C341.828 227.925 341.948 227.487 341.948 227.021V225.5C341.866 225.582 341.707 225.659 341.472 225.731C341.241 225.797 340.978 225.856 340.681 225.907C340.384 225.953 340.094 225.997 339.813 226.038C339.531 226.074 339.296 226.104 339.106 226.13C338.661 226.186 338.254 226.281 337.885 226.414C337.522 226.547 337.23 226.739 337.01 226.99C336.795 227.236 336.687 227.564 336.687 227.973C336.687 228.542 336.897 228.972 337.317 229.264C337.737 229.55 338.272 229.694 338.922 229.694Z" fill="white"/>
<path d="M353.027 235.7V219.479H355.269V221.391H355.461C355.595 221.146 355.787 220.861 356.037 220.539C356.288 220.216 356.636 219.935 357.082 219.694C357.527 219.448 358.116 219.325 358.848 219.325C359.801 219.325 360.651 219.566 361.398 220.047C362.146 220.529 362.732 221.222 363.157 222.129C363.587 223.035 363.802 224.126 363.802 225.4C363.802 226.675 363.59 227.769 363.165 228.68C362.74 229.586 362.156 230.285 361.414 230.777C360.671 231.263 359.824 231.506 358.871 231.506C358.155 231.506 357.568 231.386 357.113 231.145C356.662 230.905 356.309 230.623 356.053 230.3C355.797 229.978 355.6 229.691 355.461 229.44H355.323V235.7H353.027ZM355.277 225.377C355.277 226.207 355.397 226.934 355.638 227.559C355.879 228.183 356.227 228.672 356.683 229.026C357.138 229.374 357.696 229.548 358.357 229.548C359.043 229.548 359.616 229.366 360.077 229.003C360.538 228.634 360.886 228.135 361.122 227.505C361.362 226.875 361.483 226.166 361.483 225.377C361.483 224.599 361.365 223.9 361.129 223.281C360.899 222.661 360.551 222.172 360.085 221.814C359.624 221.455 359.048 221.276 358.357 221.276C357.691 221.276 357.128 221.448 356.667 221.791C356.212 222.134 355.866 222.613 355.63 223.227C355.395 223.841 355.277 224.558 355.277 225.377Z" fill="white"/>
<path d="M373.848 226.384V219.479H376.152V231.276H373.894V229.233H373.771C373.5 229.863 373.065 230.388 372.465 230.807C371.872 231.222 371.132 231.429 370.246 231.429C369.488 231.429 368.817 231.263 368.234 230.93C367.655 230.592 367.199 230.093 366.867 229.433C366.539 228.772 366.375 227.955 366.375 226.983V219.479H368.671V226.706C368.671 227.51 368.894 228.15 369.34 228.626C369.785 229.102 370.364 229.34 371.075 229.34C371.505 229.34 371.933 229.233 372.358 229.018C372.788 228.803 373.144 228.478 373.426 228.042C373.712 227.607 373.853 227.054 373.848 226.384ZM370.33 217.905L372.128 214.364H374.547L372.166 217.905H370.33Z" fill="white"/>
<path d="M379.422 231.276V215.547H381.718V221.391H381.857C381.99 221.146 382.182 220.861 382.433 220.539C382.683 220.216 383.032 219.935 383.477 219.694C383.922 219.448 384.511 219.325 385.243 219.325C386.196 219.325 387.046 219.566 387.793 220.047C388.541 220.529 389.127 221.222 389.552 222.129C389.982 223.035 390.197 224.126 390.197 225.4C390.197 226.675 389.985 227.769 389.56 228.68C389.135 229.586 388.551 230.285 387.809 230.777C387.066 231.263 386.219 231.506 385.267 231.506C384.55 231.506 383.963 231.386 383.508 231.145C383.057 230.905 382.704 230.623 382.448 230.3C382.192 229.978 381.995 229.691 381.857 229.44H381.665V231.276H379.422ZM381.672 225.377C381.672 226.207 381.793 226.934 382.033 227.559C382.274 228.183 382.622 228.672 383.078 229.026C383.533 229.374 384.091 229.548 384.752 229.548C385.438 229.548 386.012 229.366 386.472 229.003C386.933 228.634 387.281 228.135 387.517 227.505C387.758 226.875 387.878 226.166 387.878 225.377C387.878 224.599 387.76 223.9 387.525 223.281C387.294 222.661 386.946 222.172 386.48 221.814C386.019 221.455 385.443 221.276 384.752 221.276C384.086 221.276 383.523 221.448 383.062 221.791C382.607 222.134 382.261 222.613 382.025 223.227C381.79 223.841 381.672 224.558 381.672 225.377Z" fill="white"/>
<path d="M395.072 215.547V231.276H392.776V215.547H395.072Z" fill="white"/>
<path d="M398.162 231.276V219.479H400.458V231.276H398.162ZM399.321 217.659C398.922 217.659 398.579 217.526 398.292 217.259C398.011 216.988 397.87 216.665 397.87 216.292C397.87 215.913 398.011 215.59 398.292 215.324C398.579 215.053 398.922 214.917 399.321 214.917C399.721 214.917 400.061 215.053 400.343 215.324C400.63 215.59 400.773 215.913 400.773 216.292C400.773 216.665 400.63 216.988 400.343 217.259C400.061 217.526 399.721 217.659 399.321 217.659Z" fill="white"/>
<path d="M408.517 231.514C407.375 231.514 406.392 231.255 405.567 230.738C404.748 230.216 404.118 229.497 403.678 228.58C403.238 227.664 403.018 226.614 403.018 225.431C403.018 224.233 403.243 223.176 403.693 222.259C404.144 221.338 404.779 220.618 405.598 220.101C406.417 219.584 407.382 219.325 408.494 219.325C409.39 219.325 410.188 219.492 410.89 219.825C411.591 220.152 412.157 220.613 412.587 221.207C413.022 221.801 413.281 222.495 413.363 223.288H411.128C411.005 222.735 410.723 222.259 410.283 221.86C409.848 221.461 409.264 221.261 408.532 221.261C407.892 221.261 407.331 221.43 406.85 221.768C406.374 222.101 406.003 222.577 405.736 223.196C405.47 223.811 405.337 224.538 405.337 225.377C405.337 226.238 405.468 226.98 405.729 227.605C405.99 228.229 406.358 228.713 406.835 229.056C407.316 229.399 407.882 229.571 408.532 229.571C408.967 229.571 409.361 229.491 409.715 229.333C410.073 229.169 410.373 228.936 410.613 228.634C410.859 228.332 411.031 227.968 411.128 227.543H413.363C413.281 228.306 413.033 228.987 412.618 229.586C412.203 230.185 411.648 230.656 410.951 230.999C410.26 231.342 409.448 231.514 408.517 231.514Z" fill="white"/>
<path d="M419.252 231.537C418.504 231.537 417.828 231.399 417.224 231.122C416.62 230.841 416.141 230.434 415.788 229.901C415.44 229.369 415.266 228.716 415.266 227.943C415.266 227.277 415.394 226.729 415.65 226.299C415.906 225.869 416.251 225.528 416.686 225.278C417.122 225.027 417.608 224.837 418.146 224.709C418.683 224.581 419.231 224.484 419.789 224.417C420.496 224.335 421.069 224.269 421.51 224.218C421.95 224.161 422.27 224.072 422.47 223.949C422.669 223.826 422.769 223.626 422.769 223.35V223.296C422.769 222.625 422.58 222.106 422.201 221.737C421.827 221.368 421.269 221.184 420.527 221.184C419.753 221.184 419.144 221.356 418.699 221.699C418.258 222.037 417.954 222.413 417.785 222.828L415.627 222.336C415.883 221.619 416.256 221.041 416.748 220.6C417.245 220.155 417.815 219.832 418.461 219.633C419.106 219.428 419.784 219.325 420.496 219.325C420.967 219.325 421.466 219.382 421.993 219.494C422.526 219.602 423.023 219.802 423.483 220.093C423.949 220.385 424.331 220.803 424.628 221.345C424.925 221.883 425.073 222.582 425.073 223.442V231.276H422.831V229.663H422.738C422.59 229.96 422.367 230.252 422.07 230.539C421.773 230.825 421.392 231.063 420.926 231.253C420.46 231.442 419.902 231.537 419.252 231.537ZM419.751 229.694C420.386 229.694 420.929 229.568 421.379 229.317C421.835 229.067 422.18 228.739 422.416 228.334C422.657 227.925 422.777 227.487 422.777 227.021V225.5C422.695 225.582 422.536 225.659 422.301 225.731C422.07 225.797 421.807 225.856 421.51 225.907C421.213 225.953 420.923 225.997 420.642 226.038C420.36 226.074 420.125 226.104 419.935 226.13C419.49 226.186 419.083 226.281 418.714 226.414C418.351 226.547 418.059 226.739 417.838 226.99C417.623 227.236 417.516 227.564 417.516 227.973C417.516 228.542 417.726 228.972 418.146 229.264C418.566 229.55 419.101 229.694 419.751 229.694Z" fill="white"/>
</svg>
