<svg width="26" height="32" viewBox="0 0 26 32" fill="none" xmlns="http://www.w3.org/2000/svg">
<path fill-rule="evenodd" clip-rule="evenodd" d="M12.8818 0.227697C14.9303 0.189383 16.4273 0.419266 18.003 1.03229C19.5394 1.607 20.9576 2.52653 22.2576 3.8292C23.597 5.09356 24.5424 6.47286 25.1333 7.92879C25.7242 9.49966 26 10.9939 26 12.9096C26 15.2084 25.803 16.128 24.8576 18.0053C24.2273 19.2697 23.203 20.8789 22.6121 21.5302C21.9818 22.2199 20.2485 23.7141 18.7515 24.7869C16.6242 26.3578 15.7576 27.3156 14.8909 29.0014C14.103 30.6106 13.5515 31.2236 13 31.2236C12.4485 31.2236 11.897 30.6106 11.1091 29.0397C10.3212 27.3922 9.45455 26.4344 7.68182 25.0934C6.38182 24.1356 4.60909 22.6796 3.78182 21.8367C2.91515 20.9938 1.73333 19.2697 1.10303 18.0053C0.19697 16.128 0 15.1701 0 12.9096C0 10.9939 0.275758 9.49966 0.866667 7.92879C1.45758 6.51118 2.40303 5.09356 3.74242 3.8292C5.00303 2.60316 6.5 1.56868 7.87879 1.0706C9.37576 0.495894 10.9515 0.227697 12.8818 0.227697ZM9.7697 12.8713C9.80909 13.6759 10.1636 14.5188 10.7152 15.0169C11.3061 15.5533 12.1333 15.8981 13 15.8981C13.9455 15.8981 14.6545 15.6299 15.2455 15.0552C15.797 14.4805 16.1515 13.6759 16.1515 12.833C16.1515 11.9134 15.8758 11.2238 15.2848 10.6491C14.6939 10.0744 13.9061 9.76786 12.9606 9.76786C12.0152 9.76786 11.2667 10.0744 10.6364 10.6491C9.96667 11.3004 9.7303 11.9134 9.7697 12.8713Z" fill="black"/>
</svg>
