<svg width="29" height="27" viewBox="0 0 29 27" fill="none" xmlns="http://www.w3.org/2000/svg">
<path d="M26.7061 0.275949C26.5191 0.201994 26.1623 0.10691 25.9131 0.06465C25.5336 0.00126028 24.5707 -0.00930468 14.3584 0.00654275L14.0469 0.14917C13.8316 0.244254 13.6844 0.360469 13.5654 0.518943C13.4352 0.698547 13.3955 0.814762 13.3785 1.08945C13.3615 1.3747 13.3842 1.47507 13.4918 1.67052C13.5711 1.80258 13.741 1.98219 14.1148 2.22518L25.6865 2.27801L25.9131 2.39422C26.0377 2.45233 26.1963 2.56326 26.2643 2.63193C26.3322 2.69532 26.4285 2.84323 26.4738 2.94888C26.5531 3.12849 26.5645 4.25365 26.5645 13.5033C26.5645 22.7529 26.5531 23.8781 26.4738 24.0524C26.4285 24.1633 26.3322 24.3112 26.2643 24.3746C26.1963 24.4433 26.0377 24.5542 25.6865 24.7285L14.1148 24.7814L13.8713 24.9398C13.741 25.0244 13.5711 25.204 13.4918 25.336C13.3842 25.5315 13.3615 25.6318 13.3785 25.9171C13.3955 26.1918 13.4352 26.308 13.5654 26.4876C13.6844 26.6461 13.8316 26.7623 14.3584 27H20.0225C25.392 27 25.7092 26.9947 26.1396 26.8996C26.3889 26.8468 26.7967 26.7042 27.0459 26.588C27.3801 26.4295 27.6123 26.271 27.9295 25.9752C28.2523 25.6688 28.4109 25.4628 28.5922 25.1247C28.7225 24.8764 28.8697 24.512 28.915 24.3059C28.9887 23.989 29 22.4624 29 13.5033C29 4.54419 28.9887 3.01755 28.915 2.70061C28.8697 2.49459 28.7338 2.14066 28.6092 1.90823C28.4676 1.63883 28.2523 1.35357 28.0201 1.11586C27.8162 0.909846 27.516 0.666852 27.3518 0.57705C27.1818 0.481966 26.893 0.344621 26.7061 0.275949Z" fill="#1A23F1"/>
<path d="M9.21543 5.85953C9.11348 5.79085 8.95488 5.7169 8.86426 5.68521C8.77363 5.65879 8.58105 5.64295 8.43945 5.65351C8.29785 5.66408 8.09394 5.7169 7.98633 5.76444C7.87871 5.81727 6.0832 7.43371 3.99883 9.35124C1.72754 11.4484 0.169922 12.9222 0.107616 13.0384C0.0453129 13.1546 0 13.3501 0 13.5033C0 13.6565 0.0453129 13.8519 0.107616 13.9628C0.169922 14.0843 1.72754 15.5582 3.99883 17.6553C6.0832 19.5728 7.87871 21.1893 7.98633 21.2421C8.1166 21.3108 8.30352 21.3425 8.52441 21.3425C8.72832 21.3425 8.93223 21.3108 9.03418 21.2579C9.12481 21.2104 9.27773 21.1048 9.36836 21.0255C9.45332 20.941 9.5666 20.7984 9.61758 20.7139C9.67422 20.6188 9.7082 20.4339 9.7082 20.2384C9.7082 20.0535 9.66855 19.8528 9.61758 19.763C9.5666 19.6785 8.48476 18.6378 7.21035 17.4598C5.9416 16.2819 4.74082 15.1778 4.54824 15.0035C4.35 14.8345 4.2084 14.676 4.21973 14.6496C4.23672 14.6284 7.44258 14.6126 18.4365 14.6126L18.6857 14.4964C18.8273 14.4277 19.0086 14.2904 19.0936 14.19C19.1842 14.0896 19.2861 13.8942 19.3258 13.7515C19.3881 13.5508 19.3881 13.4557 19.3258 13.2497C19.2861 13.1124 19.1842 12.9169 19.0936 12.8165C19.0086 12.7162 18.8273 12.5788 18.4365 12.394H11.3395C7.44258 12.394 4.23672 12.3781 4.23106 12.3517C4.21973 12.3306 5.36953 11.2477 6.79121 9.9376C8.21289 8.63283 9.44199 7.4654 9.52695 7.34919C9.61758 7.23297 9.69687 7.03224 9.71387 6.90018C9.73086 6.76811 9.71953 6.57794 9.68555 6.47758C9.65156 6.37721 9.57227 6.21874 9.50996 6.13422C9.44766 6.04441 9.31172 5.92292 9.21543 5.85953Z" fill="#1A23F1"/>
</svg>
