<svg width="29" height="27" viewBox="0 0 29 27" fill="none" xmlns="http://www.w3.org/2000/svg">
<path d="M2.29395 0.275949C2.48086 0.201994 2.8377 0.10691 3.08691 0.06465C3.46641 0.00126028 4.4293 -0.00930468 14.6416 0.00654275L14.9531 0.14917C15.1684 0.244254 15.3156 0.360469 15.4346 0.518943C15.5648 0.698547 15.6045 0.814762 15.6215 1.08945C15.6385 1.3747 15.6158 1.47507 15.5082 1.67052C15.4289 1.80258 15.259 1.98219 14.8852 2.22518L3.31348 2.27801L3.08691 2.39422C2.9623 2.45233 2.80371 2.56326 2.73574 2.63193C2.66777 2.69532 2.57148 2.84323 2.52617 2.94888C2.44687 3.12849 2.43555 4.25365 2.43555 13.5033C2.43555 22.7529 2.44687 23.8781 2.52617 24.0524C2.57148 24.1633 2.66777 24.3112 2.73574 24.3746C2.80371 24.4433 2.9623 24.5542 3.31348 24.7285L14.8852 24.7814L15.1287 24.9398C15.259 25.0244 15.4289 25.204 15.5082 25.336C15.6158 25.5315 15.6385 25.6318 15.6215 25.9171C15.6045 26.1918 15.5648 26.308 15.4346 26.4876C15.3156 26.6461 15.1684 26.7623 14.6416 27H8.97754C3.60801 27 3.29082 26.9947 2.86035 26.8996C2.61113 26.8468 2.20332 26.7042 1.9541 26.588C1.61992 26.4295 1.3877 26.271 1.07051 25.9752C0.747656 25.6688 0.589063 25.4628 0.407812 25.1247C0.277539 24.8764 0.130273 24.512 0.0849609 24.3059C0.0113281 23.989 0 22.4624 0 13.5033C0 4.54419 0.0113281 3.01755 0.0849609 2.70061C0.130273 2.49459 0.266211 2.14066 0.39082 1.90823C0.532422 1.63883 0.747656 1.35357 0.979883 1.11586C1.18379 0.909846 1.48398 0.666852 1.64824 0.57705C1.81816 0.481966 2.10703 0.344621 2.29395 0.275949Z" fill="#1A23F1"/>
<path d="M19.7846 5.85953C19.8865 5.79085 20.0451 5.7169 20.1357 5.68521C20.2264 5.65879 20.4189 5.64295 20.5605 5.65351C20.7021 5.66408 20.9061 5.7169 21.0137 5.76444C21.1213 5.81727 22.9168 7.43371 25.0012 9.35124C27.2725 11.4484 28.8301 12.9222 28.8924 13.0384C28.9547 13.1546 29 13.3501 29 13.5033C29 13.6565 28.9547 13.8519 28.8924 13.9628C28.8301 14.0843 27.2725 15.5582 25.0012 17.6553C22.9168 19.5728 21.1213 21.1893 21.0137 21.2421C20.8834 21.3108 20.6965 21.3425 20.4756 21.3425C20.2717 21.3425 20.0678 21.3108 19.9658 21.2579C19.8752 21.2104 19.7223 21.1048 19.6316 21.0255C19.5467 20.941 19.4334 20.7984 19.3824 20.7139C19.3258 20.6188 19.2918 20.4339 19.2918 20.2384C19.2918 20.0535 19.3314 19.8528 19.3824 19.763C19.4334 19.6785 20.5152 18.6378 21.7896 17.4598C23.0584 16.2819 24.2592 15.1778 24.4518 15.0035C24.65 14.8345 24.7916 14.676 24.7803 14.6496C24.7633 14.6284 21.5574 14.6126 10.5635 14.6126L10.3143 14.4964C10.1727 14.4277 9.99141 14.2904 9.90644 14.19C9.81582 14.0896 9.71387 13.8942 9.67422 13.7515C9.61191 13.5508 9.61191 13.4557 9.67422 13.2497C9.71387 13.1124 9.81582 12.9169 9.90644 12.8165C9.99141 12.7162 10.1727 12.5788 10.5635 12.394H17.6605C21.5574 12.394 24.7633 12.3781 24.7689 12.3517C24.7803 12.3306 23.6305 11.2477 22.2088 9.9376C20.7871 8.63283 19.558 7.4654 19.473 7.34919C19.3824 7.23297 19.3031 7.03224 19.2861 6.90018C19.2691 6.76811 19.2805 6.57794 19.3145 6.47758C19.3484 6.37721 19.4277 6.21874 19.49 6.13422C19.5523 6.04441 19.6883 5.92292 19.7846 5.85953Z" fill="#1A23F1"/>
</svg>
