<svg width="263" height="289" viewBox="0 0 263 289" fill="none" xmlns="http://www.w3.org/2000/svg">
<path d="M182.061 55.6949C180.955 53.564 180.032 50.1817 180.288 47.123C180.583 43.5764 180.303 39.8316 183.762 38.2999C187.362 36.7053 191.373 34.2314 193.542 29.8681C193.557 29.8343 193.576 29.8053 193.59 29.7715C196.359 24.1422 194.794 17.3292 189.894 13.4104C176.123 2.3839 141.917 -9.26596 101.097 11.381C67.8821 28.1817 57.677 55.4195 55.0919 62.6771C54.8938 63.2376 54.744 63.8126 54.6909 64.4021C54.4106 67.5236 56.2274 70.2875 59.059 71.911C61.4315 73.2736 63.8958 73.6312 66.1136 73.5152C68.0319 73.4137 69.8874 72.9112 71.5931 72.0898C70.6895 73.0948 69.5202 74.2255 68.0996 75.2499C66.2682 76.5883 64.031 77.7528 61.76 78.6516C60.6293 79.1058 59.4793 79.5117 58.4211 79.8451C57.3581 80.1833 56.3627 80.4394 55.4833 80.6375C53.7196 81.0289 52.4053 81.1884 51.4003 81.3092C50.9026 81.372 50.4532 81.43 50.1392 81.4879C49.8202 81.5459 49.5931 81.6087 49.3999 81.6764C49.0278 81.8117 48.7765 81.9856 48.5253 82.1982C48.2789 82.406 48.0711 82.6718 47.873 82.9714C47.6797 83.2661 47.4961 83.556 47.5106 83.9233C47.5251 84.2808 47.7715 84.7544 48.4431 85.1844C48.7717 85.3922 49.1969 85.5806 49.6946 85.7256C49.941 85.7981 50.2068 85.8609 50.4774 85.9092C50.7528 85.9623 51.0524 86.0107 51.381 86.0397C52.6904 86.1798 54.4396 86.1266 56.6043 85.6483C57.6819 85.4067 58.8657 85.0588 60.0688 84.5997C61.2768 84.1407 62.5041 83.5947 63.7411 82.952C64.9781 82.3094 66.2103 81.5604 67.3651 80.7245C68.5199 79.8837 69.5926 78.9512 70.5155 77.9654C71.7332 76.6801 72.6561 75.3127 73.3036 74.0612C73.1151 75.1774 72.8252 76.4144 72.3758 77.6852C71.6317 79.8306 70.4576 82.0581 69.0998 84.0924C68.4281 85.1119 67.7178 86.0976 67.0317 86.9722C66.3504 87.8565 65.6787 88.6344 65.0651 89.2964C63.8378 90.6204 62.8472 91.4998 62.0886 92.1762C61.7165 92.5097 61.3783 92.8141 61.1512 93.0412C60.9193 93.2731 60.7695 93.4519 60.6535 93.6162C60.4264 93.9399 60.3153 94.225 60.2283 94.5391C60.1462 94.8483 60.122 95.1914 60.1317 95.5441C60.1413 95.8969 60.1558 96.2351 60.3781 96.5347C60.5955 96.8198 61.0691 97.071 61.8615 97.042C62.2529 97.0275 62.7119 96.9406 63.2 96.7763C63.4415 96.6941 63.6976 96.5975 63.9489 96.4815C64.205 96.3656 64.4804 96.2399 64.7655 96.0756C65.9203 95.4475 67.3313 94.4086 68.834 92.7802C69.583 91.9685 70.3561 91.0069 71.0857 89.9439C71.8202 88.8808 72.516 87.7308 73.1683 86.4987C73.8206 85.2665 74.4053 83.9523 74.8788 82.6041C75.3523 81.256 75.7002 79.8789 75.8983 78.5405C75.9805 78.0186 76.0288 77.5064 76.0578 77.0039C79.991 98.999 81.1942 121.323 81.4454 161.863C81.4454 162.1 81.4599 162.332 81.4744 162.563C81.5662 163.936 82.1509 170.551 87.7898 175.677C93.68 181.031 100.686 180.77 101.972 180.698C102.363 180.703 102.759 180.693 103.155 180.659C130.021 178.33 171.301 172.928 188.686 167.265C192.382 166.062 194.866 162.592 194.948 158.717C195.89 114.186 191.464 81.2319 182.54 56.5889C182.424 56.2651 182.264 55.9655 182.066 55.6901L182.061 55.6949ZM149.769 169.903C147.088 170.082 144.754 167.787 144.551 164.776C144.348 161.766 146.363 159.181 149.045 159.002C151.726 158.824 154.06 161.119 154.263 164.129C154.466 167.139 152.451 169.724 149.769 169.903ZM186.903 143.806C186.864 145.072 186.019 146.212 184.729 146.719C172.465 151.532 128.175 156.316 105.156 157.934C102.31 158.133 99.9905 156.2 99.9905 153.639C99.9615 113.485 95.8205 81.4638 89.5051 58.483C98.7052 52.8344 111.114 47.6111 126.745 45.6686C149.871 42.7984 165.541 47.2003 174.664 52.53C183.661 83.4932 187.937 110.344 186.898 143.801L186.903 143.806Z" fill="white"/>
<path d="M168.175 90.2722C166.715 81.9853 164.923 74.3653 163.009 67.475C162.724 66.4506 161.792 65.7451 160.729 65.7451H153.244C151.693 65.7451 150.562 67.2092 150.958 68.7071C152.737 75.409 154.384 82.7101 155.761 90.5669C156.66 95.6936 157.366 100.627 157.921 105.353C158.076 106.677 159.298 107.609 160.617 107.411L168.146 106.285C169.407 106.097 170.296 104.937 170.146 103.671C169.639 99.3852 168.991 94.9108 168.175 90.2722Z" fill="white"/>
<path d="M123.407 67.475C123.122 66.4506 122.189 65.7451 121.126 65.7451H113.641C112.09 65.7451 110.96 67.2092 111.356 68.7071C113.134 75.409 114.782 82.7101 116.159 90.5669C117.43 97.8197 118.324 104.7 118.932 111.132C119.058 112.485 120.295 113.446 121.634 113.248L129.167 112.122C130.408 111.939 131.288 110.813 131.172 109.566C130.606 103.536 129.771 97.0804 128.572 90.2722C127.113 81.9853 125.325 74.3653 123.407 67.475Z" fill="white"/>
<path d="M74.3349 209.698H62.3178C61.0422 209.698 60.1289 210.017 59.5684 210.65C59.0079 211.287 58.6117 211.795 58.3894 212.167L38.6267 247.653L18.864 212.167C18.7142 211.795 18.318 211.287 17.685 210.65C17.0472 210.017 16.1291 209.698 14.9356 209.698H2.80737C2.05841 209.698 1.40126 209.959 0.840757 210.485C0.280249 211.012 0 211.684 0 212.505V285.497C0 286.323 0.280249 286.995 0.840757 287.517C1.40126 288.043 2.05841 288.304 2.80737 288.304H16.2837C17.1051 288.304 17.7816 288.043 18.3035 287.517C18.8253 286.99 19.0911 286.318 19.0911 285.497V243.386L31.7798 266.855C32.1519 267.527 32.6399 268.131 33.2391 268.653C33.8382 269.179 34.6597 269.44 35.7082 269.44H41.55C42.5986 269.44 43.42 269.179 44.0192 268.653C44.6183 268.131 45.0677 267.532 45.3673 266.855L58.056 243.386V285.497C58.056 286.323 58.3363 286.995 58.8968 287.517C59.4573 288.043 60.1483 288.304 60.9745 288.304H74.3397C75.1612 288.304 75.857 288.043 76.4175 287.517C76.978 286.995 77.2582 286.318 77.2582 285.497V212.505C77.2582 211.684 76.978 211.007 76.4175 210.485C75.857 209.964 75.1612 209.698 74.3397 209.698H74.3349Z" fill="white"/>
<path d="M110.721 209.698H95.6743C94.848 209.698 94.1764 209.959 93.6546 210.485C93.1279 211.012 92.8669 211.684 92.8669 212.505V285.497C92.8669 286.323 93.1279 286.995 93.6546 287.517C94.1764 288.043 94.8529 288.304 95.6743 288.304H110.721C111.542 288.304 112.219 288.043 112.741 287.517C113.263 286.99 113.528 286.318 113.528 285.497V212.505C113.528 211.684 113.267 211.007 112.741 210.485C112.214 209.964 111.542 209.698 110.721 209.698Z" fill="white"/>
<path d="M165.408 247.319L192.25 213.404C192.549 213.032 192.699 212.582 192.699 212.056C192.699 211.457 192.477 210.915 192.027 210.427C191.578 209.939 191.017 209.698 190.341 209.698H174.168C172.97 209.698 172.013 209.939 171.303 210.427C170.593 210.915 170.085 211.384 169.786 211.833L149.008 237.438V212.51C149.008 211.689 148.747 211.012 148.221 210.49C147.694 209.968 147.022 209.703 146.201 209.703H132.053C131.227 209.703 130.555 209.964 130.033 210.49C129.507 211.017 129.246 211.689 129.246 212.51V285.502C129.246 286.328 129.507 286.999 130.033 287.521C130.555 288.048 131.232 288.309 132.053 288.309H146.201C147.022 288.309 147.699 288.048 148.221 287.521C148.743 286.995 149.008 286.323 149.008 285.502V258.327L171.245 286.062C171.467 286.362 171.936 286.811 172.651 287.41C173.361 288.009 174.391 288.309 175.739 288.309H192.472C193.071 288.309 193.612 288.067 194.1 287.579C194.588 287.091 194.83 286.55 194.83 285.951C194.83 285.352 194.68 284.902 194.38 284.603L165.408 247.319Z" fill="white"/>
<path d="M261.757 272.924C261.231 272.402 260.559 272.136 259.738 272.136H223.015V256.529H256.365C257.186 256.529 257.863 256.249 258.385 255.688C258.907 255.128 259.172 254.471 259.172 253.722V243.952C259.172 243.13 258.911 242.434 258.385 241.874C257.858 241.313 257.186 241.033 256.365 241.033H223.015V225.87H258.839C259.66 225.87 260.337 225.609 260.859 225.083C261.381 224.556 261.646 223.884 261.646 223.063V212.505C261.646 211.684 261.385 211.007 260.859 210.485C260.332 209.964 259.66 209.698 258.839 209.698H206.398C205.571 209.698 204.9 209.959 204.378 210.485C203.851 211.012 203.59 211.684 203.59 212.505V285.497C203.59 286.323 203.851 286.995 204.378 287.517C204.9 288.043 205.576 288.304 206.398 288.304H259.738C260.559 288.304 261.236 288.043 261.757 287.517C262.279 286.995 262.545 286.318 262.545 285.497V274.939C262.545 274.117 262.284 273.441 261.757 272.919V272.924Z" fill="white"/>
</svg>
