<svg width="525" height="310" viewBox="0 0 525 310" fill="none" xmlns="http://www.w3.org/2000/svg">
<path d="M21.2998 91.1726C23.1111 87.6843 24.6219 82.1474 24.2027 77.1404C23.7202 71.3345 24.179 65.2043 18.5155 62.6969C12.6226 60.0866 6.05734 56.0367 2.50578 48.8941C2.48206 48.8387 2.45042 48.7912 2.4267 48.7359C-2.1057 39.5208 0.457123 28.3678 8.47778 21.9529C31.0211 3.90244 87.0154 -15.1684 153.838 18.6307C208.211 46.1335 224.917 90.7217 229.149 102.602C229.473 103.52 229.718 104.461 229.805 105.426C230.264 110.536 227.29 115.061 222.655 117.718C218.771 119.949 214.737 120.534 211.106 120.344C207.966 120.178 204.929 119.356 202.136 118.011C203.616 119.656 205.53 121.507 207.855 123.184C210.853 125.375 214.515 127.281 218.233 128.753C220.084 129.496 221.967 130.161 223.699 130.706C225.439 131.26 227.068 131.679 228.508 132.004C231.395 132.644 233.547 132.905 235.192 133.103C236.007 133.206 236.742 133.301 237.256 133.396C237.778 133.491 238.15 133.593 238.467 133.704C239.076 133.926 239.487 134.21 239.898 134.558C240.302 134.899 240.642 135.334 240.966 135.824C241.283 136.307 241.583 136.781 241.559 137.382C241.536 137.968 241.132 138.743 240.033 139.447C239.495 139.787 238.799 140.095 237.984 140.333C237.581 140.451 237.146 140.554 236.703 140.633C236.252 140.72 235.761 140.799 235.224 140.847C233.08 141.076 230.217 140.989 226.673 140.206C224.909 139.811 222.971 139.241 221.002 138.49C219.024 137.738 217.015 136.844 214.99 135.792C212.965 134.74 210.948 133.514 209.058 132.146C207.167 130.77 205.411 129.243 203.9 127.629C201.907 125.525 200.396 123.287 199.336 121.238C199.645 123.065 200.119 125.09 200.855 127.171C202.073 130.683 203.995 134.329 206.218 137.659C207.317 139.328 208.48 140.942 209.603 142.373C210.719 143.821 211.818 145.094 212.823 146.178C214.832 148.345 216.453 149.785 217.695 150.892C218.304 151.438 218.858 151.937 219.23 152.308C219.609 152.688 219.855 152.981 220.044 153.25C220.416 153.78 220.598 154.246 220.74 154.76C220.875 155.267 220.915 155.828 220.899 156.406C220.883 156.983 220.859 157.537 220.495 158.027C220.139 158.494 219.364 158.905 218.067 158.858C217.426 158.834 216.675 158.692 215.876 158.423C215.48 158.288 215.061 158.13 214.65 157.94C214.231 157.75 213.78 157.545 213.313 157.276C211.423 156.247 209.113 154.547 206.653 151.881C205.427 150.552 204.161 148.978 202.967 147.238C201.765 145.498 200.626 143.615 199.558 141.598C198.49 139.581 197.533 137.43 196.758 135.223C195.982 133.016 195.413 130.762 195.089 128.571C194.954 127.716 194.875 126.878 194.828 126.055C188.389 162.061 186.419 198.605 186.008 264.969C186.008 265.357 185.984 265.737 185.961 266.116C185.81 268.363 184.853 279.191 175.622 287.584C165.98 296.348 154.511 295.921 152.407 295.802C151.766 295.81 151.117 295.794 150.469 295.739C106.49 291.926 38.9152 283.083 10.4553 273.813C4.40417 271.843 0.338455 266.164 0.203979 259.82C-1.33846 186.922 5.90706 132.977 20.5167 92.6359C20.7065 92.106 20.9675 91.6155 21.2918 91.1647L21.2998 91.1726ZM74.1618 278.131C78.5518 278.424 82.3723 274.667 82.7045 269.739C83.0367 264.811 79.7383 260.579 75.3483 260.287C70.9583 259.994 67.1378 263.751 66.8055 268.679C66.4733 273.607 69.7717 277.839 74.1618 278.131ZM13.374 235.41C13.4373 237.482 14.8215 239.349 16.9335 240.18C37.0089 248.058 109.511 255.889 147.194 258.539C151.853 258.863 155.65 255.699 155.65 251.507C155.697 185.775 162.476 133.356 172.814 95.7366C157.754 86.4899 137.441 77.9393 111.853 74.7595C73.9956 70.061 48.3438 77.2669 33.4098 85.9916C18.6816 136.678 11.6813 180.634 13.3819 235.402L13.374 235.41Z" fill="white"/>
<path d="M34.9017 147.776C37.2905 134.211 40.2251 121.737 43.3574 110.457C43.8241 108.78 45.3507 107.625 47.0909 107.625H59.3434C61.8825 107.625 63.7334 110.022 63.0848 112.474C60.1739 123.445 57.4766 135.397 55.2223 148.259C53.7511 156.651 52.5962 164.727 51.6866 172.463C51.4335 174.63 49.4323 176.157 47.2729 175.833L34.9492 173.99C32.8847 173.681 31.4293 171.783 31.6745 169.71C32.505 162.694 33.565 155.37 34.9017 147.776Z" fill="white"/>
<path d="M108.187 110.457C108.654 108.78 110.18 107.625 111.921 107.625H124.173C126.712 107.625 128.563 110.022 127.914 112.474C125.004 123.445 122.306 135.397 120.052 148.259C117.972 160.131 116.508 171.395 115.512 181.923C115.306 184.138 113.281 185.712 111.09 185.388L98.7584 183.545C96.7255 183.244 95.2859 181.401 95.4758 179.36C96.4012 169.489 97.7696 158.921 99.7313 147.776C102.12 134.211 105.047 121.737 108.187 110.457Z" fill="white"/>
<path d="M319.656 90.645C336.396 90.645 349.248 93.615 358.212 99.555C367.176 105.387 371.658 114.999 371.658 128.391C371.658 141.891 367.122 151.665 358.05 157.713C348.978 163.653 336.018 166.623 319.17 166.623H311.232V204.207H285.96V93.561C291.468 92.481 297.3 91.725 303.456 91.293C309.612 90.861 315.012 90.645 319.656 90.645ZM321.276 112.191C319.44 112.191 317.604 112.245 315.768 112.353C314.04 112.461 312.528 112.569 311.232 112.677V145.077H319.17C327.918 145.077 334.506 143.889 338.934 141.513C343.362 139.137 345.576 134.709 345.576 128.229C345.576 125.097 344.982 122.505 343.794 120.453C342.714 118.401 341.094 116.781 338.934 115.593C336.882 114.297 334.344 113.433 331.32 113.001C328.296 112.461 324.948 112.191 321.276 112.191ZM420.024 91.941C421.968 95.505 424.182 99.933 426.666 105.225C429.258 110.409 431.904 116.079 434.604 122.235C437.412 128.283 440.166 134.493 442.866 140.865C445.566 147.237 448.104 153.231 450.48 158.847C452.856 153.231 455.394 147.237 458.094 140.865C460.794 134.493 463.494 128.283 466.194 122.235C469.002 116.079 471.648 110.409 474.132 105.225C476.724 99.933 478.992 95.505 480.936 91.941H503.94C505.02 99.393 505.992 107.763 506.856 117.051C507.828 126.231 508.638 135.843 509.286 145.887C510.042 155.823 510.69 165.813 511.23 175.857C511.878 185.901 512.418 195.351 512.85 204.207H488.226C487.902 193.299 487.47 181.419 486.93 168.567C486.39 155.715 485.58 142.755 484.5 129.687C482.556 134.223 480.396 139.245 478.02 144.753C475.644 150.261 473.268 155.769 470.892 161.277C468.624 166.785 466.41 172.077 464.25 177.153C462.09 182.121 460.254 186.387 458.742 189.951H441.084C439.572 186.387 437.736 182.121 435.576 177.153C433.416 172.077 431.148 166.785 428.772 161.277C426.504 155.769 424.182 150.261 421.806 144.753C419.43 139.245 417.27 134.223 415.326 129.687C414.246 142.755 413.436 155.715 412.896 168.567C412.356 181.419 411.924 193.299 411.6 204.207H386.976C387.408 195.351 387.894 185.901 388.434 175.857C389.082 165.813 389.73 155.823 390.378 145.887C391.134 135.843 391.944 126.231 392.808 117.051C393.78 107.763 394.806 99.393 395.886 91.941H420.024Z" fill="white"/>
<path d="M331.357 258.47C331.357 263.266 330.611 267.449 329.119 271.02C327.627 274.537 325.522 277.468 322.804 279.812C320.086 282.104 316.836 283.836 313.052 285.008C309.268 286.127 305.112 286.687 300.582 286.687C298.344 286.687 295.866 286.58 293.148 286.367C290.484 286.207 288.059 285.861 285.874 285.328V231.612C288.059 231.079 290.484 230.733 293.148 230.573C295.866 230.36 298.344 230.253 300.582 230.253C305.112 230.253 309.268 230.839 313.052 232.012C316.836 233.131 320.086 234.863 322.804 237.207C325.522 239.499 327.627 242.43 329.119 246C330.611 249.517 331.357 253.674 331.357 258.47ZM301.222 279.892C308.576 279.892 314.065 278.027 317.688 274.297C321.312 270.513 323.124 265.238 323.124 258.47C323.124 251.702 321.312 246.453 317.688 242.723C314.065 238.939 308.576 237.047 301.222 237.047C299.037 237.047 297.332 237.074 296.106 237.127C294.934 237.181 294.108 237.234 293.628 237.287V279.652C294.108 279.706 294.934 279.759 296.106 279.812C297.332 279.866 299.037 279.892 301.222 279.892ZM349.813 286.207H342.379V244.641H349.813V286.207ZM346.056 237.127C344.724 237.127 343.578 236.701 342.619 235.848C341.713 234.943 341.26 233.743 341.26 232.251C341.26 230.759 341.713 229.587 342.619 228.734C343.578 227.828 344.724 227.375 346.056 227.375C347.388 227.375 348.507 227.828 349.413 228.734C350.373 229.587 350.852 230.759 350.852 232.251C350.852 233.743 350.373 234.943 349.413 235.848C348.507 236.701 347.388 237.127 346.056 237.127ZM388.655 282.05C388.016 282.477 386.764 283.036 384.899 283.729C383.087 284.369 380.955 284.688 378.504 284.688C375.999 284.688 373.628 284.289 371.39 283.489C369.205 282.69 367.286 281.464 365.634 279.812C363.982 278.107 362.677 276.002 361.718 273.497C360.758 270.993 360.279 268.009 360.279 264.545C360.279 261.507 360.732 258.736 361.638 256.232C362.544 253.674 363.849 251.489 365.554 249.677C367.313 247.812 369.445 246.373 371.949 245.361C374.454 244.295 377.278 243.762 380.422 243.762C383.886 243.762 386.897 244.028 389.455 244.561C392.066 245.041 394.251 245.494 396.009 245.92V283.01C396.009 289.404 394.357 294.041 391.053 296.918C387.75 299.796 382.74 301.235 376.026 301.235C373.415 301.235 370.937 301.022 368.592 300.595C366.301 300.169 364.302 299.663 362.597 299.076L363.956 292.602C365.448 293.188 367.26 293.694 369.391 294.121C371.576 294.6 373.841 294.84 376.186 294.84C380.609 294.84 383.779 293.961 385.698 292.202C387.67 290.444 388.655 287.646 388.655 283.809V282.05ZM388.576 251.196C387.829 250.983 386.817 250.796 385.538 250.636C384.312 250.423 382.634 250.317 380.502 250.317C376.505 250.317 373.415 251.622 371.23 254.233C369.098 256.845 368.032 260.308 368.032 264.625C368.032 267.023 368.326 269.074 368.912 270.78C369.551 272.485 370.377 273.897 371.39 275.016C372.455 276.135 373.654 276.961 374.987 277.494C376.372 278.027 377.784 278.294 379.223 278.294C381.195 278.294 383.007 278.027 384.659 277.494C386.311 276.908 387.616 276.242 388.576 275.496V251.196ZM416.243 286.207H408.809V244.641H416.243V286.207ZM412.486 237.127C411.154 237.127 410.008 236.701 409.049 235.848C408.143 234.943 407.69 233.743 407.69 232.251C407.69 230.759 408.143 229.587 409.049 228.734C410.008 227.828 411.154 227.375 412.486 227.375C413.818 227.375 414.937 227.828 415.843 228.734C416.802 229.587 417.282 230.759 417.282 232.251C417.282 233.743 416.802 234.943 415.843 235.848C414.937 236.701 413.818 237.127 412.486 237.127ZM435.981 244.641H451.728V250.876H435.981V270.06C435.981 272.139 436.141 273.871 436.461 275.256C436.78 276.588 437.26 277.654 437.899 278.453C438.539 279.199 439.338 279.732 440.297 280.052C441.257 280.372 442.376 280.532 443.655 280.532C445.893 280.532 447.678 280.292 449.01 279.812C450.396 279.279 451.355 278.906 451.888 278.693L453.327 284.848C452.581 285.221 451.275 285.674 449.41 286.207C447.545 286.793 445.413 287.086 443.015 287.086C440.191 287.086 437.846 286.74 435.981 286.047C434.169 285.301 432.704 284.209 431.585 282.77C430.465 281.331 429.666 279.572 429.187 277.494C428.76 275.363 428.547 272.911 428.547 270.14V233.051L435.981 231.772V244.641ZM475.256 280.851C477.015 280.851 478.56 280.825 479.892 280.771C481.278 280.665 482.424 280.505 483.33 280.292V267.902C482.797 267.636 481.917 267.422 480.692 267.263C479.519 267.049 478.08 266.943 476.375 266.943C475.256 266.943 474.057 267.023 472.778 267.183C471.553 267.343 470.407 267.689 469.341 268.222C468.329 268.701 467.476 269.394 466.783 270.3C466.09 271.153 465.744 272.298 465.744 273.737C465.744 276.402 466.597 278.267 468.302 279.333C470.007 280.345 472.325 280.851 475.256 280.851ZM474.617 243.602C477.601 243.602 480.105 244.002 482.13 244.801C484.209 245.547 485.861 246.64 487.086 248.078C488.365 249.464 489.271 251.143 489.804 253.114C490.337 255.033 490.604 257.164 490.604 259.509V285.488C489.964 285.594 489.058 285.754 487.886 285.967C486.767 286.127 485.488 286.287 484.049 286.447C482.61 286.607 481.038 286.74 479.333 286.847C477.681 287.006 476.029 287.086 474.377 287.086C472.032 287.086 469.874 286.847 467.902 286.367C465.93 285.887 464.225 285.141 462.786 284.129C461.348 283.063 460.229 281.677 459.429 279.972C458.63 278.267 458.23 276.215 458.23 273.817C458.23 271.526 458.683 269.554 459.589 267.902C460.548 266.25 461.827 264.918 463.426 263.905C465.025 262.893 466.89 262.147 469.021 261.667C471.153 261.188 473.391 260.948 475.736 260.948C476.482 260.948 477.255 261.001 478.054 261.108C478.853 261.161 479.599 261.268 480.292 261.427C481.038 261.534 481.678 261.641 482.21 261.747C482.743 261.854 483.116 261.934 483.33 261.987V259.909C483.33 258.683 483.196 257.484 482.93 256.312C482.663 255.086 482.184 254.02 481.491 253.114C480.798 252.155 479.839 251.409 478.613 250.876C477.441 250.29 475.896 249.997 473.977 249.997C471.526 249.997 469.368 250.183 467.503 250.556C465.691 250.876 464.332 251.222 463.426 251.595L462.547 245.441C463.506 245.014 465.104 244.615 467.343 244.242C469.581 243.815 472.005 243.602 474.617 243.602ZM515.42 287.006C510.837 286.9 507.586 285.914 505.668 284.049C503.75 282.184 502.79 279.279 502.79 275.336V225.457L510.224 224.178V274.137C510.224 275.363 510.331 276.375 510.544 277.174C510.757 277.974 511.104 278.613 511.583 279.093C512.063 279.572 512.702 279.946 513.502 280.212C514.301 280.425 515.287 280.612 516.459 280.771L515.42 287.006Z" fill="white"/>
</svg>
