<svg width="323" height="246" viewBox="0 0 323 246" fill="none" xmlns="http://www.w3.org/2000/svg">
<path d="M12.8217 54.8822C13.9121 52.7824 14.8215 49.4494 14.5692 46.4354C14.2787 42.9405 14.5549 39.2504 11.1457 37.741C7.5984 36.1697 3.64639 33.7318 1.5085 29.4322C1.49422 29.3989 1.47517 29.3703 1.46089 29.337C-1.26743 23.7899 0.275284 17.0763 5.10341 13.2147C18.6735 2.34911 52.3799 -9.13075 92.6046 11.2149C125.335 27.7705 135.391 54.6108 137.938 61.7625C138.134 62.3148 138.281 62.8814 138.334 63.4623C138.61 66.5382 136.819 69.2618 134.029 70.8616C131.691 72.2044 129.263 72.5567 127.078 72.4424C125.187 72.3425 123.359 71.8473 121.678 71.0378C122.568 72.0282 123.721 73.1424 125.121 74.1518C126.925 75.4707 129.13 76.6182 131.368 77.5039C132.482 77.9514 133.615 78.3514 134.658 78.6799C135.705 79.0133 136.686 79.2656 137.553 79.4608C139.291 79.8465 140.586 80.0036 141.576 80.1227C142.067 80.1846 142.509 80.2417 142.819 80.2988C143.133 80.356 143.357 80.4179 143.547 80.4845C143.914 80.6179 144.162 80.7893 144.409 80.9988C144.652 81.2035 144.857 81.4654 145.052 81.7606C145.242 82.0511 145.423 82.3367 145.409 82.6986C145.395 83.051 145.152 83.5176 144.49 83.9414C144.166 84.1461 143.747 84.3318 143.257 84.4746C143.014 84.5461 142.752 84.608 142.486 84.6556C142.214 84.7079 141.919 84.7556 141.595 84.7841C140.305 84.9222 138.581 84.8698 136.448 84.3984C135.386 84.1604 134.22 83.8176 133.034 83.3652C131.844 82.9129 130.634 82.3748 129.415 81.7416C128.196 81.1083 126.982 80.3703 125.844 79.5465C124.706 78.718 123.649 77.7991 122.74 76.8277C121.54 75.5612 120.631 74.2137 119.992 72.9805C120.178 74.0804 120.464 75.2993 120.907 76.5516C121.64 78.6657 122.797 80.8607 124.135 82.8653C124.797 83.8699 125.497 84.8413 126.173 85.7031C126.844 86.5744 127.506 87.341 128.111 87.9933C129.32 89.298 130.296 90.1646 131.044 90.8312C131.41 91.1597 131.744 91.4597 131.968 91.6835C132.196 91.912 132.344 92.0882 132.458 92.2501C132.682 92.5691 132.791 92.85 132.877 93.1595C132.958 93.4643 132.982 93.8023 132.972 94.1499C132.963 94.4975 132.948 94.8308 132.729 95.126C132.515 95.4069 132.048 95.6545 131.268 95.626C130.882 95.6117 130.43 95.526 129.949 95.3641C129.711 95.2831 129.458 95.1879 129.211 95.0736C128.958 94.9594 128.687 94.8356 128.406 94.6737C127.268 94.0547 125.878 93.031 124.397 91.4264C123.659 90.6264 122.897 89.6789 122.178 88.6314C121.454 87.5839 120.769 86.4506 120.126 85.2365C119.483 84.0223 118.907 82.7272 118.44 81.3987C117.974 80.0703 117.631 78.7133 117.436 77.3944C117.355 76.8801 117.307 76.3754 117.278 75.8802C113.403 97.5543 112.217 119.552 111.969 159.501C111.969 159.734 111.955 159.963 111.941 160.191C111.85 161.544 111.274 168.062 105.718 173.114C99.9134 178.39 93.0093 178.132 91.7428 178.061C91.3571 178.066 90.9667 178.056 90.5762 178.023C64.1026 175.728 23.4255 170.405 6.29376 164.824C2.65126 163.639 0.203857 160.22 0.12291 156.401C-0.805573 112.52 3.55592 80.0465 12.3503 55.7631C12.4646 55.4441 12.6217 55.1489 12.8169 54.8774L12.8217 54.8822ZM44.6425 167.424C47.2851 167.6 49.5849 165.338 49.7849 162.372C49.9849 159.406 47.9993 156.858 45.3567 156.682C42.7141 156.506 40.4143 158.768 40.2143 161.734C40.0144 164.7 41.9999 167.248 44.6425 167.424ZM8.05074 141.707C8.08882 142.955 8.92209 144.078 10.1934 144.578C22.278 149.321 65.9214 154.035 88.605 155.63C91.4095 155.825 93.695 153.92 93.695 151.397C93.7236 111.829 97.8041 80.275 104.027 57.6296C94.9615 52.0634 82.7341 46.9163 67.3308 45.0022C44.5425 42.1739 29.1011 46.5116 20.1115 51.7635C11.2457 82.2748 7.03177 108.734 8.05548 141.703L8.05074 141.707Z" fill="white"/>
<path d="M21.0096 88.9553C22.4476 80.7894 24.2141 73.2806 26.0996 66.4907C26.3805 65.4813 27.2995 64.7861 28.347 64.7861H35.7225C37.2509 64.7861 38.3651 66.2288 37.9747 67.7049C36.2225 74.309 34.5988 81.5036 33.2418 89.2457C32.3562 94.2976 31.661 99.159 31.1134 103.816C30.9611 105.12 29.7564 106.039 28.4565 105.844L21.0382 104.735C19.7955 104.549 18.9193 103.406 19.0669 102.159C19.5669 97.9354 20.2049 93.5263 21.0096 88.9553Z" fill="white"/>
<path d="M65.1243 66.4907C65.4052 65.4813 66.3241 64.7861 67.3717 64.7861H74.7472C76.2756 64.7861 77.3898 66.2288 76.9993 67.7049C75.2471 74.309 73.6235 81.5036 72.2664 89.2457C71.0142 96.3926 70.1333 103.173 69.5334 109.51C69.4096 110.844 68.1906 111.791 66.8717 111.596L59.4486 110.487C58.2249 110.306 57.3583 109.196 57.4726 107.968C58.0297 102.025 58.8534 95.6641 60.0343 88.9553C61.4722 80.7894 63.234 73.2806 65.1243 66.4907Z" fill="white"/>
<path d="M8.01478 213.481C6.95857 213.481 6.04215 213.318 5.26553 212.992C4.4889 212.666 3.85207 212.223 3.35503 211.664C2.85799 211.089 2.4852 210.414 2.23668 209.637C2.0037 208.86 1.8872 208.022 1.8872 207.121V196.986H4.14718V206.864C4.14718 208.48 4.50443 209.653 5.21893 210.383C5.93343 211.113 6.86538 211.478 8.01478 211.478C8.58949 211.478 9.10983 211.392 9.5758 211.221C10.0573 211.035 10.4689 210.755 10.8106 210.383C11.1524 210.01 11.4164 209.536 11.6028 208.961C11.7892 208.371 11.8824 207.672 11.8824 206.864V196.986H14.1424V207.121C14.1424 208.022 14.0181 208.86 13.7696 209.637C13.5366 210.414 13.1638 211.089 12.6512 211.664C12.1542 212.223 11.5174 212.666 10.7407 212.992C9.97965 213.318 9.071 213.481 8.01478 213.481ZM17.9046 201.366C18.4016 201.242 19.054 201.11 19.8617 200.97C20.6849 200.83 21.6324 200.76 22.7041 200.76C23.4808 200.76 24.1331 200.869 24.6612 201.086C25.1893 201.288 25.632 201.591 25.9893 201.995C26.098 201.917 26.2688 201.809 26.5018 201.669C26.7348 201.529 27.0222 201.397 27.3639 201.273C27.7056 201.133 28.0861 201.016 28.5055 200.923C28.9249 200.815 29.3753 200.76 29.8569 200.76C30.7888 200.76 31.5499 200.9 32.1401 201.18C32.7304 201.444 33.1886 201.824 33.5148 202.321C33.8565 202.818 34.0817 203.408 34.1904 204.092C34.3147 204.775 34.3768 205.521 34.3768 206.329V213.132H32.21V206.795C32.21 206.08 32.1712 205.467 32.0935 204.954C32.0314 204.441 31.8994 204.014 31.6975 203.673C31.5111 203.331 31.247 203.082 30.9053 202.927C30.5791 202.756 30.152 202.671 29.6239 202.671C28.8938 202.671 28.2881 202.772 27.8066 202.974C27.3406 203.16 27.0222 203.331 26.8513 203.486C26.9756 203.89 27.0688 204.333 27.1309 204.814C27.193 205.296 27.2241 205.8 27.2241 206.329V213.132H25.0573V206.795C25.0573 206.08 25.0185 205.467 24.9408 204.954C24.8631 204.441 24.7234 204.014 24.5214 203.673C24.335 203.331 24.071 203.082 23.7293 202.927C23.4031 202.756 22.9837 202.671 22.4711 202.671C22.2537 202.671 22.0207 202.678 21.7722 202.694C21.5237 202.71 21.2829 202.733 21.0499 202.764C20.8325 202.779 20.6305 202.803 20.4441 202.834C20.2578 202.865 20.1335 202.888 20.0714 202.904V213.132H17.9046V201.366ZM46.184 211.571C47.0694 211.571 47.7217 211.454 48.1411 211.221C48.576 210.988 48.7935 210.616 48.7935 210.103C48.7935 209.575 48.5838 209.156 48.1644 208.845C47.745 208.534 47.0538 208.185 46.0908 207.796C45.6249 207.61 45.1744 207.424 44.7395 207.237C44.3201 207.035 43.9551 206.802 43.6445 206.538C43.3338 206.274 43.0853 205.956 42.8989 205.583C42.7125 205.21 42.6193 204.752 42.6193 204.208C42.6193 203.137 43.0154 202.29 43.8075 201.669C44.5997 201.032 45.6792 200.714 47.0461 200.714C47.3878 200.714 47.7295 200.737 48.0712 200.783C48.4129 200.815 48.7314 200.861 49.0265 200.923C49.3216 200.97 49.5779 201.024 49.7953 201.086C50.0283 201.148 50.207 201.203 50.3312 201.249L49.9351 203.113C49.7021 202.989 49.3371 202.865 48.8401 202.741C48.343 202.601 47.745 202.531 47.0461 202.531C46.4403 202.531 45.9122 202.655 45.4618 202.904C45.0113 203.137 44.7861 203.509 44.7861 204.022C44.7861 204.286 44.8327 204.519 44.9259 204.721C45.0346 204.923 45.1899 205.109 45.3919 205.28C45.6093 205.435 45.8734 205.583 46.184 205.723C46.4947 205.863 46.8675 206.01 47.3024 206.165C47.8771 206.383 48.3896 206.6 48.8401 206.818C49.2905 207.02 49.6711 207.261 49.9817 207.54C50.3079 207.82 50.5564 208.161 50.7273 208.565C50.8981 208.954 50.9836 209.435 50.9836 210.01C50.9836 211.128 50.5642 211.975 49.7254 212.549C48.9022 213.124 47.7217 213.411 46.184 213.411C45.1123 213.411 44.2735 213.318 43.6678 213.132C43.062 212.961 42.6504 212.829 42.4329 212.736L42.829 210.872C43.0775 210.965 43.4736 211.105 44.0172 211.291C44.5609 211.478 45.2831 211.571 46.184 211.571ZM55.9297 213.132H53.7629V201.016H55.9297V213.132ZM54.8346 198.826C54.4463 198.826 54.1123 198.702 53.8328 198.454C53.5687 198.19 53.4367 197.84 53.4367 197.405C53.4367 196.97 53.5687 196.629 53.8328 196.38C54.1123 196.116 54.4463 195.984 54.8346 195.984C55.2229 195.984 55.5491 196.116 55.8132 196.38C56.0927 196.629 56.2325 196.97 56.2325 197.405C56.2325 197.84 56.0927 198.19 55.8132 198.454C55.5491 198.702 55.2229 198.826 54.8346 198.826ZM62.475 211.571C63.3603 211.571 64.0127 211.454 64.4321 211.221C64.867 210.988 65.0844 210.616 65.0844 210.103C65.0844 209.575 64.8748 209.156 64.4554 208.845C64.036 208.534 63.3448 208.185 62.3818 207.796C61.9158 207.61 61.4654 207.424 61.0305 207.237C60.6111 207.035 60.2461 206.802 59.9354 206.538C59.6248 206.274 59.3762 205.956 59.1898 205.583C59.0035 205.21 58.9103 204.752 58.9103 204.208C58.9103 203.137 59.3063 202.29 60.0985 201.669C60.8907 201.032 61.9702 200.714 63.337 200.714C63.6787 200.714 64.0205 200.737 64.3622 200.783C64.7039 200.815 65.0223 200.861 65.3174 200.923C65.6125 200.97 65.8688 201.024 66.0863 201.086C66.3193 201.148 66.4979 201.203 66.6222 201.249L66.2261 203.113C65.9931 202.989 65.6281 202.865 65.131 202.741C64.634 202.601 64.036 202.531 63.337 202.531C62.7313 202.531 62.2032 202.655 61.7527 202.904C61.3023 203.137 61.077 203.509 61.077 204.022C61.077 204.286 61.1236 204.519 61.2168 204.721C61.3256 204.923 61.4809 205.109 61.6828 205.28C61.9003 205.435 62.1643 205.583 62.475 205.723C62.7856 205.863 63.1584 206.01 63.5933 206.165C64.168 206.383 64.6806 206.6 65.131 206.818C65.5815 207.02 65.962 207.261 66.2727 207.54C66.5989 207.82 66.8474 208.161 67.0182 208.565C67.1891 208.954 67.2745 209.435 67.2745 210.01C67.2745 211.128 66.8551 211.975 66.0164 212.549C65.1932 213.124 64.0127 213.411 62.475 213.411C61.4032 213.411 60.5645 213.318 59.9587 213.132C59.3529 212.961 58.9413 212.829 58.7239 212.736L59.12 210.872C59.3685 210.965 59.7646 211.105 60.3082 211.291C60.8518 211.478 61.5741 211.571 62.475 211.571ZM72.0808 201.016H76.6707V202.834H72.0808V208.425C72.0808 209.031 72.1274 209.536 72.2206 209.94C72.3138 210.328 72.4536 210.639 72.64 210.872C72.8264 211.089 73.0594 211.245 73.339 211.338C73.6185 211.431 73.9447 211.478 74.3175 211.478C74.9699 211.478 75.4902 211.408 75.8785 211.268C76.2824 211.113 76.562 211.004 76.7173 210.942L77.1367 212.736C76.9192 212.844 76.5387 212.977 75.995 213.132C75.4514 213.303 74.8301 213.388 74.1311 213.388C73.3079 213.388 72.6245 213.287 72.0808 213.085C71.5527 212.868 71.1256 212.549 70.7994 212.13C70.4732 211.711 70.2402 211.198 70.1004 210.592C69.9762 209.971 69.914 209.256 69.914 208.449V197.638L72.0808 197.265V201.016ZM78.5247 207.097C78.5247 206.026 78.6801 205.094 78.9907 204.302C79.3014 203.494 79.713 202.826 80.2256 202.298C80.7381 201.77 81.3284 201.374 81.9963 201.11C82.6642 200.846 83.3476 200.714 84.0466 200.714C85.6775 200.714 86.9278 201.226 87.7977 202.251C88.6675 203.261 89.1024 204.806 89.1024 206.888C89.1024 206.981 89.1024 207.105 89.1024 207.261C89.1024 207.4 89.0946 207.532 89.0791 207.657H80.7847C80.8779 208.915 81.2429 209.87 81.8798 210.522C82.5166 211.175 83.5107 211.501 84.862 211.501C85.6231 211.501 86.2599 211.439 86.7725 211.315C87.3006 211.175 87.6967 211.043 87.9608 210.918L88.2636 212.736C87.9996 212.876 87.5336 213.023 86.8657 213.178C86.2133 213.334 85.4678 213.411 84.629 213.411C83.5728 213.411 82.6564 213.256 81.8798 212.945C81.1187 212.619 80.4896 212.177 79.9926 211.617C79.4955 211.058 79.1228 210.398 78.8742 209.637C78.6412 208.86 78.5247 208.014 78.5247 207.097ZM86.8424 205.909C86.8579 204.931 86.6094 204.131 86.0969 203.509C85.5998 202.873 84.9086 202.554 84.0233 202.554C83.5262 202.554 83.0835 202.655 82.6952 202.857C82.3225 203.043 82.004 203.292 81.74 203.603C81.4759 203.913 81.2662 204.271 81.1109 204.674C80.9711 205.078 80.8779 205.49 80.8313 205.909H86.8424ZM92.215 201.366C92.712 201.242 93.3644 201.11 94.1721 200.97C94.9953 200.83 95.9428 200.76 97.0145 200.76C97.7911 200.76 98.4435 200.869 98.9716 201.086C99.4997 201.288 99.9424 201.591 100.3 201.995C100.408 201.917 100.579 201.809 100.812 201.669C101.045 201.529 101.333 201.397 101.674 201.273C102.016 201.133 102.397 201.016 102.816 200.923C103.235 200.815 103.686 200.76 104.167 200.76C105.099 200.76 105.86 200.9 106.451 201.18C107.041 201.444 107.499 201.824 107.825 202.321C108.167 202.818 108.392 203.408 108.501 204.092C108.625 204.775 108.687 205.521 108.687 206.329V213.132H106.52V206.795C106.52 206.08 106.482 205.467 106.404 204.954C106.342 204.441 106.21 204.014 106.008 203.673C105.821 203.331 105.557 203.082 105.216 202.927C104.89 202.756 104.462 202.671 103.934 202.671C103.204 202.671 102.598 202.772 102.117 202.974C101.651 203.16 101.333 203.331 101.162 203.486C101.286 203.89 101.379 204.333 101.441 204.814C101.503 205.296 101.534 205.8 101.534 206.329V213.132H99.3677V206.795C99.3677 206.08 99.3289 205.467 99.2512 204.954C99.1735 204.441 99.0337 204.014 98.8318 203.673C98.6454 203.331 98.3814 203.082 98.0397 202.927C97.7135 202.756 97.2941 202.671 96.7815 202.671C96.5641 202.671 96.3311 202.678 96.0826 202.694C95.834 202.71 95.5933 202.733 95.3603 202.764C95.1429 202.779 94.9409 202.803 94.7545 202.834C94.5681 202.865 94.4439 202.888 94.3818 202.904V213.132H92.215V201.366ZM116.383 211.571C116.896 211.571 117.346 211.563 117.735 211.548C118.139 211.516 118.473 211.47 118.737 211.408V207.796C118.581 207.719 118.325 207.657 117.968 207.61C117.626 207.548 117.207 207.517 116.71 207.517C116.383 207.517 116.034 207.54 115.661 207.587C115.304 207.633 114.97 207.734 114.659 207.89C114.364 208.029 114.116 208.231 113.914 208.495C113.712 208.744 113.611 209.078 113.611 209.497C113.611 210.274 113.859 210.817 114.356 211.128C114.854 211.423 115.529 211.571 116.383 211.571ZM116.197 200.714C117.067 200.714 117.797 200.83 118.387 201.063C118.993 201.281 119.474 201.599 119.832 202.018C120.204 202.422 120.469 202.911 120.624 203.486C120.779 204.045 120.857 204.667 120.857 205.35V212.922C120.67 212.953 120.406 213 120.065 213.062C119.738 213.109 119.366 213.155 118.946 213.202C118.527 213.248 118.069 213.287 117.572 213.318C117.09 213.365 116.609 213.388 116.127 213.388C115.444 213.388 114.815 213.318 114.24 213.178C113.665 213.039 113.168 212.821 112.749 212.526C112.329 212.215 112.003 211.812 111.77 211.315C111.537 210.817 111.421 210.219 111.421 209.521C111.421 208.853 111.553 208.278 111.817 207.796C112.096 207.315 112.469 206.927 112.935 206.631C113.401 206.336 113.945 206.119 114.566 205.979C115.187 205.839 115.84 205.769 116.523 205.769C116.741 205.769 116.966 205.785 117.199 205.816C117.432 205.832 117.649 205.863 117.851 205.909C118.069 205.94 118.255 205.971 118.41 206.002C118.566 206.033 118.675 206.057 118.737 206.072V205.467C118.737 205.109 118.698 204.76 118.62 204.418C118.542 204.061 118.403 203.75 118.201 203.486C117.999 203.207 117.719 202.989 117.362 202.834C117.02 202.663 116.57 202.577 116.011 202.577C115.296 202.577 114.667 202.632 114.123 202.741C113.595 202.834 113.199 202.935 112.935 203.043L112.679 201.249C112.959 201.125 113.425 201.009 114.077 200.9C114.729 200.776 115.436 200.714 116.197 200.714ZM132.015 213.132H129.848V201.016H132.015V213.132ZM130.92 198.826C130.531 198.826 130.197 198.702 129.918 198.454C129.654 198.19 129.522 197.84 129.522 197.405C129.522 196.97 129.654 196.629 129.918 196.38C130.197 196.116 130.531 195.984 130.92 195.984C131.308 195.984 131.634 196.116 131.898 196.38C132.178 196.629 132.318 196.97 132.318 197.405C132.318 197.84 132.178 198.19 131.898 198.454C131.634 198.702 131.308 198.826 130.92 198.826ZM135.741 201.366C136.238 201.242 136.898 201.11 137.721 200.97C138.545 200.83 139.492 200.76 140.564 200.76C141.527 200.76 142.327 200.9 142.964 201.18C143.6 201.444 144.105 201.824 144.478 202.321C144.866 202.803 145.138 203.385 145.293 204.069C145.449 204.752 145.526 205.505 145.526 206.329V213.132H143.36V206.795C143.36 206.049 143.305 205.412 143.197 204.884C143.103 204.356 142.94 203.929 142.707 203.603C142.474 203.276 142.164 203.043 141.775 202.904C141.387 202.748 140.905 202.671 140.331 202.671C140.098 202.671 139.857 202.678 139.609 202.694C139.36 202.71 139.119 202.733 138.886 202.764C138.669 202.779 138.467 202.803 138.281 202.834C138.11 202.865 137.985 202.888 137.908 202.904V213.132H135.741V201.366ZM151.147 201.016H155.736V202.834H151.147V208.425C151.147 209.031 151.193 209.536 151.286 209.94C151.38 210.328 151.519 210.639 151.706 210.872C151.892 211.089 152.125 211.245 152.405 211.338C152.684 211.431 153.01 211.478 153.383 211.478C154.036 211.478 154.556 211.408 154.944 211.268C155.348 211.113 155.628 211.004 155.783 210.942L156.202 212.736C155.985 212.844 155.604 212.977 155.061 213.132C154.517 213.303 153.896 213.388 153.197 213.388C152.374 213.388 151.69 213.287 151.147 213.085C150.618 212.868 150.191 212.549 149.865 212.13C149.539 211.711 149.306 211.198 149.166 210.592C149.042 209.971 148.98 209.256 148.98 208.449V197.638L151.147 197.265V201.016ZM157.59 207.097C157.59 206.026 157.746 205.094 158.056 204.302C158.367 203.494 158.779 202.826 159.291 202.298C159.804 201.77 160.394 201.374 161.062 201.11C161.73 200.846 162.413 200.714 163.112 200.714C164.743 200.714 165.994 201.226 166.863 202.251C167.733 203.261 168.168 204.806 168.168 206.888C168.168 206.981 168.168 207.105 168.168 207.261C168.168 207.4 168.16 207.532 168.145 207.657H159.85C159.944 208.915 160.309 209.87 160.945 210.522C161.582 211.175 162.576 211.501 163.928 211.501C164.689 211.501 165.326 211.439 165.838 211.315C166.366 211.175 166.762 211.043 167.026 210.918L167.329 212.736C167.065 212.876 166.599 213.023 165.931 213.178C165.279 213.334 164.533 213.411 163.695 213.411C162.639 213.411 161.722 213.256 160.945 212.945C160.184 212.619 159.555 212.177 159.058 211.617C158.561 211.058 158.188 210.398 157.94 209.637C157.707 208.86 157.59 208.014 157.59 207.097ZM165.908 205.909C165.924 204.931 165.675 204.131 165.163 203.509C164.666 202.873 163.974 202.554 163.089 202.554C162.592 202.554 162.149 202.655 161.761 202.857C161.388 203.043 161.07 203.292 160.806 203.603C160.542 203.913 160.332 204.271 160.177 204.674C160.037 205.078 159.944 205.49 159.897 205.909H165.908ZM174.915 213.365C173.58 213.334 172.632 213.046 172.073 212.503C171.514 211.959 171.234 211.113 171.234 209.963V195.425L173.401 195.052V209.614C173.401 209.971 173.432 210.266 173.494 210.499C173.556 210.732 173.657 210.918 173.797 211.058C173.937 211.198 174.123 211.307 174.356 211.384C174.589 211.447 174.876 211.501 175.218 211.548L174.915 213.365ZM179.818 213.132H177.651V201.016H179.818V213.132ZM178.723 198.826C178.335 198.826 178.001 198.702 177.721 198.454C177.457 198.19 177.325 197.84 177.325 197.405C177.325 196.97 177.457 196.629 177.721 196.38C178.001 196.116 178.335 195.984 178.723 195.984C179.112 195.984 179.438 196.116 179.702 196.38C179.981 196.629 180.121 196.97 180.121 197.405C180.121 197.84 179.981 198.19 179.702 198.454C179.438 198.702 179.112 198.826 178.723 198.826ZM191.14 211.92C190.953 212.045 190.588 212.208 190.045 212.41C189.517 212.596 188.895 212.689 188.181 212.689C187.451 212.689 186.76 212.573 186.107 212.34C185.47 212.107 184.911 211.749 184.43 211.268C183.948 210.771 183.568 210.157 183.288 209.427C183.009 208.697 182.869 207.827 182.869 206.818C182.869 205.933 183.001 205.125 183.265 204.395C183.529 203.649 183.909 203.012 184.406 202.484C184.919 201.941 185.54 201.521 186.27 201.226C187 200.916 187.824 200.76 188.74 200.76C189.75 200.76 190.627 200.838 191.373 200.993C192.134 201.133 192.771 201.265 193.283 201.389V212.2C193.283 214.064 192.802 215.415 191.839 216.254C190.876 217.093 189.416 217.512 187.459 217.512C186.698 217.512 185.975 217.45 185.292 217.326C184.624 217.201 184.041 217.054 183.544 216.883L183.94 214.996C184.375 215.167 184.904 215.314 185.525 215.438C186.162 215.578 186.822 215.648 187.505 215.648C188.794 215.648 189.719 215.392 190.278 214.879C190.852 214.367 191.14 213.551 191.14 212.433V211.92ZM191.117 202.927C190.899 202.865 190.604 202.81 190.231 202.764C189.874 202.702 189.385 202.671 188.763 202.671C187.598 202.671 186.698 203.051 186.061 203.812C185.439 204.573 185.129 205.583 185.129 206.841C185.129 207.54 185.214 208.138 185.385 208.635C185.571 209.132 185.812 209.544 186.107 209.87C186.418 210.196 186.767 210.437 187.156 210.592C187.56 210.748 187.971 210.825 188.391 210.825C188.965 210.825 189.493 210.748 189.975 210.592C190.456 210.421 190.837 210.227 191.117 210.01V202.927ZM196.338 207.097C196.338 206.026 196.494 205.094 196.804 204.302C197.115 203.494 197.527 202.826 198.039 202.298C198.552 201.77 199.142 201.374 199.81 201.11C200.478 200.846 201.161 200.714 201.86 200.714C203.491 200.714 204.741 201.226 205.611 202.251C206.481 203.261 206.916 204.806 206.916 206.888C206.916 206.981 206.916 207.105 206.916 207.261C206.916 207.4 206.908 207.532 206.893 207.657H198.598C198.692 208.915 199.057 209.87 199.693 210.522C200.33 211.175 201.324 211.501 202.676 211.501C203.437 211.501 204.074 211.439 204.586 211.315C205.114 211.175 205.51 211.043 205.774 210.918L206.077 212.736C205.813 212.876 205.347 213.023 204.679 213.178C204.027 213.334 203.281 213.411 202.443 213.411C201.386 213.411 200.47 213.256 199.693 212.945C198.932 212.619 198.303 212.177 197.806 211.617C197.309 211.058 196.936 210.398 196.688 209.637C196.455 208.86 196.338 208.014 196.338 207.097ZM204.656 205.909C204.672 204.931 204.423 204.131 203.91 203.509C203.413 202.873 202.722 202.554 201.837 202.554C201.34 202.554 200.897 202.655 200.509 202.857C200.136 203.043 199.818 203.292 199.554 203.603C199.29 203.913 199.08 204.271 198.925 204.674C198.785 205.078 198.692 205.49 198.645 205.909H204.656ZM210.029 201.366C210.526 201.242 211.186 201.11 212.009 200.97C212.832 200.83 213.78 200.76 214.851 200.76C215.814 200.76 216.614 200.9 217.251 201.18C217.888 201.444 218.393 201.824 218.766 202.321C219.154 202.803 219.426 203.385 219.581 204.069C219.736 204.752 219.814 205.505 219.814 206.329V213.132H217.647V206.795C217.647 206.049 217.593 205.412 217.484 204.884C217.391 204.356 217.228 203.929 216.995 203.603C216.762 203.276 216.451 203.043 216.063 202.904C215.675 202.748 215.193 202.671 214.618 202.671C214.385 202.671 214.145 202.678 213.896 202.694C213.648 202.71 213.407 202.733 213.174 202.764C212.956 202.779 212.755 202.803 212.568 202.834C212.397 202.865 212.273 202.888 212.195 202.904V213.132H210.029V201.366ZM225.434 201.016H230.024V202.834H225.434V208.425C225.434 209.031 225.481 209.536 225.574 209.94C225.667 210.328 225.807 210.639 225.993 210.872C226.18 211.089 226.413 211.245 226.692 211.338C226.972 211.431 227.298 211.478 227.671 211.478C228.323 211.478 228.844 211.408 229.232 211.268C229.636 211.113 229.915 211.004 230.071 210.942L230.49 212.736C230.273 212.844 229.892 212.977 229.348 213.132C228.805 213.303 228.183 213.388 227.484 213.388C226.661 213.388 225.978 213.287 225.434 213.085C224.906 212.868 224.479 212.549 224.153 212.13C223.827 211.711 223.594 211.198 223.454 210.592C223.33 209.971 223.267 209.256 223.267 208.449V197.638L225.434 197.265V201.016ZM231.878 207.097C231.878 206.026 232.033 205.094 232.344 204.302C232.655 203.494 233.066 202.826 233.579 202.298C234.092 201.77 234.682 201.374 235.35 201.11C236.018 200.846 236.701 200.714 237.4 200.714C239.031 200.714 240.281 201.226 241.151 202.251C242.021 203.261 242.456 204.806 242.456 206.888C242.456 206.981 242.456 207.105 242.456 207.261C242.456 207.4 242.448 207.532 242.432 207.657H234.138C234.231 208.915 234.596 209.87 235.233 210.522C235.87 211.175 236.864 211.501 238.215 211.501C238.976 211.501 239.613 211.439 240.126 211.315C240.654 211.175 241.05 211.043 241.314 210.918L241.617 212.736C241.353 212.876 240.887 213.023 240.219 213.178C239.567 213.334 238.821 213.411 237.982 213.411C236.926 213.411 236.01 213.256 235.233 212.945C234.472 212.619 233.843 212.177 233.346 211.617C232.849 211.058 232.476 210.398 232.228 209.637C231.995 208.86 231.878 208.014 231.878 207.097ZM240.196 205.909C240.211 204.931 239.963 204.131 239.45 203.509C238.953 202.873 238.262 202.554 237.377 202.554C236.88 202.554 236.437 202.655 236.049 202.857C235.676 203.043 235.357 203.292 235.093 203.603C234.829 203.913 234.62 204.271 234.464 204.674C234.324 205.078 234.231 205.49 234.185 205.909H240.196ZM259.372 207.097C259.372 205.684 259.022 204.597 258.323 203.836C257.624 203.075 256.692 202.694 255.527 202.694C254.875 202.694 254.362 202.717 253.99 202.764C253.632 202.81 253.345 202.865 253.128 202.927V210.569C253.392 210.786 253.772 210.996 254.269 211.198C254.766 211.4 255.31 211.501 255.9 211.501C256.521 211.501 257.049 211.392 257.484 211.175C257.935 210.942 258.3 210.631 258.579 210.243C258.859 209.839 259.061 209.373 259.185 208.845C259.309 208.301 259.372 207.719 259.372 207.097ZM261.632 207.097C261.632 208.014 261.507 208.86 261.259 209.637C261.026 210.414 260.676 211.082 260.21 211.641C259.744 212.2 259.17 212.635 258.486 212.945C257.818 213.256 257.049 213.411 256.18 213.411C255.481 213.411 254.859 213.318 254.316 213.132C253.788 212.945 253.392 212.767 253.128 212.596V217.442H250.961V201.389C251.473 201.265 252.11 201.133 252.871 200.993C253.648 200.838 254.541 200.76 255.551 200.76C256.483 200.76 257.321 200.908 258.067 201.203C258.812 201.498 259.449 201.917 259.977 202.461C260.505 203.005 260.909 203.673 261.189 204.465C261.484 205.241 261.632 206.119 261.632 207.097ZM268.781 211.571C269.294 211.571 269.744 211.563 270.133 211.548C270.536 211.516 270.87 211.47 271.134 211.408V207.796C270.979 207.719 270.723 207.657 270.366 207.61C270.024 207.548 269.604 207.517 269.107 207.517C268.781 207.517 268.432 207.54 268.059 207.587C267.702 207.633 267.368 207.734 267.057 207.89C266.762 208.029 266.513 208.231 266.312 208.495C266.11 208.744 266.009 209.078 266.009 209.497C266.009 210.274 266.257 210.817 266.754 211.128C267.251 211.423 267.927 211.571 268.781 211.571ZM268.595 200.714C269.465 200.714 270.195 200.83 270.785 201.063C271.391 201.281 271.872 201.599 272.229 202.018C272.602 202.422 272.866 202.911 273.022 203.486C273.177 204.045 273.255 204.667 273.255 205.35V212.922C273.068 212.953 272.804 213 272.462 213.062C272.136 213.109 271.763 213.155 271.344 213.202C270.925 213.248 270.466 213.287 269.969 213.318C269.488 213.365 269.006 213.388 268.525 213.388C267.841 213.388 267.212 213.318 266.638 213.178C266.063 213.039 265.566 212.821 265.147 212.526C264.727 212.215 264.401 211.812 264.168 211.315C263.935 210.817 263.819 210.219 263.819 209.521C263.819 208.853 263.951 208.278 264.215 207.796C264.494 207.315 264.867 206.927 265.333 206.631C265.799 206.336 266.343 206.119 266.964 205.979C267.585 205.839 268.238 205.769 268.921 205.769C269.138 205.769 269.364 205.785 269.597 205.816C269.83 205.832 270.047 205.863 270.249 205.909C270.466 205.94 270.653 205.971 270.808 206.002C270.964 206.033 271.072 206.057 271.134 206.072V205.467C271.134 205.109 271.096 204.76 271.018 204.418C270.94 204.061 270.8 203.75 270.599 203.486C270.397 203.207 270.117 202.989 269.76 202.834C269.418 202.663 268.968 202.577 268.408 202.577C267.694 202.577 267.065 202.632 266.521 202.741C265.993 202.834 265.597 202.935 265.333 203.043L265.077 201.249C265.356 201.125 265.822 201.009 266.475 200.9C267.127 200.776 267.834 200.714 268.595 200.714ZM281.327 200.76C281.513 200.76 281.723 200.776 281.956 200.807C282.204 200.822 282.445 200.853 282.678 200.9C282.911 200.931 283.121 200.97 283.307 201.016C283.509 201.048 283.657 201.079 283.75 201.11L283.377 202.997C283.206 202.935 282.919 202.865 282.515 202.787C282.127 202.694 281.622 202.647 281.001 202.647C280.597 202.647 280.193 202.694 279.789 202.787C279.401 202.865 279.144 202.919 279.02 202.95V213.132H276.853V201.529C277.366 201.343 278.003 201.172 278.764 201.016C279.525 200.846 280.379 200.76 281.327 200.76ZM289.941 211.571C290.454 211.571 290.904 211.563 291.293 211.548C291.696 211.516 292.03 211.47 292.294 211.408V207.796C292.139 207.719 291.883 207.657 291.526 207.61C291.184 207.548 290.764 207.517 290.267 207.517C289.941 207.517 289.592 207.54 289.219 207.587C288.862 207.633 288.528 207.734 288.217 207.89C287.922 208.029 287.673 208.231 287.472 208.495C287.27 208.744 287.169 209.078 287.169 209.497C287.169 210.274 287.417 210.817 287.914 211.128C288.411 211.423 289.087 211.571 289.941 211.571ZM289.755 200.714C290.625 200.714 291.355 200.83 291.945 201.063C292.551 201.281 293.032 201.599 293.389 202.018C293.762 202.422 294.026 202.911 294.182 203.486C294.337 204.045 294.415 204.667 294.415 205.35V212.922C294.228 212.953 293.964 213 293.622 213.062C293.296 213.109 292.923 213.155 292.504 213.202C292.085 213.248 291.627 213.287 291.129 213.318C290.648 213.365 290.166 213.388 289.685 213.388C289.002 213.388 288.372 213.318 287.798 213.178C287.223 213.039 286.726 212.821 286.307 212.526C285.887 212.215 285.561 211.812 285.328 211.315C285.095 210.817 284.979 210.219 284.979 209.521C284.979 208.853 285.111 208.278 285.375 207.796C285.654 207.315 286.027 206.927 286.493 206.631C286.959 206.336 287.503 206.119 288.124 205.979C288.745 205.839 289.398 205.769 290.081 205.769C290.298 205.769 290.524 205.785 290.757 205.816C290.99 205.832 291.207 205.863 291.409 205.909C291.627 205.94 291.813 205.971 291.968 206.002C292.124 206.033 292.232 206.057 292.294 206.072V205.467C292.294 205.109 292.256 204.76 292.178 204.418C292.1 204.061 291.96 203.75 291.759 203.486C291.557 203.207 291.277 202.989 290.92 202.834C290.578 202.663 290.128 202.577 289.568 202.577C288.854 202.577 288.225 202.632 287.681 202.741C287.153 202.834 286.757 202.935 286.493 203.043L286.237 201.249C286.516 201.125 286.982 201.009 287.635 200.9C288.287 200.776 288.994 200.714 289.755 200.714ZM307.506 211.571C308.019 211.571 308.469 211.563 308.858 211.548C309.262 211.516 309.595 211.47 309.86 211.408V207.796C309.704 207.719 309.448 207.657 309.091 207.61C308.749 207.548 308.33 207.517 307.833 207.517C307.506 207.517 307.157 207.54 306.784 207.587C306.427 207.633 306.093 207.734 305.782 207.89C305.487 208.029 305.239 208.231 305.037 208.495C304.835 208.744 304.734 209.078 304.734 209.497C304.734 210.274 304.982 210.817 305.479 211.128C305.976 211.423 306.652 211.571 307.506 211.571ZM307.32 200.714C308.19 200.714 308.92 200.83 309.51 201.063C310.116 201.281 310.597 201.599 310.955 202.018C311.327 202.422 311.591 202.911 311.747 203.486C311.902 204.045 311.98 204.667 311.98 205.35V212.922C311.793 212.953 311.529 213 311.188 213.062C310.861 213.109 310.489 213.155 310.069 213.202C309.65 213.248 309.192 213.287 308.695 213.318C308.213 213.365 307.732 213.388 307.25 213.388C306.567 213.388 305.938 213.318 305.363 213.178C304.788 213.039 304.291 212.821 303.872 212.526C303.452 212.215 303.126 211.812 302.893 211.315C302.66 210.817 302.544 210.219 302.544 209.521C302.544 208.853 302.676 208.278 302.94 207.796C303.219 207.315 303.592 206.927 304.058 206.631C304.524 206.336 305.068 206.119 305.689 205.979C306.31 205.839 306.963 205.769 307.646 205.769C307.864 205.769 308.089 205.785 308.322 205.816C308.555 205.832 308.772 205.863 308.974 205.909C309.192 205.94 309.378 205.971 309.533 206.002C309.689 206.033 309.797 206.057 309.86 206.072V205.467C309.86 205.109 309.821 204.76 309.743 204.418C309.665 204.061 309.526 203.75 309.324 203.486C309.122 203.207 308.842 202.989 308.485 202.834C308.143 202.663 307.693 202.577 307.134 202.577C306.419 202.577 305.79 202.632 305.246 202.741C304.718 202.834 304.322 202.935 304.058 203.043L303.802 201.249C304.081 201.125 304.547 201.009 305.2 200.9C305.852 200.776 306.559 200.714 307.32 200.714ZM4.68306 238.571C5.56841 238.571 6.22078 238.454 6.64016 238.221C7.07507 237.988 7.29252 237.616 7.29252 237.103C7.29252 236.575 7.08283 236.156 6.66345 235.845C6.24408 235.534 5.55288 235.185 4.58986 234.796C4.12389 234.61 3.67344 234.424 3.23853 234.237C2.81915 234.035 2.45414 233.802 2.14349 233.538C1.83284 233.274 1.58432 232.956 1.39793 232.583C1.21154 232.21 1.11834 231.752 1.11834 231.208C1.11834 230.137 1.51442 229.29 2.30658 228.669C3.09874 228.032 4.17825 227.714 5.54511 227.714C5.88683 227.714 6.22854 227.737 6.57026 227.783C6.91197 227.815 7.23039 227.861 7.52551 227.923C7.82063 227.97 8.07691 228.024 8.29437 228.086C8.52736 228.148 8.70598 228.203 8.83024 228.249L8.43416 230.113C8.20117 229.989 7.83616 229.865 7.33912 229.741C6.84208 229.601 6.24408 229.531 5.54511 229.531C4.93934 229.531 4.41124 229.655 3.96079 229.904C3.51035 230.137 3.28513 230.509 3.28513 231.022C3.28513 231.286 3.33173 231.519 3.42492 231.721C3.53365 231.923 3.68898 232.109 3.8909 232.28C4.10835 232.435 4.37241 232.583 4.68306 232.723C4.99371 232.863 5.36649 233.01 5.8014 233.165C6.3761 233.383 6.88868 233.6 7.33912 233.818C7.78956 234.02 8.17011 234.261 8.48076 234.54C8.80694 234.82 9.05546 235.161 9.22632 235.565C9.39718 235.954 9.48261 236.435 9.48261 237.01C9.48261 238.128 9.06323 238.975 8.22447 239.549C7.40125 240.124 6.22078 240.411 4.68306 240.411C3.61131 240.411 2.77256 240.318 2.16679 240.132C1.56102 239.961 1.14941 239.829 0.931952 239.736L1.32803 237.872C1.57655 237.965 1.97263 238.105 2.51627 238.291C3.05991 238.478 3.78217 238.571 4.68306 238.571ZM11.5862 234.097C11.5862 233.026 11.7416 232.094 12.0522 231.302C12.3629 230.494 12.7745 229.826 13.287 229.298C13.7996 228.77 14.3899 228.374 15.0578 228.11C15.7257 227.846 16.4091 227.714 17.108 227.714C18.739 227.714 19.9893 228.226 20.8592 229.251C21.729 230.261 22.1639 231.806 22.1639 233.888C22.1639 233.981 22.1639 234.105 22.1639 234.261C22.1639 234.4 22.1561 234.532 22.1406 234.657H13.8462C13.9394 235.915 14.3044 236.87 14.9413 237.522C15.5781 238.175 16.5722 238.501 17.9235 238.501C18.6846 238.501 19.3214 238.439 19.834 238.315C20.3621 238.175 20.7582 238.043 21.0222 237.918L21.3251 239.736C21.0611 239.876 20.5951 240.023 19.9272 240.178C19.2748 240.334 18.5293 240.411 17.6905 240.411C16.6343 240.411 15.7179 240.256 14.9413 239.945C14.1802 239.619 13.5511 239.177 13.0541 238.617C12.557 238.058 12.1842 237.398 11.9357 236.637C11.7027 235.86 11.5862 235.014 11.5862 234.097ZM19.9039 232.909C19.9194 231.931 19.6709 231.131 19.1583 230.509C18.6613 229.873 17.9701 229.554 17.0847 229.554C16.5877 229.554 16.145 229.655 15.7567 229.857C15.3839 230.043 15.0655 230.292 14.8015 230.603C14.5374 230.913 14.3277 231.271 14.1724 231.674C14.0326 232.078 13.9394 232.49 13.8928 232.909H19.9039ZM32.8719 238.92C32.6855 239.045 32.3205 239.208 31.7768 239.41C31.2487 239.596 30.6274 239.689 29.9129 239.689C29.1829 239.689 28.4917 239.573 27.8393 239.34C27.2025 239.107 26.6433 238.749 26.1618 238.268C25.6803 237.771 25.2998 237.157 25.0202 236.427C24.7406 235.697 24.6008 234.827 24.6008 233.818C24.6008 232.933 24.7328 232.125 24.9969 231.395C25.2609 230.649 25.6415 230.012 26.1385 229.484C26.6511 228.941 27.2724 228.521 28.0024 228.226C28.7324 227.916 29.5557 227.76 30.4721 227.76C31.4817 227.76 32.3593 227.838 33.1049 227.993C33.8659 228.133 34.5028 228.265 35.0154 228.389V239.2C35.0154 241.064 34.5338 242.415 33.5708 243.254C32.6078 244.093 31.1478 244.512 29.1907 244.512C28.4296 244.512 27.7073 244.45 27.0239 244.326C26.356 244.201 25.7735 244.054 25.2765 243.883L25.6725 241.996C26.1074 242.167 26.6356 242.314 27.2569 242.438C27.8937 242.578 28.5538 242.648 29.2373 242.648C30.5265 242.648 31.4506 242.392 32.0098 241.879C32.5845 241.367 32.8719 240.551 32.8719 239.433V238.92ZM32.8486 229.927C32.6311 229.865 32.336 229.81 31.9632 229.764C31.606 229.702 31.1167 229.671 30.4954 229.671C29.3304 229.671 28.4296 230.051 27.7927 230.812C27.1714 231.573 26.8608 232.583 26.8608 233.841C26.8608 234.54 26.9462 235.138 27.1171 235.635C27.3035 236.132 27.5442 236.544 27.8393 236.87C28.15 237.196 28.4995 237.437 28.8878 237.592C29.2916 237.748 29.7032 237.825 30.1226 237.825C30.6973 237.825 31.2254 237.748 31.7069 237.592C32.1884 237.421 32.569 237.227 32.8486 237.01V229.927ZM48.3918 239.782C47.8947 239.907 47.2346 240.039 46.4114 240.178C45.6037 240.318 44.664 240.388 43.5922 240.388C42.6603 240.388 41.8759 240.256 41.239 239.992C40.6022 239.712 40.0896 239.324 39.7013 238.827C39.313 238.33 39.0334 237.748 38.8626 237.08C38.6917 236.396 38.6063 235.643 38.6063 234.82V228.016H40.7731V234.354C40.7731 235.829 41.0061 236.886 41.472 237.522C41.938 238.159 42.7224 238.478 43.8252 238.478C44.0582 238.478 44.2989 238.47 44.5475 238.454C44.796 238.439 45.029 238.423 45.2464 238.408C45.4639 238.377 45.658 238.353 45.8289 238.338C46.0153 238.307 46.1473 238.276 46.225 238.245V228.016H48.3918V239.782ZM56.598 227.76C56.7844 227.76 56.9941 227.776 57.2271 227.807C57.4756 227.822 57.7164 227.853 57.9494 227.9C58.1824 227.931 58.392 227.97 58.5784 228.016C58.7804 228.048 58.9279 228.079 59.0211 228.11L58.6483 229.997C58.4775 229.935 58.1901 229.865 57.7863 229.787C57.398 229.694 56.8932 229.647 56.2719 229.647C55.868 229.647 55.4642 229.694 55.0603 229.787C54.672 229.865 54.4157 229.919 54.2915 229.95V240.132H52.1247V228.529C52.6372 228.343 53.2741 228.172 54.0352 228.016C54.7963 227.846 55.6506 227.76 56.598 227.76ZM65.2126 238.571C65.7252 238.571 66.1756 238.563 66.5639 238.548C66.9678 238.516 67.3017 238.47 67.5658 238.408V234.796C67.4104 234.719 67.1542 234.657 66.7969 234.61C66.4552 234.548 66.0358 234.517 65.5388 234.517C65.2126 234.517 64.8631 234.54 64.4903 234.587C64.1331 234.633 63.7991 234.734 63.4885 234.89C63.1934 235.029 62.9448 235.231 62.7429 235.495C62.541 235.744 62.44 236.078 62.44 236.497C62.44 237.274 62.6886 237.817 63.1856 238.128C63.6826 238.423 64.3583 238.571 65.2126 238.571ZM65.0262 227.714C65.896 227.714 66.626 227.83 67.2163 228.063C67.8221 228.281 68.3036 228.599 68.6608 229.018C69.0336 229.422 69.2976 229.911 69.453 230.486C69.6083 231.045 69.686 231.667 69.686 232.35V239.922C69.4996 239.953 69.2355 240 68.8938 240.062C68.5676 240.109 68.1948 240.155 67.7755 240.202C67.3561 240.248 66.8979 240.287 66.4008 240.318C65.9193 240.365 65.4378 240.388 64.9563 240.388C64.2729 240.388 63.6438 240.318 63.0691 240.178C62.4944 240.039 61.9974 239.821 61.578 239.526C61.1586 239.215 60.8324 238.812 60.5994 238.315C60.3664 237.817 60.2499 237.219 60.2499 236.521C60.2499 235.853 60.382 235.278 60.646 234.796C60.9256 234.315 61.2984 233.927 61.7644 233.631C62.2303 233.336 62.774 233.119 63.3953 232.979C64.0166 232.839 64.6689 232.769 65.3524 232.769C65.5698 232.769 65.7951 232.785 66.028 232.816C66.261 232.832 66.4785 232.863 66.6804 232.909C66.8979 232.94 67.0843 232.971 67.2396 233.002C67.3949 233.033 67.5036 233.057 67.5658 233.072V232.467C67.5658 232.109 67.5269 231.76 67.4493 231.418C67.3716 231.061 67.2318 230.75 67.0299 230.486C66.828 230.207 66.5484 229.989 66.1911 229.834C65.8494 229.663 65.399 229.577 64.8398 229.577C64.1253 229.577 63.4962 229.632 62.9526 229.741C62.4245 229.834 62.0284 229.935 61.7644 230.043L61.5081 228.249C61.7877 228.125 62.2536 228.009 62.906 227.9C63.5584 227.776 64.2651 227.714 65.0262 227.714ZM73.2847 228.366C73.7818 228.242 74.4419 228.11 75.2651 227.97C76.0883 227.83 77.0358 227.76 78.1076 227.76C79.0706 227.76 79.8705 227.9 80.5073 228.18C81.1442 228.444 81.649 228.824 82.0218 229.321C82.4101 229.803 82.6819 230.385 82.8372 231.069C82.9925 231.752 83.0702 232.505 83.0702 233.329V240.132H80.9034V233.795C80.9034 233.049 80.8491 232.412 80.7403 231.884C80.6471 231.356 80.484 230.929 80.251 230.603C80.0181 230.276 79.7074 230.043 79.3191 229.904C78.9308 229.748 78.4493 229.671 77.8746 229.671C77.6416 229.671 77.4008 229.678 77.1523 229.694C76.9038 229.71 76.663 229.733 76.43 229.764C76.2126 229.779 76.0107 229.803 75.8243 229.834C75.6534 229.865 75.5292 229.888 75.4515 229.904V240.132H73.2847V228.366ZM92.2084 240.411L91.9521 240.994C92.4026 241.211 92.7288 241.444 92.9307 241.693C93.1326 241.957 93.2336 242.337 93.2336 242.834C93.2336 243.005 93.1947 243.192 93.1171 243.394C93.0394 243.596 92.9074 243.782 92.721 243.953C92.5346 244.124 92.2861 244.263 91.9754 244.372C91.6648 244.481 91.2842 244.535 90.8338 244.535C90.4299 244.535 90.0572 244.504 89.7155 244.442C89.3893 244.38 89.1252 244.31 88.9233 244.232L89.1796 242.904C89.366 242.967 89.5601 243.021 89.7621 243.067C89.9795 243.114 90.2203 243.137 90.4843 243.137C91.0435 243.137 91.3231 242.959 91.3231 242.602C91.3231 242.431 91.2376 242.283 91.0668 242.159C90.8959 242.05 90.6552 241.934 90.3445 241.809L90.1814 241.739C90.2436 241.553 90.329 241.328 90.4377 241.064C90.5464 240.8 90.6629 240.551 90.7872 240.318C89.995 240.209 89.2961 239.984 88.6903 239.643C88.1001 239.285 87.603 238.835 87.1992 238.291C86.7953 237.748 86.4925 237.126 86.2905 236.427C86.0886 235.713 85.9876 234.936 85.9876 234.097C85.9876 233.165 86.1197 232.311 86.3837 231.535C86.6633 230.758 87.0516 230.09 87.5487 229.531C88.0457 228.956 88.6515 228.514 89.366 228.203C90.096 227.877 90.9037 227.714 91.789 227.714C92.3327 227.714 92.8763 227.76 93.42 227.853C93.9636 227.947 94.4839 228.094 94.981 228.296L94.4917 230.137C94.1655 229.981 93.785 229.857 93.3501 229.764C92.9307 229.671 92.4802 229.624 91.9987 229.624C90.7872 229.624 89.8552 230.005 89.2029 230.766C88.566 231.527 88.2476 232.637 88.2476 234.097C88.2476 234.75 88.3175 235.348 88.4573 235.891C88.6126 236.435 88.8456 236.901 89.1563 237.289C89.4825 237.678 89.8941 237.981 90.3911 238.198C90.8882 238.4 91.4939 238.501 92.2084 238.501C92.7831 238.501 93.3035 238.447 93.7694 238.338C94.2354 238.229 94.6004 238.113 94.8645 237.988L95.1674 239.806C95.0431 239.868 94.8723 239.938 94.6548 240.015C94.4529 240.077 94.2199 240.132 93.9558 240.178C93.6918 240.241 93.4044 240.287 93.0938 240.318C92.7987 240.365 92.5035 240.396 92.2084 240.411ZM101.594 238.571C102.107 238.571 102.557 238.563 102.946 238.548C103.349 238.516 103.683 238.47 103.947 238.408V234.796C103.792 234.719 103.536 234.657 103.179 234.61C102.837 234.548 102.417 234.517 101.92 234.517C101.594 234.517 101.245 234.54 100.872 234.587C100.515 234.633 100.181 234.734 99.8701 234.89C99.575 235.029 99.3264 235.231 99.1245 235.495C98.9226 235.744 98.8216 236.078 98.8216 236.497C98.8216 237.274 99.0702 237.817 99.5672 238.128C100.064 238.423 100.74 238.571 101.594 238.571ZM101.408 227.714C102.278 227.714 103.008 227.83 103.598 228.063C104.204 228.281 104.685 228.599 105.042 229.018C105.415 229.422 105.679 229.911 105.835 230.486C105.99 231.045 106.068 231.667 106.068 232.35V239.922C105.881 239.953 105.617 240 105.275 240.062C104.949 240.109 104.576 240.155 104.157 240.202C103.738 240.248 103.279 240.287 102.782 240.318C102.301 240.365 101.819 240.388 101.338 240.388C100.654 240.388 100.025 240.318 99.4507 240.178C98.876 240.039 98.379 239.821 97.9596 239.526C97.5402 239.215 97.214 238.812 96.981 238.315C96.748 237.817 96.6315 237.219 96.6315 236.521C96.6315 235.853 96.7636 235.278 97.0276 234.796C97.3072 234.315 97.68 233.927 98.146 233.631C98.6119 233.336 99.1556 233.119 99.7769 232.979C100.398 232.839 101.051 232.769 101.734 232.769C101.951 232.769 102.177 232.785 102.41 232.816C102.643 232.832 102.86 232.863 103.062 232.909C103.279 232.94 103.466 232.971 103.621 233.002C103.777 233.033 103.885 233.057 103.947 233.072V232.467C103.947 232.109 103.909 231.76 103.831 231.418C103.753 231.061 103.613 230.75 103.411 230.486C103.21 230.207 102.93 229.989 102.573 229.834C102.231 229.663 101.781 229.577 101.221 229.577C100.507 229.577 99.8778 229.632 99.3342 229.741C98.8061 229.834 98.41 229.935 98.146 230.043L97.8897 228.249C98.1693 228.125 98.6352 228.009 99.2876 227.9C99.94 227.776 100.647 227.714 101.408 227.714ZM123.47 234.097C123.47 232.684 123.12 231.597 122.421 230.836C121.722 230.075 120.79 229.694 119.625 229.694C118.973 229.694 118.46 229.717 118.088 229.764C117.73 229.81 117.443 229.865 117.225 229.927V237.569C117.49 237.786 117.87 237.996 118.367 238.198C118.864 238.4 119.408 238.501 119.998 238.501C120.619 238.501 121.147 238.392 121.582 238.175C122.033 237.942 122.398 237.631 122.677 237.243C122.957 236.839 123.159 236.373 123.283 235.845C123.407 235.301 123.47 234.719 123.47 234.097ZM125.73 234.097C125.73 235.014 125.605 235.86 125.357 236.637C125.124 237.414 124.774 238.082 124.308 238.641C123.842 239.2 123.268 239.635 122.584 239.945C121.916 240.256 121.147 240.411 120.278 240.411C119.579 240.411 118.957 240.318 118.414 240.132C117.886 239.945 117.49 239.767 117.225 239.596V244.442H115.059V228.389C115.571 228.265 116.208 228.133 116.969 227.993C117.746 227.838 118.639 227.76 119.649 227.76C120.581 227.76 121.419 227.908 122.165 228.203C122.91 228.498 123.547 228.917 124.075 229.461C124.603 230.005 125.007 230.673 125.287 231.465C125.582 232.241 125.73 233.119 125.73 234.097ZM138.424 239.782C137.927 239.907 137.267 240.039 136.444 240.178C135.636 240.318 134.696 240.388 133.625 240.388C132.693 240.388 131.908 240.256 131.272 239.992C130.635 239.712 130.122 239.324 129.734 238.827C129.346 238.33 129.066 237.748 128.895 237.08C128.724 236.396 128.639 235.643 128.639 234.82V228.016H130.806V234.354C130.806 235.829 131.039 236.886 131.505 237.522C131.971 238.159 132.755 238.478 133.858 238.478C134.091 238.478 134.331 238.47 134.58 238.454C134.829 238.439 135.062 238.423 135.279 238.408C135.496 238.377 135.691 238.353 135.861 238.338C136.048 238.307 136.18 238.276 136.258 238.245V228.016H138.424V239.782ZM136.351 223.427L133.066 226.619L131.971 225.64L134.953 222.052L136.351 223.427ZM144.324 228.552C144.588 228.381 144.984 228.203 145.512 228.016C146.056 227.83 146.677 227.737 147.376 227.737C148.246 227.737 149.015 227.892 149.683 228.203C150.366 228.514 150.941 228.948 151.407 229.508C151.873 230.067 152.222 230.735 152.455 231.511C152.704 232.288 152.828 233.142 152.828 234.074C152.828 235.053 152.68 235.938 152.385 236.73C152.106 237.507 151.702 238.167 151.174 238.711C150.646 239.254 150.009 239.674 149.263 239.969C148.518 240.264 147.679 240.411 146.747 240.411C145.737 240.411 144.844 240.342 144.068 240.202C143.291 240.062 142.654 239.922 142.157 239.782V222.425L144.324 222.052V228.552ZM144.324 238.245C144.541 238.307 144.844 238.369 145.233 238.431C145.636 238.478 146.134 238.501 146.724 238.501C147.889 238.501 148.821 238.12 149.52 237.359C150.219 236.583 150.568 235.488 150.568 234.074C150.568 233.453 150.506 232.87 150.382 232.327C150.257 231.783 150.055 231.317 149.776 230.929C149.496 230.525 149.131 230.214 148.681 229.997C148.246 229.764 147.718 229.647 147.097 229.647C146.506 229.647 145.963 229.748 145.466 229.95C144.969 230.152 144.588 230.362 144.324 230.579V238.245ZM159.512 240.365C158.176 240.334 157.228 240.046 156.669 239.503C156.11 238.959 155.831 238.113 155.831 236.963V222.425L157.997 222.052V236.614C157.997 236.971 158.028 237.266 158.09 237.499C158.153 237.732 158.254 237.918 158.393 238.058C158.533 238.198 158.72 238.307 158.953 238.384C159.186 238.447 159.473 238.501 159.815 238.548L159.512 240.365ZM164.415 240.132H162.248V228.016H164.415V240.132ZM163.32 225.826C162.931 225.826 162.597 225.702 162.318 225.454C162.054 225.19 161.922 224.84 161.922 224.405C161.922 223.97 162.054 223.629 162.318 223.38C162.597 223.116 162.931 222.984 163.32 222.984C163.708 222.984 164.034 223.116 164.298 223.38C164.578 223.629 164.718 223.97 164.718 224.405C164.718 224.84 164.578 225.19 164.298 225.454C164.034 225.702 163.708 225.826 163.32 225.826ZM173.406 240.411C172.428 240.411 171.566 240.256 170.82 239.945C170.09 239.635 169.469 239.2 168.956 238.641C168.459 238.082 168.086 237.421 167.838 236.66C167.589 235.884 167.465 235.029 167.465 234.097C167.465 233.165 167.597 232.311 167.861 231.535C168.141 230.758 168.529 230.09 169.026 229.531C169.523 228.956 170.129 228.514 170.843 228.203C171.574 227.877 172.381 227.714 173.267 227.714C173.81 227.714 174.354 227.76 174.897 227.853C175.441 227.947 175.961 228.094 176.458 228.296L175.969 230.137C175.643 229.981 175.262 229.857 174.828 229.764C174.408 229.671 173.958 229.624 173.476 229.624C172.265 229.624 171.333 230.005 170.68 230.766C170.044 231.527 169.725 232.637 169.725 234.097C169.725 234.75 169.795 235.348 169.935 235.891C170.09 236.435 170.323 236.901 170.634 237.289C170.96 237.678 171.372 237.981 171.869 238.198C172.366 238.4 172.971 238.501 173.686 238.501C174.261 238.501 174.781 238.447 175.247 238.338C175.713 238.229 176.078 238.113 176.342 237.988L176.645 239.806C176.521 239.883 176.342 239.961 176.109 240.039C175.876 240.101 175.612 240.155 175.317 240.202C175.022 240.264 174.703 240.31 174.362 240.342C174.035 240.388 173.717 240.411 173.406 240.411ZM183.072 238.571C183.584 238.571 184.035 238.563 184.423 238.548C184.827 238.516 185.161 238.47 185.425 238.408V234.796C185.27 234.719 185.013 234.657 184.656 234.61C184.314 234.548 183.895 234.517 183.398 234.517C183.072 234.517 182.722 234.54 182.349 234.587C181.992 234.633 181.658 234.734 181.348 234.89C181.052 235.029 180.804 235.231 180.602 235.495C180.4 235.744 180.299 236.078 180.299 236.497C180.299 237.274 180.548 237.817 181.045 238.128C181.542 238.423 182.217 238.571 183.072 238.571ZM182.885 227.714C183.755 227.714 184.485 227.83 185.075 228.063C185.681 228.281 186.163 228.599 186.52 229.018C186.893 229.422 187.157 229.911 187.312 230.486C187.467 231.045 187.545 231.667 187.545 232.35V239.922C187.359 239.953 187.095 240 186.753 240.062C186.427 240.109 186.054 240.155 185.635 240.202C185.215 240.248 184.757 240.287 184.26 240.318C183.778 240.365 183.297 240.388 182.815 240.388C182.132 240.388 181.503 240.318 180.928 240.178C180.354 240.039 179.856 239.821 179.437 239.526C179.018 239.215 178.692 238.812 178.459 238.315C178.226 237.817 178.109 237.219 178.109 236.521C178.109 235.853 178.241 235.278 178.505 234.796C178.785 234.315 179.158 233.927 179.623 233.631C180.089 233.336 180.633 233.119 181.254 232.979C181.876 232.839 182.528 232.769 183.211 232.769C183.429 232.769 183.654 232.785 183.887 232.816C184.12 232.832 184.338 232.863 184.54 232.909C184.757 232.94 184.943 232.971 185.099 233.002C185.254 233.033 185.363 233.057 185.425 233.072V232.467C185.425 232.109 185.386 231.76 185.308 231.418C185.231 231.061 185.091 230.75 184.889 230.486C184.687 230.207 184.407 229.989 184.05 229.834C183.709 229.663 183.258 229.577 182.699 229.577C181.984 229.577 181.355 229.632 180.812 229.741C180.284 229.834 179.888 229.935 179.623 230.043L179.367 228.249C179.647 228.125 180.113 228.009 180.765 227.9C181.417 227.776 182.124 227.714 182.885 227.714Z" fill="white"/>
<path d="M192.42 54.4647C202.497 54.4647 210.233 56.2525 215.629 59.8282C221.025 63.3388 223.723 69.1248 223.723 77.1863C223.723 85.3127 220.993 91.1963 215.532 94.8369C210.071 98.4126 202.269 100.2 192.127 100.2H187.349V122.824H172.136V56.22C175.452 55.5699 178.963 55.1148 182.668 54.8548C186.374 54.5947 189.624 54.4647 192.42 54.4647ZM193.395 67.4345C192.29 67.4345 191.185 67.467 190.08 67.532C189.039 67.5971 188.129 67.6621 187.349 67.7271V87.2306H192.127C197.393 87.2306 201.359 86.5155 204.025 85.0852C206.69 83.6549 208.023 80.9895 208.023 77.0888C208.023 75.2034 207.665 73.6431 206.95 72.4079C206.3 71.1727 205.325 70.1975 204.025 69.4824C202.789 68.7023 201.262 68.1822 199.441 67.9221C197.621 67.5971 195.606 67.4345 193.395 67.4345ZM252.837 55.2448C254.008 57.3902 255.34 60.0557 256.836 63.2413C258.396 66.3618 259.989 69.775 261.614 73.4806C263.304 77.1213 264.962 80.8594 266.587 84.6951C268.213 88.5308 269.74 92.139 271.171 95.5196C272.601 92.139 274.129 88.5308 275.754 84.6951C277.379 80.8594 279.005 77.1213 280.63 73.4806C282.32 69.775 283.913 66.3618 285.408 63.2413C286.969 60.0557 288.334 57.3902 289.504 55.2448H303.351C304.002 59.7307 304.587 64.7691 305.107 70.3601C305.692 75.886 306.179 81.6721 306.57 87.7182C307.025 93.6992 307.415 99.7128 307.74 105.759C308.13 111.805 308.455 117.494 308.715 122.824H293.892C293.697 116.258 293.437 109.107 293.112 101.371C292.787 93.6342 292.299 85.8328 291.649 77.9664C290.479 80.6969 289.179 83.72 287.749 87.0355C286.318 90.3511 284.888 93.6667 283.458 96.9823C282.093 100.298 280.76 103.483 279.46 106.539C278.159 109.53 277.054 112.098 276.144 114.243H265.515C264.605 112.098 263.499 109.53 262.199 106.539C260.899 103.483 259.534 100.298 258.103 96.9823C256.738 93.6667 255.34 90.3511 253.91 87.0355C252.48 83.72 251.18 80.6969 250.009 77.9664C249.359 85.8328 248.872 93.6342 248.547 101.371C248.222 109.107 247.962 116.258 247.766 122.824H232.944C233.204 117.494 233.496 111.805 233.821 105.759C234.212 99.7128 234.602 93.6992 234.992 87.7182C235.447 81.6721 235.934 75.886 236.454 70.3601C237.04 64.7691 237.657 59.7307 238.307 55.2448H252.837Z" fill="white"/>
<path d="M199.464 154.839C199.464 157.726 199.014 160.244 198.116 162.394C197.218 164.511 195.951 166.275 194.315 167.687C192.679 169.066 190.722 170.108 188.445 170.814C186.167 171.488 183.665 171.825 180.938 171.825C179.591 171.825 178.1 171.76 176.464 171.632C174.86 171.536 173.4 171.327 172.085 171.007V138.672C173.4 138.351 174.86 138.143 176.464 138.046C178.1 137.918 179.591 137.854 180.938 137.854C183.665 137.854 186.167 138.207 188.445 138.912C190.722 139.586 192.679 140.629 194.315 142.04C195.951 143.419 197.218 145.184 198.116 147.333C199.014 149.45 199.464 151.952 199.464 154.839ZM181.323 167.735C185.75 167.735 189.054 166.612 191.236 164.366C193.417 162.089 194.507 158.913 194.507 154.839C194.507 150.765 193.417 147.606 191.236 145.36C189.054 143.083 185.75 141.944 181.323 141.944C180.008 141.944 178.982 141.96 178.244 141.992C177.538 142.024 177.041 142.056 176.752 142.088V167.59C177.041 167.622 177.538 167.654 178.244 167.687C178.982 167.719 180.008 167.735 181.323 167.735ZM210.573 171.536H206.098V146.515H210.573V171.536ZM208.312 141.992C207.51 141.992 206.82 141.735 206.243 141.222C205.697 140.677 205.425 139.955 205.425 139.057C205.425 138.159 205.697 137.453 206.243 136.94C206.82 136.394 207.51 136.122 208.312 136.122C209.114 136.122 209.787 136.394 210.333 136.94C210.91 137.453 211.199 138.159 211.199 139.057C211.199 139.955 210.91 140.677 210.333 141.222C209.787 141.735 209.114 141.992 208.312 141.992ZM233.955 169.034C233.57 169.29 232.816 169.627 231.693 170.044C230.603 170.429 229.32 170.622 227.844 170.622C226.336 170.622 224.909 170.381 223.562 169.9C222.246 169.419 221.092 168.681 220.097 167.687C219.103 166.66 218.317 165.393 217.739 163.885C217.162 162.378 216.873 160.581 216.873 158.496C216.873 156.668 217.146 155 217.691 153.492C218.237 151.952 219.023 150.637 220.049 149.546C221.108 148.424 222.391 147.557 223.898 146.948C225.406 146.306 227.106 145.986 228.999 145.986C231.084 145.986 232.896 146.146 234.436 146.467C236.008 146.756 237.323 147.028 238.382 147.285V169.611C238.382 173.461 237.387 176.251 235.398 177.984C233.41 179.716 230.394 180.582 226.352 180.582C224.781 180.582 223.289 180.454 221.878 180.197C220.498 179.94 219.295 179.636 218.269 179.283L219.087 175.385C219.985 175.738 221.076 176.043 222.359 176.299C223.674 176.588 225.037 176.733 226.449 176.733C229.111 176.733 231.02 176.203 232.175 175.145C233.361 174.086 233.955 172.402 233.955 170.092V169.034ZM233.907 150.461C233.458 150.332 232.848 150.22 232.078 150.124C231.341 149.995 230.33 149.931 229.047 149.931C226.641 149.931 224.781 150.717 223.465 152.289C222.182 153.861 221.541 155.946 221.541 158.544C221.541 159.988 221.717 161.223 222.07 162.249C222.455 163.276 222.952 164.126 223.562 164.799C224.203 165.473 224.925 165.97 225.727 166.291C226.561 166.612 227.411 166.772 228.277 166.772C229.464 166.772 230.555 166.612 231.549 166.291C232.544 165.938 233.329 165.537 233.907 165.088V150.461ZM250.561 171.536H246.086V146.515H250.561V171.536ZM248.3 141.992C247.498 141.992 246.808 141.735 246.231 141.222C245.686 140.677 245.413 139.955 245.413 139.057C245.413 138.159 245.686 137.453 246.231 136.94C246.808 136.394 247.498 136.122 248.3 136.122C249.102 136.122 249.775 136.394 250.321 136.94C250.898 137.453 251.187 138.159 251.187 139.057C251.187 139.955 250.898 140.677 250.321 141.222C249.775 141.735 249.102 141.992 248.3 141.992ZM262.443 146.515H271.922V150.268H262.443V161.816C262.443 163.067 262.539 164.11 262.732 164.944C262.924 165.746 263.213 166.387 263.598 166.869C263.983 167.318 264.464 167.638 265.041 167.831C265.619 168.023 266.292 168.12 267.062 168.12C268.409 168.12 269.484 167.975 270.286 167.687C271.12 167.366 271.698 167.141 272.018 167.013L272.884 170.718C272.435 170.942 271.649 171.215 270.527 171.536C269.404 171.889 268.121 172.065 266.677 172.065C264.977 172.065 263.566 171.857 262.443 171.44C261.352 170.991 260.47 170.333 259.797 169.467C259.123 168.601 258.642 167.542 258.353 166.291C258.096 165.008 257.968 163.532 257.968 161.864V139.538L262.443 138.768V146.515ZM286.085 168.312C287.144 168.312 288.074 168.296 288.876 168.264C289.71 168.2 290.4 168.104 290.945 167.975V160.517C290.624 160.357 290.095 160.228 289.357 160.132C288.651 160.004 287.785 159.94 286.759 159.94C286.085 159.94 285.363 159.988 284.593 160.084C283.856 160.18 283.166 160.389 282.524 160.71C281.915 160.998 281.402 161.415 280.985 161.961C280.568 162.474 280.359 163.163 280.359 164.03C280.359 165.634 280.872 166.756 281.899 167.398C282.925 168.007 284.321 168.312 286.085 168.312ZM285.7 145.889C287.496 145.889 289.004 146.13 290.223 146.611C291.474 147.06 292.469 147.718 293.206 148.584C293.976 149.418 294.522 150.428 294.842 151.615C295.163 152.77 295.324 154.053 295.324 155.465V171.103C294.939 171.167 294.393 171.263 293.688 171.392C293.014 171.488 292.244 171.584 291.378 171.68C290.512 171.776 289.566 171.857 288.539 171.921C287.545 172.017 286.55 172.065 285.556 172.065C284.144 172.065 282.845 171.921 281.658 171.632C280.471 171.343 279.445 170.894 278.579 170.285C277.713 169.643 277.039 168.809 276.558 167.783C276.077 166.756 275.836 165.521 275.836 164.078C275.836 162.698 276.109 161.511 276.654 160.517C277.231 159.523 278.001 158.721 278.964 158.111C279.926 157.502 281.049 157.053 282.332 156.764C283.615 156.475 284.962 156.331 286.374 156.331C286.823 156.331 287.288 156.363 287.769 156.427C288.25 156.459 288.699 156.523 289.116 156.62C289.566 156.684 289.95 156.748 290.271 156.812C290.592 156.876 290.817 156.924 290.945 156.956V155.705C290.945 154.968 290.865 154.246 290.704 153.54C290.544 152.802 290.255 152.161 289.838 151.615C289.421 151.038 288.844 150.589 288.106 150.268C287.4 149.915 286.47 149.739 285.315 149.739C283.84 149.739 282.54 149.851 281.418 150.076C280.327 150.268 279.509 150.477 278.964 150.701L278.434 146.996C279.012 146.739 279.974 146.499 281.321 146.274C282.669 146.018 284.128 145.889 285.7 145.889ZM310.262 172.017C307.503 171.953 305.547 171.359 304.392 170.237C303.237 169.114 302.66 167.366 302.66 164.992V134.967L307.134 134.197V164.27C307.134 165.008 307.199 165.617 307.327 166.099C307.455 166.58 307.664 166.965 307.952 167.253C308.241 167.542 308.626 167.767 309.107 167.927C309.588 168.055 310.182 168.168 310.888 168.264L310.262 172.017Z" fill="white"/>
</svg>
